<?xml version="1.0" encoding="utf-8" standalone="no"?>
<!DOCTYPE svg PUBLIC "-//W3C//DTD SVG 1.1//EN"
  "http://www.w3.org/Graphics/SVG/1.1/DTD/svg11.dtd">
<!-- Created with matplotlib (https://matplotlib.org/) -->
<svg height="432pt" version="1.1" viewBox="0 0 720 432" width="720pt" xmlns="http://www.w3.org/2000/svg" xmlns:xlink="http://www.w3.org/1999/xlink">
 <defs>
  <style type="text/css">
*{stroke-linecap:butt;stroke-linejoin:round;}
  </style>
 </defs>
 <g id="figure_1">
  <g id="patch_1">
   <path d="M 0 432 
L 720 432 
L 720 0 
L 0 0 
z
" style="fill:#ffffff;"/>
  </g>
  <g id="axes_1">
   <g id="patch_2">
    <path d="M 90 182.304 
L 229.5 182.304 
L 229.5 51.84 
L 90 51.84 
z
" style="fill:#ffffff;"/>
   </g>
   <g id="matplotlib.axis_1">
    <g id="xtick_1">
     <g id="line2d_1">
      <defs>
       <path d="M 0 0 
L 0 3.5 
" id="m441217ef9d" style="stroke:#000000;stroke-width:0.8;"/>
      </defs>
      <g>
       <use style="stroke:#000000;stroke-width:0.8;" x="96.340909" xlink:href="#m441217ef9d" y="182.304"/>
      </g>
     </g>
     <g id="text_1">
      <!-- 60 -->
      <defs>
       <path d="M 33.015625 40.375 
Q 26.375 40.375 22.484375 35.828125 
Q 18.609375 31.296875 18.609375 23.390625 
Q 18.609375 15.53125 22.484375 10.953125 
Q 26.375 6.390625 33.015625 6.390625 
Q 39.65625 6.390625 43.53125 10.953125 
Q 47.40625 15.53125 47.40625 23.390625 
Q 47.40625 31.296875 43.53125 35.828125 
Q 39.65625 40.375 33.015625 40.375 
z
M 52.59375 71.296875 
L 52.59375 62.3125 
Q 48.875 64.0625 45.09375 64.984375 
Q 41.3125 65.921875 37.59375 65.921875 
Q 27.828125 65.921875 22.671875 59.328125 
Q 17.53125 52.734375 16.796875 39.40625 
Q 19.671875 43.65625 24.015625 45.921875 
Q 28.375 48.1875 33.59375 48.1875 
Q 44.578125 48.1875 50.953125 41.515625 
Q 57.328125 34.859375 57.328125 23.390625 
Q 57.328125 12.15625 50.6875 5.359375 
Q 44.046875 -1.421875 33.015625 -1.421875 
Q 20.359375 -1.421875 13.671875 8.265625 
Q 6.984375 17.96875 6.984375 36.375 
Q 6.984375 53.65625 15.1875 63.9375 
Q 23.390625 74.21875 37.203125 74.21875 
Q 40.921875 74.21875 44.703125 73.484375 
Q 48.484375 72.75 52.59375 71.296875 
z
" id="DejaVuSans-54"/>
       <path d="M 31.78125 66.40625 
Q 24.171875 66.40625 20.328125 58.90625 
Q 16.5 51.421875 16.5 36.375 
Q 16.5 21.390625 20.328125 13.890625 
Q 24.171875 6.390625 31.78125 6.390625 
Q 39.453125 6.390625 43.28125 13.890625 
Q 47.125 21.390625 47.125 36.375 
Q 47.125 51.421875 43.28125 58.90625 
Q 39.453125 66.40625 31.78125 66.40625 
z
M 31.78125 74.21875 
Q 44.046875 74.21875 50.515625 64.515625 
Q 56.984375 54.828125 56.984375 36.375 
Q 56.984375 17.96875 50.515625 8.265625 
Q 44.046875 -1.421875 31.78125 -1.421875 
Q 19.53125 -1.421875 13.0625 8.265625 
Q 6.59375 17.96875 6.59375 36.375 
Q 6.59375 54.828125 13.0625 64.515625 
Q 19.53125 74.21875 31.78125 74.21875 
z
" id="DejaVuSans-48"/>
      </defs>
      <g transform="translate(89.978409 196.902437)scale(0.1 -0.1)">
       <use xlink:href="#DejaVuSans-54"/>
       <use x="63.623047" xlink:href="#DejaVuSans-48"/>
      </g>
     </g>
    </g>
    <g id="xtick_2">
     <g id="line2d_2">
      <g>
       <use style="stroke:#000000;stroke-width:0.8;" x="138.613636" xlink:href="#m441217ef9d" y="182.304"/>
      </g>
     </g>
     <g id="text_2">
      <!-- 40 -->
      <defs>
       <path d="M 37.796875 64.3125 
L 12.890625 25.390625 
L 37.796875 25.390625 
z
M 35.203125 72.90625 
L 47.609375 72.90625 
L 47.609375 25.390625 
L 58.015625 25.390625 
L 58.015625 17.1875 
L 47.609375 17.1875 
L 47.609375 0 
L 37.796875 0 
L 37.796875 17.1875 
L 4.890625 17.1875 
L 4.890625 26.703125 
z
" id="DejaVuSans-52"/>
      </defs>
      <g transform="translate(132.251136 196.902437)scale(0.1 -0.1)">
       <use xlink:href="#DejaVuSans-52"/>
       <use x="63.623047" xlink:href="#DejaVuSans-48"/>
      </g>
     </g>
    </g>
    <g id="xtick_3">
     <g id="line2d_3">
      <g>
       <use style="stroke:#000000;stroke-width:0.8;" x="180.886364" xlink:href="#m441217ef9d" y="182.304"/>
      </g>
     </g>
     <g id="text_3">
      <!-- 20 -->
      <defs>
       <path d="M 19.1875 8.296875 
L 53.609375 8.296875 
L 53.609375 0 
L 7.328125 0 
L 7.328125 8.296875 
Q 12.9375 14.109375 22.625 23.890625 
Q 32.328125 33.6875 34.8125 36.53125 
Q 39.546875 41.84375 41.421875 45.53125 
Q 43.3125 49.21875 43.3125 52.78125 
Q 43.3125 58.59375 39.234375 62.25 
Q 35.15625 65.921875 28.609375 65.921875 
Q 23.96875 65.921875 18.8125 64.3125 
Q 13.671875 62.703125 7.8125 59.421875 
L 7.8125 69.390625 
Q 13.765625 71.78125 18.9375 73 
Q 24.125 74.21875 28.421875 74.21875 
Q 39.75 74.21875 46.484375 68.546875 
Q 53.21875 62.890625 53.21875 53.421875 
Q 53.21875 48.921875 51.53125 44.890625 
Q 49.859375 40.875 45.40625 35.40625 
Q 44.1875 33.984375 37.640625 27.21875 
Q 31.109375 20.453125 19.1875 8.296875 
z
" id="DejaVuSans-50"/>
      </defs>
      <g transform="translate(174.523864 196.902437)scale(0.1 -0.1)">
       <use xlink:href="#DejaVuSans-50"/>
       <use x="63.623047" xlink:href="#DejaVuSans-48"/>
      </g>
     </g>
    </g>
    <g id="xtick_4">
     <g id="line2d_4">
      <g>
       <use style="stroke:#000000;stroke-width:0.8;" x="223.159091" xlink:href="#m441217ef9d" y="182.304"/>
      </g>
     </g>
     <g id="text_4">
      <!-- 0 -->
      <g transform="translate(219.977841 196.902437)scale(0.1 -0.1)">
       <use xlink:href="#DejaVuSans-48"/>
      </g>
     </g>
    </g>
    <g id="text_5">
     <!-- mapping score -->
     <defs>
      <path d="M 52 44.1875 
Q 55.375 50.25 60.0625 53.125 
Q 64.75 56 71.09375 56 
Q 79.640625 56 84.28125 50.015625 
Q 88.921875 44.046875 88.921875 33.015625 
L 88.921875 0 
L 79.890625 0 
L 79.890625 32.71875 
Q 79.890625 40.578125 77.09375 44.375 
Q 74.3125 48.1875 68.609375 48.1875 
Q 61.625 48.1875 57.5625 43.546875 
Q 53.515625 38.921875 53.515625 30.90625 
L 53.515625 0 
L 44.484375 0 
L 44.484375 32.71875 
Q 44.484375 40.625 41.703125 44.40625 
Q 38.921875 48.1875 33.109375 48.1875 
Q 26.21875 48.1875 22.15625 43.53125 
Q 18.109375 38.875 18.109375 30.90625 
L 18.109375 0 
L 9.078125 0 
L 9.078125 54.6875 
L 18.109375 54.6875 
L 18.109375 46.1875 
Q 21.1875 51.21875 25.484375 53.609375 
Q 29.78125 56 35.6875 56 
Q 41.65625 56 45.828125 52.96875 
Q 50 49.953125 52 44.1875 
z
" id="DejaVuSans-109"/>
      <path d="M 34.28125 27.484375 
Q 23.390625 27.484375 19.1875 25 
Q 14.984375 22.515625 14.984375 16.5 
Q 14.984375 11.71875 18.140625 8.90625 
Q 21.296875 6.109375 26.703125 6.109375 
Q 34.1875 6.109375 38.703125 11.40625 
Q 43.21875 16.703125 43.21875 25.484375 
L 43.21875 27.484375 
z
M 52.203125 31.203125 
L 52.203125 0 
L 43.21875 0 
L 43.21875 8.296875 
Q 40.140625 3.328125 35.546875 0.953125 
Q 30.953125 -1.421875 24.3125 -1.421875 
Q 15.921875 -1.421875 10.953125 3.296875 
Q 6 8.015625 6 15.921875 
Q 6 25.140625 12.171875 29.828125 
Q 18.359375 34.515625 30.609375 34.515625 
L 43.21875 34.515625 
L 43.21875 35.40625 
Q 43.21875 41.609375 39.140625 45 
Q 35.0625 48.390625 27.6875 48.390625 
Q 23 48.390625 18.546875 47.265625 
Q 14.109375 46.140625 10.015625 43.890625 
L 10.015625 52.203125 
Q 14.9375 54.109375 19.578125 55.046875 
Q 24.21875 56 28.609375 56 
Q 40.484375 56 46.34375 49.84375 
Q 52.203125 43.703125 52.203125 31.203125 
z
" id="DejaVuSans-97"/>
      <path d="M 18.109375 8.203125 
L 18.109375 -20.796875 
L 9.078125 -20.796875 
L 9.078125 54.6875 
L 18.109375 54.6875 
L 18.109375 46.390625 
Q 20.953125 51.265625 25.265625 53.625 
Q 29.59375 56 35.59375 56 
Q 45.5625 56 51.78125 48.09375 
Q 58.015625 40.1875 58.015625 27.296875 
Q 58.015625 14.40625 51.78125 6.484375 
Q 45.5625 -1.421875 35.59375 -1.421875 
Q 29.59375 -1.421875 25.265625 0.953125 
Q 20.953125 3.328125 18.109375 8.203125 
z
M 48.6875 27.296875 
Q 48.6875 37.203125 44.609375 42.84375 
Q 40.53125 48.484375 33.40625 48.484375 
Q 26.265625 48.484375 22.1875 42.84375 
Q 18.109375 37.203125 18.109375 27.296875 
Q 18.109375 17.390625 22.1875 11.75 
Q 26.265625 6.109375 33.40625 6.109375 
Q 40.53125 6.109375 44.609375 11.75 
Q 48.6875 17.390625 48.6875 27.296875 
z
" id="DejaVuSans-112"/>
      <path d="M 9.421875 54.6875 
L 18.40625 54.6875 
L 18.40625 0 
L 9.421875 0 
z
M 9.421875 75.984375 
L 18.40625 75.984375 
L 18.40625 64.59375 
L 9.421875 64.59375 
z
" id="DejaVuSans-105"/>
      <path d="M 54.890625 33.015625 
L 54.890625 0 
L 45.90625 0 
L 45.90625 32.71875 
Q 45.90625 40.484375 42.875 44.328125 
Q 39.84375 48.1875 33.796875 48.1875 
Q 26.515625 48.1875 22.3125 43.546875 
Q 18.109375 38.921875 18.109375 30.90625 
L 18.109375 0 
L 9.078125 0 
L 9.078125 54.6875 
L 18.109375 54.6875 
L 18.109375 46.1875 
Q 21.34375 51.125 25.703125 53.5625 
Q 30.078125 56 35.796875 56 
Q 45.21875 56 50.046875 50.171875 
Q 54.890625 44.34375 54.890625 33.015625 
z
" id="DejaVuSans-110"/>
      <path d="M 45.40625 27.984375 
Q 45.40625 37.75 41.375 43.109375 
Q 37.359375 48.484375 30.078125 48.484375 
Q 22.859375 48.484375 18.828125 43.109375 
Q 14.796875 37.75 14.796875 27.984375 
Q 14.796875 18.265625 18.828125 12.890625 
Q 22.859375 7.515625 30.078125 7.515625 
Q 37.359375 7.515625 41.375 12.890625 
Q 45.40625 18.265625 45.40625 27.984375 
z
M 54.390625 6.78125 
Q 54.390625 -7.171875 48.1875 -13.984375 
Q 42 -20.796875 29.203125 -20.796875 
Q 24.46875 -20.796875 20.265625 -20.09375 
Q 16.0625 -19.390625 12.109375 -17.921875 
L 12.109375 -9.1875 
Q 16.0625 -11.328125 19.921875 -12.34375 
Q 23.78125 -13.375 27.78125 -13.375 
Q 36.625 -13.375 41.015625 -8.765625 
Q 45.40625 -4.15625 45.40625 5.171875 
L 45.40625 9.625 
Q 42.625 4.78125 38.28125 2.390625 
Q 33.9375 0 27.875 0 
Q 17.828125 0 11.671875 7.65625 
Q 5.515625 15.328125 5.515625 27.984375 
Q 5.515625 40.671875 11.671875 48.328125 
Q 17.828125 56 27.875 56 
Q 33.9375 56 38.28125 53.609375 
Q 42.625 51.21875 45.40625 46.390625 
L 45.40625 54.6875 
L 54.390625 54.6875 
z
" id="DejaVuSans-103"/>
      <path id="DejaVuSans-32"/>
      <path d="M 44.28125 53.078125 
L 44.28125 44.578125 
Q 40.484375 46.53125 36.375 47.5 
Q 32.28125 48.484375 27.875 48.484375 
Q 21.1875 48.484375 17.84375 46.4375 
Q 14.5 44.390625 14.5 40.28125 
Q 14.5 37.15625 16.890625 35.375 
Q 19.28125 33.59375 26.515625 31.984375 
L 29.59375 31.296875 
Q 39.15625 29.25 43.1875 25.515625 
Q 47.21875 21.78125 47.21875 15.09375 
Q 47.21875 7.46875 41.1875 3.015625 
Q 35.15625 -1.421875 24.609375 -1.421875 
Q 20.21875 -1.421875 15.453125 -0.5625 
Q 10.6875 0.296875 5.421875 2 
L 5.421875 11.28125 
Q 10.40625 8.6875 15.234375 7.390625 
Q 20.0625 6.109375 24.8125 6.109375 
Q 31.15625 6.109375 34.5625 8.28125 
Q 37.984375 10.453125 37.984375 14.40625 
Q 37.984375 18.0625 35.515625 20.015625 
Q 33.0625 21.96875 24.703125 23.78125 
L 21.578125 24.515625 
Q 13.234375 26.265625 9.515625 29.90625 
Q 5.8125 33.546875 5.8125 39.890625 
Q 5.8125 47.609375 11.28125 51.796875 
Q 16.75 56 26.8125 56 
Q 31.78125 56 36.171875 55.265625 
Q 40.578125 54.546875 44.28125 53.078125 
z
" id="DejaVuSans-115"/>
      <path d="M 48.78125 52.59375 
L 48.78125 44.1875 
Q 44.96875 46.296875 41.140625 47.34375 
Q 37.3125 48.390625 33.40625 48.390625 
Q 24.65625 48.390625 19.8125 42.84375 
Q 14.984375 37.3125 14.984375 27.296875 
Q 14.984375 17.28125 19.8125 11.734375 
Q 24.65625 6.203125 33.40625 6.203125 
Q 37.3125 6.203125 41.140625 7.25 
Q 44.96875 8.296875 48.78125 10.40625 
L 48.78125 2.09375 
Q 45.015625 0.34375 40.984375 -0.53125 
Q 36.96875 -1.421875 32.421875 -1.421875 
Q 20.0625 -1.421875 12.78125 6.34375 
Q 5.515625 14.109375 5.515625 27.296875 
Q 5.515625 40.671875 12.859375 48.328125 
Q 20.21875 56 33.015625 56 
Q 37.15625 56 41.109375 55.140625 
Q 45.0625 54.296875 48.78125 52.59375 
z
" id="DejaVuSans-99"/>
      <path d="M 30.609375 48.390625 
Q 23.390625 48.390625 19.1875 42.75 
Q 14.984375 37.109375 14.984375 27.296875 
Q 14.984375 17.484375 19.15625 11.84375 
Q 23.34375 6.203125 30.609375 6.203125 
Q 37.796875 6.203125 41.984375 11.859375 
Q 46.1875 17.53125 46.1875 27.296875 
Q 46.1875 37.015625 41.984375 42.703125 
Q 37.796875 48.390625 30.609375 48.390625 
z
M 30.609375 56 
Q 42.328125 56 49.015625 48.375 
Q 55.71875 40.765625 55.71875 27.296875 
Q 55.71875 13.875 49.015625 6.21875 
Q 42.328125 -1.421875 30.609375 -1.421875 
Q 18.84375 -1.421875 12.171875 6.21875 
Q 5.515625 13.875 5.515625 27.296875 
Q 5.515625 40.765625 12.171875 48.375 
Q 18.84375 56 30.609375 56 
z
" id="DejaVuSans-111"/>
      <path d="M 41.109375 46.296875 
Q 39.59375 47.171875 37.8125 47.578125 
Q 36.03125 48 33.890625 48 
Q 26.265625 48 22.1875 43.046875 
Q 18.109375 38.09375 18.109375 28.8125 
L 18.109375 0 
L 9.078125 0 
L 9.078125 54.6875 
L 18.109375 54.6875 
L 18.109375 46.1875 
Q 20.953125 51.171875 25.484375 53.578125 
Q 30.03125 56 36.53125 56 
Q 37.453125 56 38.578125 55.875 
Q 39.703125 55.765625 41.0625 55.515625 
z
" id="DejaVuSans-114"/>
      <path d="M 56.203125 29.59375 
L 56.203125 25.203125 
L 14.890625 25.203125 
Q 15.484375 15.921875 20.484375 11.0625 
Q 25.484375 6.203125 34.421875 6.203125 
Q 39.59375 6.203125 44.453125 7.46875 
Q 49.3125 8.734375 54.109375 11.28125 
L 54.109375 2.78125 
Q 49.265625 0.734375 44.1875 -0.34375 
Q 39.109375 -1.421875 33.890625 -1.421875 
Q 20.796875 -1.421875 13.15625 6.1875 
Q 5.515625 13.8125 5.515625 26.8125 
Q 5.515625 40.234375 12.765625 48.109375 
Q 20.015625 56 32.328125 56 
Q 43.359375 56 49.78125 48.890625 
Q 56.203125 41.796875 56.203125 29.59375 
z
M 47.21875 32.234375 
Q 47.125 39.59375 43.09375 43.984375 
Q 39.0625 48.390625 32.421875 48.390625 
Q 24.90625 48.390625 20.390625 44.140625 
Q 15.875 39.890625 15.1875 32.171875 
z
" id="DejaVuSans-101"/>
     </defs>
     <g transform="translate(122.602344 210.580562)scale(0.1 -0.1)">
      <use xlink:href="#DejaVuSans-109"/>
      <use x="97.412109" xlink:href="#DejaVuSans-97"/>
      <use x="158.691406" xlink:href="#DejaVuSans-112"/>
      <use x="222.167969" xlink:href="#DejaVuSans-112"/>
      <use x="285.644531" xlink:href="#DejaVuSans-105"/>
      <use x="313.427734" xlink:href="#DejaVuSans-110"/>
      <use x="376.806641" xlink:href="#DejaVuSans-103"/>
      <use x="440.283203" xlink:href="#DejaVuSans-32"/>
      <use x="472.070312" xlink:href="#DejaVuSans-115"/>
      <use x="524.169922" xlink:href="#DejaVuSans-99"/>
      <use x="579.150391" xlink:href="#DejaVuSans-111"/>
      <use x="640.332031" xlink:href="#DejaVuSans-114"/>
      <use x="681.414062" xlink:href="#DejaVuSans-101"/>
     </g>
    </g>
   </g>
   <g id="matplotlib.axis_2">
    <g id="ytick_1">
     <g id="line2d_5">
      <defs>
       <path d="M 0 0 
L -3.5 0 
" id="m1b86894f55" style="stroke:#000000;stroke-width:0.8;"/>
      </defs>
      <g>
       <use style="stroke:#000000;stroke-width:0.8;" x="90" xlink:href="#m1b86894f55" y="163.082267"/>
      </g>
     </g>
     <g id="text_6">
      <!-- 0.92 -->
      <defs>
       <path d="M 10.6875 12.40625 
L 21 12.40625 
L 21 0 
L 10.6875 0 
z
" id="DejaVuSans-46"/>
       <path d="M 10.984375 1.515625 
L 10.984375 10.5 
Q 14.703125 8.734375 18.5 7.8125 
Q 22.3125 6.890625 25.984375 6.890625 
Q 35.75 6.890625 40.890625 13.453125 
Q 46.046875 20.015625 46.78125 33.40625 
Q 43.953125 29.203125 39.59375 26.953125 
Q 35.25 24.703125 29.984375 24.703125 
Q 19.046875 24.703125 12.671875 31.3125 
Q 6.296875 37.9375 6.296875 49.421875 
Q 6.296875 60.640625 12.9375 67.421875 
Q 19.578125 74.21875 30.609375 74.21875 
Q 43.265625 74.21875 49.921875 64.515625 
Q 56.59375 54.828125 56.59375 36.375 
Q 56.59375 19.140625 48.40625 8.859375 
Q 40.234375 -1.421875 26.421875 -1.421875 
Q 22.703125 -1.421875 18.890625 -0.6875 
Q 15.09375 0.046875 10.984375 1.515625 
z
M 30.609375 32.421875 
Q 37.25 32.421875 41.125 36.953125 
Q 45.015625 41.5 45.015625 49.421875 
Q 45.015625 57.28125 41.125 61.84375 
Q 37.25 66.40625 30.609375 66.40625 
Q 23.96875 66.40625 20.09375 61.84375 
Q 16.21875 57.28125 16.21875 49.421875 
Q 16.21875 41.5 20.09375 36.953125 
Q 23.96875 32.421875 30.609375 32.421875 
z
" id="DejaVuSans-57"/>
      </defs>
      <g transform="translate(60.734375 166.881486)scale(0.1 -0.1)">
       <use xlink:href="#DejaVuSans-48"/>
       <use x="63.623047" xlink:href="#DejaVuSans-46"/>
       <use x="95.410156" xlink:href="#DejaVuSans-57"/>
       <use x="159.033203" xlink:href="#DejaVuSans-50"/>
      </g>
     </g>
    </g>
    <g id="ytick_2">
     <g id="line2d_6">
      <g>
       <use style="stroke:#000000;stroke-width:0.8;" x="90" xlink:href="#m1b86894f55" y="136.752284"/>
      </g>
     </g>
     <g id="text_7">
      <!-- 0.94 -->
      <g transform="translate(60.734375 140.551503)scale(0.1 -0.1)">
       <use xlink:href="#DejaVuSans-48"/>
       <use x="63.623047" xlink:href="#DejaVuSans-46"/>
       <use x="95.410156" xlink:href="#DejaVuSans-57"/>
       <use x="159.033203" xlink:href="#DejaVuSans-52"/>
      </g>
     </g>
    </g>
    <g id="ytick_3">
     <g id="line2d_7">
      <g>
       <use style="stroke:#000000;stroke-width:0.8;" x="90" xlink:href="#m1b86894f55" y="110.422301"/>
      </g>
     </g>
     <g id="text_8">
      <!-- 0.96 -->
      <g transform="translate(60.734375 114.22152)scale(0.1 -0.1)">
       <use xlink:href="#DejaVuSans-48"/>
       <use x="63.623047" xlink:href="#DejaVuSans-46"/>
       <use x="95.410156" xlink:href="#DejaVuSans-57"/>
       <use x="159.033203" xlink:href="#DejaVuSans-54"/>
      </g>
     </g>
    </g>
    <g id="ytick_4">
     <g id="line2d_8">
      <g>
       <use style="stroke:#000000;stroke-width:0.8;" x="90" xlink:href="#m1b86894f55" y="84.092318"/>
      </g>
     </g>
     <g id="text_9">
      <!-- 0.98 -->
      <defs>
       <path d="M 31.78125 34.625 
Q 24.75 34.625 20.71875 30.859375 
Q 16.703125 27.09375 16.703125 20.515625 
Q 16.703125 13.921875 20.71875 10.15625 
Q 24.75 6.390625 31.78125 6.390625 
Q 38.8125 6.390625 42.859375 10.171875 
Q 46.921875 13.96875 46.921875 20.515625 
Q 46.921875 27.09375 42.890625 30.859375 
Q 38.875 34.625 31.78125 34.625 
z
M 21.921875 38.8125 
Q 15.578125 40.375 12.03125 44.71875 
Q 8.5 49.078125 8.5 55.328125 
Q 8.5 64.0625 14.71875 69.140625 
Q 20.953125 74.21875 31.78125 74.21875 
Q 42.671875 74.21875 48.875 69.140625 
Q 55.078125 64.0625 55.078125 55.328125 
Q 55.078125 49.078125 51.53125 44.71875 
Q 48 40.375 41.703125 38.8125 
Q 48.828125 37.15625 52.796875 32.3125 
Q 56.78125 27.484375 56.78125 20.515625 
Q 56.78125 9.90625 50.3125 4.234375 
Q 43.84375 -1.421875 31.78125 -1.421875 
Q 19.734375 -1.421875 13.25 4.234375 
Q 6.78125 9.90625 6.78125 20.515625 
Q 6.78125 27.484375 10.78125 32.3125 
Q 14.796875 37.15625 21.921875 38.8125 
z
M 18.3125 54.390625 
Q 18.3125 48.734375 21.84375 45.5625 
Q 25.390625 42.390625 31.78125 42.390625 
Q 38.140625 42.390625 41.71875 45.5625 
Q 45.3125 48.734375 45.3125 54.390625 
Q 45.3125 60.0625 41.71875 63.234375 
Q 38.140625 66.40625 31.78125 66.40625 
Q 25.390625 66.40625 21.84375 63.234375 
Q 18.3125 60.0625 18.3125 54.390625 
z
" id="DejaVuSans-56"/>
      </defs>
      <g transform="translate(60.734375 87.891537)scale(0.1 -0.1)">
       <use xlink:href="#DejaVuSans-48"/>
       <use x="63.623047" xlink:href="#DejaVuSans-46"/>
       <use x="95.410156" xlink:href="#DejaVuSans-57"/>
       <use x="159.033203" xlink:href="#DejaVuSans-56"/>
      </g>
     </g>
    </g>
    <g id="ytick_5">
     <g id="line2d_9">
      <g>
       <use style="stroke:#000000;stroke-width:0.8;" x="90" xlink:href="#m1b86894f55" y="57.762335"/>
      </g>
     </g>
     <g id="text_10">
      <!-- 1.00 -->
      <defs>
       <path d="M 12.40625 8.296875 
L 28.515625 8.296875 
L 28.515625 63.921875 
L 10.984375 60.40625 
L 10.984375 69.390625 
L 28.421875 72.90625 
L 38.28125 72.90625 
L 38.28125 8.296875 
L 54.390625 8.296875 
L 54.390625 0 
L 12.40625 0 
z
" id="DejaVuSans-49"/>
      </defs>
      <g transform="translate(60.734375 61.561554)scale(0.1 -0.1)">
       <use xlink:href="#DejaVuSans-49"/>
       <use x="63.623047" xlink:href="#DejaVuSans-46"/>
       <use x="95.410156" xlink:href="#DejaVuSans-48"/>
       <use x="159.033203" xlink:href="#DejaVuSans-48"/>
      </g>
     </g>
    </g>
    <g id="text_11">
     <!-- cumulative precision -->
     <defs>
      <path d="M 8.5 21.578125 
L 8.5 54.6875 
L 17.484375 54.6875 
L 17.484375 21.921875 
Q 17.484375 14.15625 20.5 10.265625 
Q 23.53125 6.390625 29.59375 6.390625 
Q 36.859375 6.390625 41.078125 11.03125 
Q 45.3125 15.671875 45.3125 23.6875 
L 45.3125 54.6875 
L 54.296875 54.6875 
L 54.296875 0 
L 45.3125 0 
L 45.3125 8.40625 
Q 42.046875 3.421875 37.71875 1 
Q 33.40625 -1.421875 27.6875 -1.421875 
Q 18.265625 -1.421875 13.375 4.4375 
Q 8.5 10.296875 8.5 21.578125 
z
M 31.109375 56 
z
" id="DejaVuSans-117"/>
      <path d="M 9.421875 75.984375 
L 18.40625 75.984375 
L 18.40625 0 
L 9.421875 0 
z
" id="DejaVuSans-108"/>
      <path d="M 18.3125 70.21875 
L 18.3125 54.6875 
L 36.8125 54.6875 
L 36.8125 47.703125 
L 18.3125 47.703125 
L 18.3125 18.015625 
Q 18.3125 11.328125 20.140625 9.421875 
Q 21.96875 7.515625 27.59375 7.515625 
L 36.8125 7.515625 
L 36.8125 0 
L 27.59375 0 
Q 17.1875 0 13.234375 3.875 
Q 9.28125 7.765625 9.28125 18.015625 
L 9.28125 47.703125 
L 2.6875 47.703125 
L 2.6875 54.6875 
L 9.28125 54.6875 
L 9.28125 70.21875 
z
" id="DejaVuSans-116"/>
      <path d="M 2.984375 54.6875 
L 12.5 54.6875 
L 29.59375 8.796875 
L 46.6875 54.6875 
L 56.203125 54.6875 
L 35.6875 0 
L 23.484375 0 
z
" id="DejaVuSans-118"/>
     </defs>
     <g transform="translate(54.654687 169.121219)rotate(-90)scale(0.1 -0.1)">
      <use xlink:href="#DejaVuSans-99"/>
      <use x="54.980469" xlink:href="#DejaVuSans-117"/>
      <use x="118.359375" xlink:href="#DejaVuSans-109"/>
      <use x="215.771484" xlink:href="#DejaVuSans-117"/>
      <use x="279.150391" xlink:href="#DejaVuSans-108"/>
      <use x="306.933594" xlink:href="#DejaVuSans-97"/>
      <use x="368.212891" xlink:href="#DejaVuSans-116"/>
      <use x="407.421875" xlink:href="#DejaVuSans-105"/>
      <use x="435.205078" xlink:href="#DejaVuSans-118"/>
      <use x="494.384766" xlink:href="#DejaVuSans-101"/>
      <use x="555.908203" xlink:href="#DejaVuSans-32"/>
      <use x="587.695312" xlink:href="#DejaVuSans-112"/>
      <use x="651.171875" xlink:href="#DejaVuSans-114"/>
      <use x="692.253906" xlink:href="#DejaVuSans-101"/>
      <use x="753.777344" xlink:href="#DejaVuSans-99"/>
      <use x="808.757812" xlink:href="#DejaVuSans-105"/>
      <use x="836.541016" xlink:href="#DejaVuSans-115"/>
      <use x="888.640625" xlink:href="#DejaVuSans-105"/>
      <use x="916.423828" xlink:href="#DejaVuSans-111"/>
      <use x="977.605469" xlink:href="#DejaVuSans-110"/>
     </g>
    </g>
   </g>
   <g id="line2d_10">
    <path clip-path="url(#pf1a3954585)" d="M 96.340909 57.770536 
L 98.454545 57.770536 
L 100.568182 57.770536 
L 102.681818 57.77053 
L 104.795455 57.77053 
L 106.909091 57.770524 
L 109.022727 57.770522 
L 111.136364 57.770519 
L 113.25 57.770513 
L 115.363636 57.770512 
L 117.477273 57.770467 
L 119.590909 57.770459 
L 121.704545 57.770445 
L 123.818182 57.770433 
L 125.931818 57.770427 
L 128.045455 57.770416 
L 130.159091 57.770412 
L 132.272727 57.770406 
L 134.386364 57.770402 
L 136.5 57.7704 
L 138.613636 57.770288 
L 140.727273 57.770284 
L 142.840909 57.770282 
L 144.954545 57.77028 
L 147.068182 57.770279 
L 149.181818 57.770278 
L 151.295455 57.770276 
L 153.409091 57.770274 
L 155.522727 57.770273 
L 157.636364 57.770271 
L 159.75 57.770263 
L 161.863636 57.770263 
L 163.977273 57.770262 
L 166.090909 57.770217 
L 168.204545 57.770216 
L 170.318182 57.770202 
L 172.431818 57.770192 
L 174.545455 57.770188 
L 176.659091 57.770182 
L 178.772727 57.785858 
L 180.886364 57.785846 
L 183 57.785839 
L 185.113636 57.785834 
L 187.227273 57.785826 
L 189.340909 57.785817 
L 191.454545 57.785809 
L 193.568182 57.785802 
L 195.681818 57.785793 
L 197.795455 57.785788 
L 199.909091 57.785782 
L 202.022727 57.785775 
L 204.136364 57.809194 
L 206.25 57.809184 
L 208.363636 57.832588 
L 210.477273 57.863781 
L 212.590909 57.863767 
L 214.704545 57.879339 
L 216.818182 57.949467 
L 218.931818 57.965034 
L 221.045455 58.042907 
L 223.159091 149.620649 
" style="fill:none;stroke:#1f77b4;stroke-linecap:square;stroke-width:1.5;"/>
   </g>
   <g id="line2d_11">
    <path clip-path="url(#pf1a3954585)" d="M 134.386364 112.715677 
L 136.5 112.715677 
L 138.613636 113.326161 
L 140.727273 113.442065 
L 142.840909 113.437191 
L 144.954545 113.599092 
L 147.068182 113.945896 
L 149.181818 114.499828 
L 151.295455 115.168965 
L 153.409091 115.185591 
L 155.522727 115.778361 
L 157.636364 117.013822 
L 159.75 118.156358 
L 161.863636 118.156358 
L 163.977273 118.156358 
L 166.090909 118.189606 
L 168.204545 118.371539 
L 170.318182 118.655771 
L 172.431818 119.326571 
L 174.545455 120.249079 
L 176.659091 120.37993 
L 178.772727 120.733193 
L 180.886364 120.733193 
L 183 120.733193 
L 185.113636 121.137457 
L 187.227273 121.642445 
L 189.340909 121.725067 
L 191.454545 121.935754 
L 193.568182 121.983273 
L 195.681818 121.983273 
L 197.795455 122.552835 
L 199.909091 123.079346 
L 202.022727 123.079346 
L 204.136364 123.079346 
L 206.25 123.660713 
L 208.363636 124.518495 
L 210.477273 129.310883 
L 212.590909 129.348479 
L 214.704545 129.47294 
L 216.818182 130.373857 
L 218.931818 133.460781 
L 221.045455 171.278479 
L 223.159091 176.373818 
" style="fill:none;stroke:#ff7f0e;stroke-linecap:square;stroke-width:1.5;"/>
   </g>
   <g id="patch_3">
    <path d="M 90 182.304 
L 90 51.84 
" style="fill:none;stroke:#000000;stroke-linecap:square;stroke-linejoin:miter;stroke-width:0.8;"/>
   </g>
   <g id="patch_4">
    <path d="M 229.5 182.304 
L 229.5 51.84 
" style="fill:none;stroke:#000000;stroke-linecap:square;stroke-linejoin:miter;stroke-width:0.8;"/>
   </g>
   <g id="patch_5">
    <path d="M 90 182.304 
L 229.5 182.304 
" style="fill:none;stroke:#000000;stroke-linecap:square;stroke-linejoin:miter;stroke-width:0.8;"/>
   </g>
   <g id="patch_6">
    <path d="M 90 51.84 
L 229.5 51.84 
" style="fill:none;stroke:#000000;stroke-linecap:square;stroke-linejoin:miter;stroke-width:0.8;"/>
   </g>
   <g id="text_12">
    <!-- dataset1 -->
    <defs>
     <path d="M 45.40625 46.390625 
L 45.40625 75.984375 
L 54.390625 75.984375 
L 54.390625 0 
L 45.40625 0 
L 45.40625 8.203125 
Q 42.578125 3.328125 38.25 0.953125 
Q 33.9375 -1.421875 27.875 -1.421875 
Q 17.96875 -1.421875 11.734375 6.484375 
Q 5.515625 14.40625 5.515625 27.296875 
Q 5.515625 40.1875 11.734375 48.09375 
Q 17.96875 56 27.875 56 
Q 33.9375 56 38.25 53.625 
Q 42.578125 51.265625 45.40625 46.390625 
z
M 14.796875 27.296875 
Q 14.796875 17.390625 18.875 11.75 
Q 22.953125 6.109375 30.078125 6.109375 
Q 37.203125 6.109375 41.296875 11.75 
Q 45.40625 17.390625 45.40625 27.296875 
Q 45.40625 37.203125 41.296875 42.84375 
Q 37.203125 48.484375 30.078125 48.484375 
Q 22.953125 48.484375 18.875 42.84375 
Q 14.796875 37.203125 14.796875 27.296875 
z
" id="DejaVuSans-100"/>
    </defs>
    <g transform="translate(133.247813 45.84)scale(0.12 -0.12)">
     <use xlink:href="#DejaVuSans-100"/>
     <use x="63.476562" xlink:href="#DejaVuSans-97"/>
     <use x="124.755859" xlink:href="#DejaVuSans-116"/>
     <use x="163.964844" xlink:href="#DejaVuSans-97"/>
     <use x="225.244141" xlink:href="#DejaVuSans-115"/>
     <use x="277.34375" xlink:href="#DejaVuSans-101"/>
     <use x="338.867188" xlink:href="#DejaVuSans-116"/>
     <use x="378.076172" xlink:href="#DejaVuSans-49"/>
    </g>
   </g>
   <g id="legend_1">
    <g id="patch_7">
     <path d="M 97 177.304 
L 168.859375 177.304 
Q 170.859375 177.304 170.859375 175.304 
L 170.859375 146.94775 
Q 170.859375 144.94775 168.859375 144.94775 
L 97 144.94775 
Q 95 144.94775 95 146.94775 
L 95 175.304 
Q 95 177.304 97 177.304 
z
" style="fill:#ffffff;opacity:0.8;stroke:#cccccc;stroke-linejoin:miter;"/>
    </g>
    <g id="line2d_12">
     <path d="M 99 153.046187 
L 119 153.046187 
" style="fill:none;stroke:#1f77b4;stroke-linecap:square;stroke-width:1.5;"/>
    </g>
    <g id="line2d_13"/>
    <g id="text_13">
     <!-- bwa -->
     <defs>
      <path d="M 48.6875 27.296875 
Q 48.6875 37.203125 44.609375 42.84375 
Q 40.53125 48.484375 33.40625 48.484375 
Q 26.265625 48.484375 22.1875 42.84375 
Q 18.109375 37.203125 18.109375 27.296875 
Q 18.109375 17.390625 22.1875 11.75 
Q 26.265625 6.109375 33.40625 6.109375 
Q 40.53125 6.109375 44.609375 11.75 
Q 48.6875 17.390625 48.6875 27.296875 
z
M 18.109375 46.390625 
Q 20.953125 51.265625 25.265625 53.625 
Q 29.59375 56 35.59375 56 
Q 45.5625 56 51.78125 48.09375 
Q 58.015625 40.1875 58.015625 27.296875 
Q 58.015625 14.40625 51.78125 6.484375 
Q 45.5625 -1.421875 35.59375 -1.421875 
Q 29.59375 -1.421875 25.265625 0.953125 
Q 20.953125 3.328125 18.109375 8.203125 
L 18.109375 0 
L 9.078125 0 
L 9.078125 75.984375 
L 18.109375 75.984375 
z
" id="DejaVuSans-98"/>
      <path d="M 4.203125 54.6875 
L 13.1875 54.6875 
L 24.421875 12.015625 
L 35.59375 54.6875 
L 46.1875 54.6875 
L 57.421875 12.015625 
L 68.609375 54.6875 
L 77.59375 54.6875 
L 63.28125 0 
L 52.6875 0 
L 40.921875 44.828125 
L 29.109375 0 
L 18.5 0 
z
" id="DejaVuSans-119"/>
     </defs>
     <g transform="translate(127 156.546187)scale(0.1 -0.1)">
      <use xlink:href="#DejaVuSans-98"/>
      <use x="63.476562" xlink:href="#DejaVuSans-119"/>
      <use x="145.263672" xlink:href="#DejaVuSans-97"/>
     </g>
    </g>
    <g id="line2d_14">
     <path d="M 99 167.724312 
L 119 167.724312 
" style="fill:none;stroke:#ff7f0e;stroke-linecap:square;stroke-width:1.5;"/>
    </g>
    <g id="line2d_15"/>
    <g id="text_14">
     <!-- bowtie2 -->
     <g transform="translate(127 171.224312)scale(0.1 -0.1)">
      <use xlink:href="#DejaVuSans-98"/>
      <use x="63.476562" xlink:href="#DejaVuSans-111"/>
      <use x="124.658203" xlink:href="#DejaVuSans-119"/>
      <use x="206.445312" xlink:href="#DejaVuSans-116"/>
      <use x="245.654297" xlink:href="#DejaVuSans-105"/>
      <use x="273.4375" xlink:href="#DejaVuSans-101"/>
      <use x="334.960938" xlink:href="#DejaVuSans-50"/>
     </g>
    </g>
   </g>
  </g>
  <g id="axes_2">
   <g id="patch_8">
    <path d="M 299.25 182.304 
L 438.75 182.304 
L 438.75 51.84 
L 299.25 51.84 
z
" style="fill:#ffffff;"/>
   </g>
   <g id="matplotlib.axis_3">
    <g id="xtick_5">
     <g id="line2d_16">
      <g>
       <use style="stroke:#000000;stroke-width:0.8;" x="305.590909" xlink:href="#m441217ef9d" y="182.304"/>
      </g>
     </g>
     <g id="text_15">
      <!-- 60 -->
      <g transform="translate(299.228409 196.902437)scale(0.1 -0.1)">
       <use xlink:href="#DejaVuSans-54"/>
       <use x="63.623047" xlink:href="#DejaVuSans-48"/>
      </g>
     </g>
    </g>
    <g id="xtick_6">
     <g id="line2d_17">
      <g>
       <use style="stroke:#000000;stroke-width:0.8;" x="347.863636" xlink:href="#m441217ef9d" y="182.304"/>
      </g>
     </g>
     <g id="text_16">
      <!-- 40 -->
      <g transform="translate(341.501136 196.902437)scale(0.1 -0.1)">
       <use xlink:href="#DejaVuSans-52"/>
       <use x="63.623047" xlink:href="#DejaVuSans-48"/>
      </g>
     </g>
    </g>
    <g id="xtick_7">
     <g id="line2d_18">
      <g>
       <use style="stroke:#000000;stroke-width:0.8;" x="390.136364" xlink:href="#m441217ef9d" y="182.304"/>
      </g>
     </g>
     <g id="text_17">
      <!-- 20 -->
      <g transform="translate(383.773864 196.902437)scale(0.1 -0.1)">
       <use xlink:href="#DejaVuSans-50"/>
       <use x="63.623047" xlink:href="#DejaVuSans-48"/>
      </g>
     </g>
    </g>
    <g id="xtick_8">
     <g id="line2d_19">
      <g>
       <use style="stroke:#000000;stroke-width:0.8;" x="432.409091" xlink:href="#m441217ef9d" y="182.304"/>
      </g>
     </g>
     <g id="text_18">
      <!-- 0 -->
      <g transform="translate(429.227841 196.902437)scale(0.1 -0.1)">
       <use xlink:href="#DejaVuSans-48"/>
      </g>
     </g>
    </g>
    <g id="text_19">
     <!-- mapping score -->
     <g transform="translate(331.852344 210.580562)scale(0.1 -0.1)">
      <use xlink:href="#DejaVuSans-109"/>
      <use x="97.412109" xlink:href="#DejaVuSans-97"/>
      <use x="158.691406" xlink:href="#DejaVuSans-112"/>
      <use x="222.167969" xlink:href="#DejaVuSans-112"/>
      <use x="285.644531" xlink:href="#DejaVuSans-105"/>
      <use x="313.427734" xlink:href="#DejaVuSans-110"/>
      <use x="376.806641" xlink:href="#DejaVuSans-103"/>
      <use x="440.283203" xlink:href="#DejaVuSans-32"/>
      <use x="472.070312" xlink:href="#DejaVuSans-115"/>
      <use x="524.169922" xlink:href="#DejaVuSans-99"/>
      <use x="579.150391" xlink:href="#DejaVuSans-111"/>
      <use x="640.332031" xlink:href="#DejaVuSans-114"/>
      <use x="681.414062" xlink:href="#DejaVuSans-101"/>
     </g>
    </g>
   </g>
   <g id="matplotlib.axis_4">
    <g id="ytick_6">
     <g id="line2d_20">
      <g>
       <use style="stroke:#000000;stroke-width:0.8;" x="299.25" xlink:href="#m1b86894f55" y="159.637117"/>
      </g>
     </g>
     <g id="text_20">
      <!-- 0.900 -->
      <g transform="translate(263.621875 163.436336)scale(0.1 -0.1)">
       <use xlink:href="#DejaVuSans-48"/>
       <use x="63.623047" xlink:href="#DejaVuSans-46"/>
       <use x="95.410156" xlink:href="#DejaVuSans-57"/>
       <use x="159.033203" xlink:href="#DejaVuSans-48"/>
       <use x="222.65625" xlink:href="#DejaVuSans-48"/>
      </g>
     </g>
    </g>
    <g id="ytick_7">
     <g id="line2d_21">
      <g>
       <use style="stroke:#000000;stroke-width:0.8;" x="299.25" xlink:href="#m1b86894f55" y="134.167059"/>
      </g>
     </g>
     <g id="text_21">
      <!-- 0.925 -->
      <defs>
       <path d="M 10.796875 72.90625 
L 49.515625 72.90625 
L 49.515625 64.59375 
L 19.828125 64.59375 
L 19.828125 46.734375 
Q 21.96875 47.46875 24.109375 47.828125 
Q 26.265625 48.1875 28.421875 48.1875 
Q 40.625 48.1875 47.75 41.5 
Q 54.890625 34.8125 54.890625 23.390625 
Q 54.890625 11.625 47.5625 5.09375 
Q 40.234375 -1.421875 26.90625 -1.421875 
Q 22.3125 -1.421875 17.546875 -0.640625 
Q 12.796875 0.140625 7.71875 1.703125 
L 7.71875 11.625 
Q 12.109375 9.234375 16.796875 8.0625 
Q 21.484375 6.890625 26.703125 6.890625 
Q 35.15625 6.890625 40.078125 11.328125 
Q 45.015625 15.765625 45.015625 23.390625 
Q 45.015625 31 40.078125 35.4375 
Q 35.15625 39.890625 26.703125 39.890625 
Q 22.75 39.890625 18.8125 39.015625 
Q 14.890625 38.140625 10.796875 36.28125 
z
" id="DejaVuSans-53"/>
      </defs>
      <g transform="translate(263.621875 137.966278)scale(0.1 -0.1)">
       <use xlink:href="#DejaVuSans-48"/>
       <use x="63.623047" xlink:href="#DejaVuSans-46"/>
       <use x="95.410156" xlink:href="#DejaVuSans-57"/>
       <use x="159.033203" xlink:href="#DejaVuSans-50"/>
       <use x="222.65625" xlink:href="#DejaVuSans-53"/>
      </g>
     </g>
    </g>
    <g id="ytick_8">
     <g id="line2d_22">
      <g>
       <use style="stroke:#000000;stroke-width:0.8;" x="299.25" xlink:href="#m1b86894f55" y="108.697001"/>
      </g>
     </g>
     <g id="text_22">
      <!-- 0.950 -->
      <g transform="translate(263.621875 112.496219)scale(0.1 -0.1)">
       <use xlink:href="#DejaVuSans-48"/>
       <use x="63.623047" xlink:href="#DejaVuSans-46"/>
       <use x="95.410156" xlink:href="#DejaVuSans-57"/>
       <use x="159.033203" xlink:href="#DejaVuSans-53"/>
       <use x="222.65625" xlink:href="#DejaVuSans-48"/>
      </g>
     </g>
    </g>
    <g id="ytick_9">
     <g id="line2d_23">
      <g>
       <use style="stroke:#000000;stroke-width:0.8;" x="299.25" xlink:href="#m1b86894f55" y="83.226943"/>
      </g>
     </g>
     <g id="text_23">
      <!-- 0.975 -->
      <defs>
       <path d="M 8.203125 72.90625 
L 55.078125 72.90625 
L 55.078125 68.703125 
L 28.609375 0 
L 18.3125 0 
L 43.21875 64.59375 
L 8.203125 64.59375 
z
" id="DejaVuSans-55"/>
      </defs>
      <g transform="translate(263.621875 87.026161)scale(0.1 -0.1)">
       <use xlink:href="#DejaVuSans-48"/>
       <use x="63.623047" xlink:href="#DejaVuSans-46"/>
       <use x="95.410156" xlink:href="#DejaVuSans-57"/>
       <use x="159.033203" xlink:href="#DejaVuSans-55"/>
       <use x="222.65625" xlink:href="#DejaVuSans-53"/>
      </g>
     </g>
    </g>
    <g id="ytick_10">
     <g id="line2d_24">
      <g>
       <use style="stroke:#000000;stroke-width:0.8;" x="299.25" xlink:href="#m1b86894f55" y="57.756884"/>
      </g>
     </g>
     <g id="text_24">
      <!-- 1.000 -->
      <g transform="translate(263.621875 61.556103)scale(0.1 -0.1)">
       <use xlink:href="#DejaVuSans-49"/>
       <use x="63.623047" xlink:href="#DejaVuSans-46"/>
       <use x="95.410156" xlink:href="#DejaVuSans-48"/>
       <use x="159.033203" xlink:href="#DejaVuSans-48"/>
       <use x="222.65625" xlink:href="#DejaVuSans-48"/>
      </g>
     </g>
    </g>
    <g id="text_25">
     <!-- cumulative precision -->
     <g transform="translate(257.542188 169.121219)rotate(-90)scale(0.1 -0.1)">
      <use xlink:href="#DejaVuSans-99"/>
      <use x="54.980469" xlink:href="#DejaVuSans-117"/>
      <use x="118.359375" xlink:href="#DejaVuSans-109"/>
      <use x="215.771484" xlink:href="#DejaVuSans-117"/>
      <use x="279.150391" xlink:href="#DejaVuSans-108"/>
      <use x="306.933594" xlink:href="#DejaVuSans-97"/>
      <use x="368.212891" xlink:href="#DejaVuSans-116"/>
      <use x="407.421875" xlink:href="#DejaVuSans-105"/>
      <use x="435.205078" xlink:href="#DejaVuSans-118"/>
      <use x="494.384766" xlink:href="#DejaVuSans-101"/>
      <use x="555.908203" xlink:href="#DejaVuSans-32"/>
      <use x="587.695312" xlink:href="#DejaVuSans-112"/>
      <use x="651.171875" xlink:href="#DejaVuSans-114"/>
      <use x="692.253906" xlink:href="#DejaVuSans-101"/>
      <use x="753.777344" xlink:href="#DejaVuSans-99"/>
      <use x="808.757812" xlink:href="#DejaVuSans-105"/>
      <use x="836.541016" xlink:href="#DejaVuSans-115"/>
      <use x="888.640625" xlink:href="#DejaVuSans-105"/>
      <use x="916.423828" xlink:href="#DejaVuSans-111"/>
      <use x="977.605469" xlink:href="#DejaVuSans-110"/>
     </g>
    </g>
   </g>
   <g id="line2d_25">
    <path clip-path="url(#pcf9702bca9)" d="M 305.590909 57.770885 
L 307.704545 57.770877 
L 309.818182 57.770824 
L 311.931818 57.770807 
L 314.045455 57.770788 
L 316.159091 57.770648 
L 318.272727 57.770637 
L 320.386364 57.770566 
L 322.5 57.770523 
L 324.613636 57.770471 
L 326.727273 57.770433 
L 328.840909 57.770407 
L 330.954545 57.770364 
L 333.068182 57.77034 
L 335.181818 57.770311 
L 337.295455 57.770285 
L 339.409091 57.770253 
L 341.522727 57.77023 
L 343.636364 57.770207 
L 345.75 57.770182 
L 347.863636 57.782202 
L 349.977273 57.782188 
L 352.090909 57.782185 
L 354.204545 57.782177 
L 356.318182 57.782172 
L 358.431818 57.782161 
L 360.545455 57.782155 
L 362.659091 57.782142 
L 364.772727 57.782137 
L 366.886364 57.782127 
L 369 57.81339 
L 371.113636 57.813379 
L 373.227273 57.813364 
L 375.340909 57.813121 
L 377.454545 57.813107 
L 379.568182 57.812992 
L 381.681818 57.81293 
L 383.795455 57.812879 
L 385.909091 57.825254 
L 388.022727 57.825186 
L 390.136364 57.837551 
L 392.25 57.837499 
L 394.363636 57.837471 
L 396.477273 57.849834 
L 398.590909 57.849776 
L 400.704545 57.849707 
L 402.818182 57.862031 
L 404.931818 57.861972 
L 407.045455 57.86193 
L 409.159091 57.861896 
L 411.272727 57.861855 
L 413.386364 57.867967 
L 415.5 57.892579 
L 417.613636 57.966433 
L 419.727273 57.990996 
L 421.840909 58.015572 
L 423.954545 58.015497 
L 426.068182 58.101422 
L 428.181818 58.113593 
L 430.295455 58.193263 
L 432.409091 143.411217 
" style="fill:none;stroke:#1f77b4;stroke-linecap:square;stroke-width:1.5;"/>
   </g>
   <g id="line2d_26">
    <path clip-path="url(#pcf9702bca9)" d="M 343.636364 101.190514 
L 345.75 101.190514 
L 347.863636 102.143921 
L 349.977273 102.21597 
L 352.090909 102.270909 
L 354.204545 102.307474 
L 356.318182 102.358455 
L 358.431818 102.78714 
L 360.545455 103.127079 
L 362.659091 103.125381 
L 364.772727 103.803844 
L 366.886364 104.517612 
L 369 106.2095 
L 371.113636 106.2095 
L 373.227273 106.2095 
L 375.340909 106.273012 
L 377.454545 106.318291 
L 379.568182 106.378514 
L 381.681818 107.062136 
L 383.795455 108.870709 
L 385.909091 108.938061 
L 388.022727 109.042427 
L 390.136364 109.042427 
L 392.25 109.042427 
L 394.363636 109.156157 
L 396.477273 109.472799 
L 398.590909 109.579873 
L 400.704545 109.954344 
L 402.818182 110.020847 
L 404.931818 110.020847 
L 407.045455 110.414017 
L 409.159091 110.979674 
L 411.272727 110.979674 
L 413.386364 110.979674 
L 415.5 111.597237 
L 417.613636 112.223023 
L 419.727273 115.15866 
L 421.840909 115.211693 
L 423.954545 115.338636 
L 426.068182 116.033423 
L 428.181818 118.04779 
L 430.295455 170.890257 
L 432.409091 176.373818 
" style="fill:none;stroke:#ff7f0e;stroke-linecap:square;stroke-width:1.5;"/>
   </g>
   <g id="patch_9">
    <path d="M 299.25 182.304 
L 299.25 51.84 
" style="fill:none;stroke:#000000;stroke-linecap:square;stroke-linejoin:miter;stroke-width:0.8;"/>
   </g>
   <g id="patch_10">
    <path d="M 438.75 182.304 
L 438.75 51.84 
" style="fill:none;stroke:#000000;stroke-linecap:square;stroke-linejoin:miter;stroke-width:0.8;"/>
   </g>
   <g id="patch_11">
    <path d="M 299.25 182.304 
L 438.75 182.304 
" style="fill:none;stroke:#000000;stroke-linecap:square;stroke-linejoin:miter;stroke-width:0.8;"/>
   </g>
   <g id="patch_12">
    <path d="M 299.25 51.84 
L 438.75 51.84 
" style="fill:none;stroke:#000000;stroke-linecap:square;stroke-linejoin:miter;stroke-width:0.8;"/>
   </g>
   <g id="text_26">
    <!-- dataset2 -->
    <g transform="translate(342.497813 45.84)scale(0.12 -0.12)">
     <use xlink:href="#DejaVuSans-100"/>
     <use x="63.476562" xlink:href="#DejaVuSans-97"/>
     <use x="124.755859" xlink:href="#DejaVuSans-116"/>
     <use x="163.964844" xlink:href="#DejaVuSans-97"/>
     <use x="225.244141" xlink:href="#DejaVuSans-115"/>
     <use x="277.34375" xlink:href="#DejaVuSans-101"/>
     <use x="338.867188" xlink:href="#DejaVuSans-116"/>
     <use x="378.076172" xlink:href="#DejaVuSans-50"/>
    </g>
   </g>
   <g id="legend_2">
    <g id="patch_13">
     <path d="M 306.25 177.304 
L 378.109375 177.304 
Q 380.109375 177.304 380.109375 175.304 
L 380.109375 146.94775 
Q 380.109375 144.94775 378.109375 144.94775 
L 306.25 144.94775 
Q 304.25 144.94775 304.25 146.94775 
L 304.25 175.304 
Q 304.25 177.304 306.25 177.304 
z
" style="fill:#ffffff;opacity:0.8;stroke:#cccccc;stroke-linejoin:miter;"/>
    </g>
    <g id="line2d_27">
     <path d="M 308.25 153.046187 
L 328.25 153.046187 
" style="fill:none;stroke:#1f77b4;stroke-linecap:square;stroke-width:1.5;"/>
    </g>
    <g id="line2d_28"/>
    <g id="text_27">
     <!-- bwa -->
     <g transform="translate(336.25 156.546187)scale(0.1 -0.1)">
      <use xlink:href="#DejaVuSans-98"/>
      <use x="63.476562" xlink:href="#DejaVuSans-119"/>
      <use x="145.263672" xlink:href="#DejaVuSans-97"/>
     </g>
    </g>
    <g id="line2d_29">
     <path d="M 308.25 167.724312 
L 328.25 167.724312 
" style="fill:none;stroke:#ff7f0e;stroke-linecap:square;stroke-width:1.5;"/>
    </g>
    <g id="line2d_30"/>
    <g id="text_28">
     <!-- bowtie2 -->
     <g transform="translate(336.25 171.224312)scale(0.1 -0.1)">
      <use xlink:href="#DejaVuSans-98"/>
      <use x="63.476562" xlink:href="#DejaVuSans-111"/>
      <use x="124.658203" xlink:href="#DejaVuSans-119"/>
      <use x="206.445312" xlink:href="#DejaVuSans-116"/>
      <use x="245.654297" xlink:href="#DejaVuSans-105"/>
      <use x="273.4375" xlink:href="#DejaVuSans-101"/>
      <use x="334.960938" xlink:href="#DejaVuSans-50"/>
     </g>
    </g>
   </g>
  </g>
  <g id="axes_3">
   <g id="patch_14">
    <path d="M 508.5 182.304 
L 648 182.304 
L 648 51.84 
L 508.5 51.84 
z
" style="fill:#ffffff;"/>
   </g>
   <g id="matplotlib.axis_5">
    <g id="xtick_9">
     <g id="line2d_31">
      <g>
       <use style="stroke:#000000;stroke-width:0.8;" x="514.840909" xlink:href="#m441217ef9d" y="182.304"/>
      </g>
     </g>
     <g id="text_29">
      <!-- 60 -->
      <g transform="translate(508.478409 196.902437)scale(0.1 -0.1)">
       <use xlink:href="#DejaVuSans-54"/>
       <use x="63.623047" xlink:href="#DejaVuSans-48"/>
      </g>
     </g>
    </g>
    <g id="xtick_10">
     <g id="line2d_32">
      <g>
       <use style="stroke:#000000;stroke-width:0.8;" x="557.113636" xlink:href="#m441217ef9d" y="182.304"/>
      </g>
     </g>
     <g id="text_30">
      <!-- 40 -->
      <g transform="translate(550.751136 196.902437)scale(0.1 -0.1)">
       <use xlink:href="#DejaVuSans-52"/>
       <use x="63.623047" xlink:href="#DejaVuSans-48"/>
      </g>
     </g>
    </g>
    <g id="xtick_11">
     <g id="line2d_33">
      <g>
       <use style="stroke:#000000;stroke-width:0.8;" x="599.386364" xlink:href="#m441217ef9d" y="182.304"/>
      </g>
     </g>
     <g id="text_31">
      <!-- 20 -->
      <g transform="translate(593.023864 196.902437)scale(0.1 -0.1)">
       <use xlink:href="#DejaVuSans-50"/>
       <use x="63.623047" xlink:href="#DejaVuSans-48"/>
      </g>
     </g>
    </g>
    <g id="xtick_12">
     <g id="line2d_34">
      <g>
       <use style="stroke:#000000;stroke-width:0.8;" x="641.659091" xlink:href="#m441217ef9d" y="182.304"/>
      </g>
     </g>
     <g id="text_32">
      <!-- 0 -->
      <g transform="translate(638.477841 196.902437)scale(0.1 -0.1)">
       <use xlink:href="#DejaVuSans-48"/>
      </g>
     </g>
    </g>
    <g id="text_33">
     <!-- mapping score -->
     <g transform="translate(541.102344 210.580562)scale(0.1 -0.1)">
      <use xlink:href="#DejaVuSans-109"/>
      <use x="97.412109" xlink:href="#DejaVuSans-97"/>
      <use x="158.691406" xlink:href="#DejaVuSans-112"/>
      <use x="222.167969" xlink:href="#DejaVuSans-112"/>
      <use x="285.644531" xlink:href="#DejaVuSans-105"/>
      <use x="313.427734" xlink:href="#DejaVuSans-110"/>
      <use x="376.806641" xlink:href="#DejaVuSans-103"/>
      <use x="440.283203" xlink:href="#DejaVuSans-32"/>
      <use x="472.070312" xlink:href="#DejaVuSans-115"/>
      <use x="524.169922" xlink:href="#DejaVuSans-99"/>
      <use x="579.150391" xlink:href="#DejaVuSans-111"/>
      <use x="640.332031" xlink:href="#DejaVuSans-114"/>
      <use x="681.414062" xlink:href="#DejaVuSans-101"/>
     </g>
    </g>
   </g>
   <g id="matplotlib.axis_6">
    <g id="ytick_11">
     <g id="line2d_35">
      <g>
       <use style="stroke:#000000;stroke-width:0.8;" x="508.5" xlink:href="#m1b86894f55" y="176.506312"/>
      </g>
     </g>
     <g id="text_34">
      <!-- 0.90 -->
      <g transform="translate(479.234375 180.30553)scale(0.1 -0.1)">
       <use xlink:href="#DejaVuSans-48"/>
       <use x="63.623047" xlink:href="#DejaVuSans-46"/>
       <use x="95.410156" xlink:href="#DejaVuSans-57"/>
       <use x="159.033203" xlink:href="#DejaVuSans-48"/>
      </g>
     </g>
    </g>
    <g id="ytick_12">
     <g id="line2d_36">
      <g>
       <use style="stroke:#000000;stroke-width:0.8;" x="508.5" xlink:href="#m1b86894f55" y="152.759086"/>
      </g>
     </g>
     <g id="text_35">
      <!-- 0.92 -->
      <g transform="translate(479.234375 156.558304)scale(0.1 -0.1)">
       <use xlink:href="#DejaVuSans-48"/>
       <use x="63.623047" xlink:href="#DejaVuSans-46"/>
       <use x="95.410156" xlink:href="#DejaVuSans-57"/>
       <use x="159.033203" xlink:href="#DejaVuSans-50"/>
      </g>
     </g>
    </g>
    <g id="ytick_13">
     <g id="line2d_37">
      <g>
       <use style="stroke:#000000;stroke-width:0.8;" x="508.5" xlink:href="#m1b86894f55" y="129.01186"/>
      </g>
     </g>
     <g id="text_36">
      <!-- 0.94 -->
      <g transform="translate(479.234375 132.811078)scale(0.1 -0.1)">
       <use xlink:href="#DejaVuSans-48"/>
       <use x="63.623047" xlink:href="#DejaVuSans-46"/>
       <use x="95.410156" xlink:href="#DejaVuSans-57"/>
       <use x="159.033203" xlink:href="#DejaVuSans-52"/>
      </g>
     </g>
    </g>
    <g id="ytick_14">
     <g id="line2d_38">
      <g>
       <use style="stroke:#000000;stroke-width:0.8;" x="508.5" xlink:href="#m1b86894f55" y="105.264634"/>
      </g>
     </g>
     <g id="text_37">
      <!-- 0.96 -->
      <g transform="translate(479.234375 109.063853)scale(0.1 -0.1)">
       <use xlink:href="#DejaVuSans-48"/>
       <use x="63.623047" xlink:href="#DejaVuSans-46"/>
       <use x="95.410156" xlink:href="#DejaVuSans-57"/>
       <use x="159.033203" xlink:href="#DejaVuSans-54"/>
      </g>
     </g>
    </g>
    <g id="ytick_15">
     <g id="line2d_39">
      <g>
       <use style="stroke:#000000;stroke-width:0.8;" x="508.5" xlink:href="#m1b86894f55" y="81.517408"/>
      </g>
     </g>
     <g id="text_38">
      <!-- 0.98 -->
      <g transform="translate(479.234375 85.316627)scale(0.1 -0.1)">
       <use xlink:href="#DejaVuSans-48"/>
       <use x="63.623047" xlink:href="#DejaVuSans-46"/>
       <use x="95.410156" xlink:href="#DejaVuSans-57"/>
       <use x="159.033203" xlink:href="#DejaVuSans-56"/>
      </g>
     </g>
    </g>
    <g id="ytick_16">
     <g id="line2d_40">
      <g>
       <use style="stroke:#000000;stroke-width:0.8;" x="508.5" xlink:href="#m1b86894f55" y="57.770182"/>
      </g>
     </g>
     <g id="text_39">
      <!-- 1.00 -->
      <g transform="translate(479.234375 61.569401)scale(0.1 -0.1)">
       <use xlink:href="#DejaVuSans-49"/>
       <use x="63.623047" xlink:href="#DejaVuSans-46"/>
       <use x="95.410156" xlink:href="#DejaVuSans-48"/>
       <use x="159.033203" xlink:href="#DejaVuSans-48"/>
      </g>
     </g>
    </g>
    <g id="text_40">
     <!-- cumulative precision -->
     <g transform="translate(473.154688 169.121219)rotate(-90)scale(0.1 -0.1)">
      <use xlink:href="#DejaVuSans-99"/>
      <use x="54.980469" xlink:href="#DejaVuSans-117"/>
      <use x="118.359375" xlink:href="#DejaVuSans-109"/>
      <use x="215.771484" xlink:href="#DejaVuSans-117"/>
      <use x="279.150391" xlink:href="#DejaVuSans-108"/>
      <use x="306.933594" xlink:href="#DejaVuSans-97"/>
      <use x="368.212891" xlink:href="#DejaVuSans-116"/>
      <use x="407.421875" xlink:href="#DejaVuSans-105"/>
      <use x="435.205078" xlink:href="#DejaVuSans-118"/>
      <use x="494.384766" xlink:href="#DejaVuSans-101"/>
      <use x="555.908203" xlink:href="#DejaVuSans-32"/>
      <use x="587.695312" xlink:href="#DejaVuSans-112"/>
      <use x="651.171875" xlink:href="#DejaVuSans-114"/>
      <use x="692.253906" xlink:href="#DejaVuSans-101"/>
      <use x="753.777344" xlink:href="#DejaVuSans-99"/>
      <use x="808.757812" xlink:href="#DejaVuSans-105"/>
      <use x="836.541016" xlink:href="#DejaVuSans-115"/>
      <use x="888.640625" xlink:href="#DejaVuSans-105"/>
      <use x="916.423828" xlink:href="#DejaVuSans-111"/>
      <use x="977.605469" xlink:href="#DejaVuSans-110"/>
     </g>
    </g>
   </g>
   <g id="line2d_41">
    <path clip-path="url(#p807e240340)" d="M 514.840909 57.770182 
L 516.954545 57.770182 
L 519.068182 57.770182 
L 521.181818 57.770182 
L 523.295455 57.770182 
L 525.409091 57.770182 
L 527.522727 57.770182 
L 529.636364 57.770182 
L 531.75 57.770182 
L 533.863636 57.770182 
L 535.977273 57.770182 
L 538.090909 57.770182 
L 540.204545 57.770182 
L 542.318182 57.770182 
L 544.431818 57.770182 
L 546.545455 57.770182 
L 548.659091 57.770182 
L 550.772727 57.770182 
L 552.886364 57.770182 
L 555 57.770182 
L 557.113636 57.770182 
L 559.227273 57.770182 
L 561.340909 57.770182 
L 563.454545 57.770182 
L 565.568182 57.770182 
L 567.681818 57.770182 
L 569.795455 57.770182 
L 571.909091 57.770182 
L 574.022727 57.770182 
L 576.136364 57.770182 
L 578.25 57.777425 
L 580.363636 57.777424 
L 582.477273 57.777423 
L 584.590909 57.777383 
L 586.704545 57.777382 
L 588.818182 57.777369 
L 590.931818 57.777362 
L 593.045455 57.777355 
L 595.159091 57.777347 
L 597.272727 57.777343 
L 599.386364 57.77734 
L 601.5 57.777337 
L 603.613636 57.777334 
L 605.727273 57.777331 
L 607.840909 57.777329 
L 609.954545 57.777325 
L 612.068182 57.777323 
L 614.181818 57.77732 
L 616.295455 57.784455 
L 618.409091 57.78445 
L 620.522727 57.805836 
L 622.636364 57.848576 
L 624.75 57.877031 
L 626.863636 57.90544 
L 628.977273 57.919639 
L 631.090909 57.93383 
L 633.204545 57.955126 
L 635.318182 58.118503 
L 637.431818 58.161039 
L 639.545455 58.189292 
L 641.659091 148.516277 
" style="fill:none;stroke:#1f77b4;stroke-linecap:square;stroke-width:1.5;"/>
   </g>
   <g id="line2d_42">
    <path clip-path="url(#p807e240340)" d="M 552.886364 108.173666 
L 555 108.173666 
L 557.113636 109.384781 
L 559.227273 109.482889 
L 561.340909 109.634321 
L 563.454545 109.701886 
L 565.568182 109.949782 
L 567.681818 110.281347 
L 569.795455 110.802854 
L 571.909091 110.800894 
L 574.022727 111.262884 
L 576.136364 112.287639 
L 578.25 113.972617 
L 580.363636 113.972617 
L 582.477273 113.972617 
L 584.590909 114.047536 
L 586.704545 114.175849 
L 588.818182 114.326472 
L 590.931818 114.780018 
L 593.045455 116.125032 
L 595.159091 116.270761 
L 597.272727 116.445776 
L 599.386364 116.445776 
L 601.5 116.445776 
L 603.613636 116.704963 
L 605.727273 117.016094 
L 607.840909 117.031415 
L 609.954545 117.113413 
L 612.068182 117.213759 
L 614.181818 117.213759 
L 616.295455 117.998113 
L 618.409091 118.416055 
L 620.522727 118.416055 
L 622.636364 118.416055 
L 624.75 119.141503 
L 626.863636 120.122538 
L 628.977273 123.459671 
L 631.090909 123.49057 
L 633.204545 123.563901 
L 635.318182 124.181201 
L 637.431818 126.206684 
L 639.545455 171.069125 
L 641.659091 176.373818 
" style="fill:none;stroke:#ff7f0e;stroke-linecap:square;stroke-width:1.5;"/>
   </g>
   <g id="patch_15">
    <path d="M 508.5 182.304 
L 508.5 51.84 
" style="fill:none;stroke:#000000;stroke-linecap:square;stroke-linejoin:miter;stroke-width:0.8;"/>
   </g>
   <g id="patch_16">
    <path d="M 648 182.304 
L 648 51.84 
" style="fill:none;stroke:#000000;stroke-linecap:square;stroke-linejoin:miter;stroke-width:0.8;"/>
   </g>
   <g id="patch_17">
    <path d="M 508.5 182.304 
L 648 182.304 
" style="fill:none;stroke:#000000;stroke-linecap:square;stroke-linejoin:miter;stroke-width:0.8;"/>
   </g>
   <g id="patch_18">
    <path d="M 508.5 51.84 
L 648 51.84 
" style="fill:none;stroke:#000000;stroke-linecap:square;stroke-linejoin:miter;stroke-width:0.8;"/>
   </g>
   <g id="text_41">
    <!-- dataset3 -->
    <defs>
     <path d="M 40.578125 39.3125 
Q 47.65625 37.796875 51.625 33 
Q 55.609375 28.21875 55.609375 21.1875 
Q 55.609375 10.40625 48.1875 4.484375 
Q 40.765625 -1.421875 27.09375 -1.421875 
Q 22.515625 -1.421875 17.65625 -0.515625 
Q 12.796875 0.390625 7.625 2.203125 
L 7.625 11.71875 
Q 11.71875 9.328125 16.59375 8.109375 
Q 21.484375 6.890625 26.8125 6.890625 
Q 36.078125 6.890625 40.9375 10.546875 
Q 45.796875 14.203125 45.796875 21.1875 
Q 45.796875 27.640625 41.28125 31.265625 
Q 36.765625 34.90625 28.71875 34.90625 
L 20.21875 34.90625 
L 20.21875 43.015625 
L 29.109375 43.015625 
Q 36.375 43.015625 40.234375 45.921875 
Q 44.09375 48.828125 44.09375 54.296875 
Q 44.09375 59.90625 40.109375 62.90625 
Q 36.140625 65.921875 28.71875 65.921875 
Q 24.65625 65.921875 20.015625 65.03125 
Q 15.375 64.15625 9.8125 62.3125 
L 9.8125 71.09375 
Q 15.4375 72.65625 20.34375 73.4375 
Q 25.25 74.21875 29.59375 74.21875 
Q 40.828125 74.21875 47.359375 69.109375 
Q 53.90625 64.015625 53.90625 55.328125 
Q 53.90625 49.265625 50.4375 45.09375 
Q 46.96875 40.921875 40.578125 39.3125 
z
" id="DejaVuSans-51"/>
    </defs>
    <g transform="translate(551.747813 45.84)scale(0.12 -0.12)">
     <use xlink:href="#DejaVuSans-100"/>
     <use x="63.476562" xlink:href="#DejaVuSans-97"/>
     <use x="124.755859" xlink:href="#DejaVuSans-116"/>
     <use x="163.964844" xlink:href="#DejaVuSans-97"/>
     <use x="225.244141" xlink:href="#DejaVuSans-115"/>
     <use x="277.34375" xlink:href="#DejaVuSans-101"/>
     <use x="338.867188" xlink:href="#DejaVuSans-116"/>
     <use x="378.076172" xlink:href="#DejaVuSans-51"/>
    </g>
   </g>
   <g id="legend_3">
    <g id="patch_19">
     <path d="M 515.5 177.304 
L 587.359375 177.304 
Q 589.359375 177.304 589.359375 175.304 
L 589.359375 146.94775 
Q 589.359375 144.94775 587.359375 144.94775 
L 515.5 144.94775 
Q 513.5 144.94775 513.5 146.94775 
L 513.5 175.304 
Q 513.5 177.304 515.5 177.304 
z
" style="fill:#ffffff;opacity:0.8;stroke:#cccccc;stroke-linejoin:miter;"/>
    </g>
    <g id="line2d_43">
     <path d="M 517.5 153.046187 
L 537.5 153.046187 
" style="fill:none;stroke:#1f77b4;stroke-linecap:square;stroke-width:1.5;"/>
    </g>
    <g id="line2d_44"/>
    <g id="text_42">
     <!-- bwa -->
     <g transform="translate(545.5 156.546187)scale(0.1 -0.1)">
      <use xlink:href="#DejaVuSans-98"/>
      <use x="63.476562" xlink:href="#DejaVuSans-119"/>
      <use x="145.263672" xlink:href="#DejaVuSans-97"/>
     </g>
    </g>
    <g id="line2d_45">
     <path d="M 517.5 167.724312 
L 537.5 167.724312 
" style="fill:none;stroke:#ff7f0e;stroke-linecap:square;stroke-width:1.5;"/>
    </g>
    <g id="line2d_46"/>
    <g id="text_43">
     <!-- bowtie2 -->
     <g transform="translate(545.5 171.224312)scale(0.1 -0.1)">
      <use xlink:href="#DejaVuSans-98"/>
      <use x="63.476562" xlink:href="#DejaVuSans-111"/>
      <use x="124.658203" xlink:href="#DejaVuSans-119"/>
      <use x="206.445312" xlink:href="#DejaVuSans-116"/>
      <use x="245.654297" xlink:href="#DejaVuSans-105"/>
      <use x="273.4375" xlink:href="#DejaVuSans-101"/>
      <use x="334.960938" xlink:href="#DejaVuSans-50"/>
     </g>
    </g>
   </g>
  </g>
  <g id="axes_4">
   <g id="patch_20">
    <path d="M 90 378 
L 229.5 378 
L 229.5 247.536 
L 90 247.536 
z
" style="fill:#ffffff;"/>
   </g>
   <g id="matplotlib.axis_7">
    <g id="xtick_13">
     <g id="line2d_47">
      <g>
       <use style="stroke:#000000;stroke-width:0.8;" x="96.340909" xlink:href="#m441217ef9d" y="378"/>
      </g>
     </g>
     <g id="text_44">
      <!-- 60 -->
      <g transform="translate(89.978409 392.598437)scale(0.1 -0.1)">
       <use xlink:href="#DejaVuSans-54"/>
       <use x="63.623047" xlink:href="#DejaVuSans-48"/>
      </g>
     </g>
    </g>
    <g id="xtick_14">
     <g id="line2d_48">
      <g>
       <use style="stroke:#000000;stroke-width:0.8;" x="138.613636" xlink:href="#m441217ef9d" y="378"/>
      </g>
     </g>
     <g id="text_45">
      <!-- 40 -->
      <g transform="translate(132.251136 392.598437)scale(0.1 -0.1)">
       <use xlink:href="#DejaVuSans-52"/>
       <use x="63.623047" xlink:href="#DejaVuSans-48"/>
      </g>
     </g>
    </g>
    <g id="xtick_15">
     <g id="line2d_49">
      <g>
       <use style="stroke:#000000;stroke-width:0.8;" x="180.886364" xlink:href="#m441217ef9d" y="378"/>
      </g>
     </g>
     <g id="text_46">
      <!-- 20 -->
      <g transform="translate(174.523864 392.598437)scale(0.1 -0.1)">
       <use xlink:href="#DejaVuSans-50"/>
       <use x="63.623047" xlink:href="#DejaVuSans-48"/>
      </g>
     </g>
    </g>
    <g id="xtick_16">
     <g id="line2d_50">
      <g>
       <use style="stroke:#000000;stroke-width:0.8;" x="223.159091" xlink:href="#m441217ef9d" y="378"/>
      </g>
     </g>
     <g id="text_47">
      <!-- 0 -->
      <g transform="translate(219.977841 392.598437)scale(0.1 -0.1)">
       <use xlink:href="#DejaVuSans-48"/>
      </g>
     </g>
    </g>
    <g id="text_48">
     <!-- mapping score -->
     <g transform="translate(122.602344 406.276562)scale(0.1 -0.1)">
      <use xlink:href="#DejaVuSans-109"/>
      <use x="97.412109" xlink:href="#DejaVuSans-97"/>
      <use x="158.691406" xlink:href="#DejaVuSans-112"/>
      <use x="222.167969" xlink:href="#DejaVuSans-112"/>
      <use x="285.644531" xlink:href="#DejaVuSans-105"/>
      <use x="313.427734" xlink:href="#DejaVuSans-110"/>
      <use x="376.806641" xlink:href="#DejaVuSans-103"/>
      <use x="440.283203" xlink:href="#DejaVuSans-32"/>
      <use x="472.070312" xlink:href="#DejaVuSans-115"/>
      <use x="524.169922" xlink:href="#DejaVuSans-99"/>
      <use x="579.150391" xlink:href="#DejaVuSans-111"/>
      <use x="640.332031" xlink:href="#DejaVuSans-114"/>
      <use x="681.414062" xlink:href="#DejaVuSans-101"/>
     </g>
    </g>
   </g>
   <g id="matplotlib.axis_8">
    <g id="ytick_17">
     <g id="line2d_51">
      <g>
       <use style="stroke:#000000;stroke-width:0.8;" x="90" xlink:href="#m1b86894f55" y="371.408603"/>
      </g>
     </g>
     <g id="text_49">
      <!-- 0.9994 -->
      <g transform="translate(48.009375 375.207822)scale(0.1 -0.1)">
       <use xlink:href="#DejaVuSans-48"/>
       <use x="63.623047" xlink:href="#DejaVuSans-46"/>
       <use x="95.410156" xlink:href="#DejaVuSans-57"/>
       <use x="159.033203" xlink:href="#DejaVuSans-57"/>
       <use x="222.65625" xlink:href="#DejaVuSans-57"/>
       <use x="286.279297" xlink:href="#DejaVuSans-52"/>
      </g>
     </g>
    </g>
    <g id="ytick_18">
     <g id="line2d_52">
      <g>
       <use style="stroke:#000000;stroke-width:0.8;" x="90" xlink:href="#m1b86894f55" y="332.094463"/>
      </g>
     </g>
     <g id="text_50">
      <!-- 0.9996 -->
      <g transform="translate(48.009375 335.893681)scale(0.1 -0.1)">
       <use xlink:href="#DejaVuSans-48"/>
       <use x="63.623047" xlink:href="#DejaVuSans-46"/>
       <use x="95.410156" xlink:href="#DejaVuSans-57"/>
       <use x="159.033203" xlink:href="#DejaVuSans-57"/>
       <use x="222.65625" xlink:href="#DejaVuSans-57"/>
       <use x="286.279297" xlink:href="#DejaVuSans-54"/>
      </g>
     </g>
    </g>
    <g id="ytick_19">
     <g id="line2d_53">
      <g>
       <use style="stroke:#000000;stroke-width:0.8;" x="90" xlink:href="#m1b86894f55" y="292.780322"/>
      </g>
     </g>
     <g id="text_51">
      <!-- 0.9998 -->
      <g transform="translate(48.009375 296.579541)scale(0.1 -0.1)">
       <use xlink:href="#DejaVuSans-48"/>
       <use x="63.623047" xlink:href="#DejaVuSans-46"/>
       <use x="95.410156" xlink:href="#DejaVuSans-57"/>
       <use x="159.033203" xlink:href="#DejaVuSans-57"/>
       <use x="222.65625" xlink:href="#DejaVuSans-57"/>
       <use x="286.279297" xlink:href="#DejaVuSans-56"/>
      </g>
     </g>
    </g>
    <g id="ytick_20">
     <g id="line2d_54">
      <g>
       <use style="stroke:#000000;stroke-width:0.8;" x="90" xlink:href="#m1b86894f55" y="253.466182"/>
      </g>
     </g>
     <g id="text_52">
      <!-- 1.0000 -->
      <g transform="translate(48.009375 257.265401)scale(0.1 -0.1)">
       <use xlink:href="#DejaVuSans-49"/>
       <use x="63.623047" xlink:href="#DejaVuSans-46"/>
       <use x="95.410156" xlink:href="#DejaVuSans-48"/>
       <use x="159.033203" xlink:href="#DejaVuSans-48"/>
       <use x="222.65625" xlink:href="#DejaVuSans-48"/>
       <use x="286.279297" xlink:href="#DejaVuSans-48"/>
      </g>
     </g>
    </g>
    <g id="text_53">
     <!-- cumulative recall -->
     <g transform="translate(41.929688 355.87425)rotate(-90)scale(0.1 -0.1)">
      <use xlink:href="#DejaVuSans-99"/>
      <use x="54.980469" xlink:href="#DejaVuSans-117"/>
      <use x="118.359375" xlink:href="#DejaVuSans-109"/>
      <use x="215.771484" xlink:href="#DejaVuSans-117"/>
      <use x="279.150391" xlink:href="#DejaVuSans-108"/>
      <use x="306.933594" xlink:href="#DejaVuSans-97"/>
      <use x="368.212891" xlink:href="#DejaVuSans-116"/>
      <use x="407.421875" xlink:href="#DejaVuSans-105"/>
      <use x="435.205078" xlink:href="#DejaVuSans-118"/>
      <use x="494.384766" xlink:href="#DejaVuSans-101"/>
      <use x="555.908203" xlink:href="#DejaVuSans-32"/>
      <use x="587.695312" xlink:href="#DejaVuSans-114"/>
      <use x="628.777344" xlink:href="#DejaVuSans-101"/>
      <use x="690.300781" xlink:href="#DejaVuSans-99"/>
      <use x="745.28125" xlink:href="#DejaVuSans-97"/>
      <use x="806.560547" xlink:href="#DejaVuSans-108"/>
      <use x="834.34375" xlink:href="#DejaVuSans-108"/>
     </g>
    </g>
   </g>
   <g id="line2d_55">
    <path clip-path="url(#pd7a9810fef)" d="M 96.340909 253.466182 
L 98.454545 253.466182 
L 100.568182 253.466182 
L 102.681818 253.466182 
L 104.795455 253.466182 
L 106.909091 253.466182 
L 109.022727 253.466182 
L 111.136364 253.466182 
L 113.25 253.466182 
L 115.363636 253.466182 
L 117.477273 253.466182 
L 119.590909 253.466182 
L 121.704545 253.466182 
L 123.818182 253.466182 
L 125.931818 253.466182 
L 128.045455 253.466182 
L 130.159091 253.466182 
L 132.272727 253.466182 
L 134.386364 253.466182 
L 136.5 253.466182 
L 138.613636 253.466182 
L 140.727273 253.466182 
L 142.840909 253.466182 
L 144.954545 253.466182 
L 147.068182 253.466182 
L 149.181818 253.466182 
L 151.295455 253.466182 
L 153.409091 253.466182 
L 155.522727 253.466182 
L 157.636364 253.466182 
L 159.75 253.466182 
L 161.863636 253.466182 
L 163.977273 253.466182 
L 166.090909 253.466182 
L 168.204545 253.466182 
L 170.318182 253.466182 
L 172.431818 253.466182 
L 174.545455 253.466182 
L 176.659091 253.466182 
L 178.772727 253.466182 
L 180.886364 253.466182 
L 183 253.466182 
L 185.113636 253.466182 
L 187.227273 253.466182 
L 189.340909 253.466182 
L 191.454545 253.466182 
L 193.568182 253.466182 
L 195.681818 253.466182 
L 197.795455 253.466182 
L 199.909091 253.466182 
L 202.022727 253.466182 
L 204.136364 253.466182 
L 206.25 253.466182 
L 208.363636 253.466182 
L 210.477273 253.466182 
L 212.590909 253.466182 
L 214.704545 253.466182 
L 216.818182 253.466182 
L 218.931818 253.466182 
L 221.045455 253.466182 
L 223.159091 253.466182 
" style="fill:none;stroke:#1f77b4;stroke-linecap:square;stroke-width:1.5;"/>
   </g>
   <g id="line2d_56">
    <path clip-path="url(#pd7a9810fef)" d="M 134.386364 253.466182 
L 136.5 253.466182 
L 138.613636 253.466182 
L 140.727273 253.466182 
L 142.840909 253.466182 
L 144.954545 253.466182 
L 147.068182 253.466182 
L 149.181818 253.466182 
L 151.295455 253.466182 
L 153.409091 253.466182 
L 155.522727 253.466182 
L 157.636364 253.466182 
L 159.75 253.466182 
L 161.863636 253.466182 
L 163.977273 253.466182 
L 166.090909 253.466182 
L 168.204545 253.466182 
L 170.318182 253.466182 
L 172.431818 253.466182 
L 174.545455 253.466182 
L 176.659091 253.466182 
L 178.772727 253.466182 
L 180.886364 253.466182 
L 183 253.466182 
L 185.113636 253.466182 
L 187.227273 253.466182 
L 189.340909 253.466182 
L 191.454545 253.466182 
L 193.568182 253.466182 
L 195.681818 253.466182 
L 197.795455 253.466182 
L 199.909091 253.466182 
L 202.022727 253.466182 
L 204.136364 253.466182 
L 206.25 253.466182 
L 208.363636 253.466182 
L 210.477273 253.466182 
L 212.590909 253.466182 
L 214.704545 253.466182 
L 216.818182 253.466182 
L 218.931818 253.466182 
L 221.045455 253.466182 
L 223.159091 372.069818 
" style="fill:none;stroke:#ff7f0e;stroke-linecap:square;stroke-width:1.5;"/>
   </g>
   <g id="patch_21">
    <path d="M 90 378 
L 90 247.536 
" style="fill:none;stroke:#000000;stroke-linecap:square;stroke-linejoin:miter;stroke-width:0.8;"/>
   </g>
   <g id="patch_22">
    <path d="M 229.5 378 
L 229.5 247.536 
" style="fill:none;stroke:#000000;stroke-linecap:square;stroke-linejoin:miter;stroke-width:0.8;"/>
   </g>
   <g id="patch_23">
    <path d="M 90 378 
L 229.5 378 
" style="fill:none;stroke:#000000;stroke-linecap:square;stroke-linejoin:miter;stroke-width:0.8;"/>
   </g>
   <g id="patch_24">
    <path d="M 90 247.536 
L 229.5 247.536 
" style="fill:none;stroke:#000000;stroke-linecap:square;stroke-linejoin:miter;stroke-width:0.8;"/>
   </g>
   <g id="text_54">
    <!-- dataset1 -->
    <g transform="translate(133.247813 241.536)scale(0.12 -0.12)">
     <use xlink:href="#DejaVuSans-100"/>
     <use x="63.476562" xlink:href="#DejaVuSans-97"/>
     <use x="124.755859" xlink:href="#DejaVuSans-116"/>
     <use x="163.964844" xlink:href="#DejaVuSans-97"/>
     <use x="225.244141" xlink:href="#DejaVuSans-115"/>
     <use x="277.34375" xlink:href="#DejaVuSans-101"/>
     <use x="338.867188" xlink:href="#DejaVuSans-116"/>
     <use x="378.076172" xlink:href="#DejaVuSans-49"/>
    </g>
   </g>
   <g id="legend_4">
    <g id="patch_25">
     <path d="M 97 373 
L 168.859375 373 
Q 170.859375 373 170.859375 371 
L 170.859375 342.64375 
Q 170.859375 340.64375 168.859375 340.64375 
L 97 340.64375 
Q 95 340.64375 95 342.64375 
L 95 371 
Q 95 373 97 373 
z
" style="fill:#ffffff;opacity:0.8;stroke:#cccccc;stroke-linejoin:miter;"/>
    </g>
    <g id="line2d_57">
     <path d="M 99 348.742187 
L 119 348.742187 
" style="fill:none;stroke:#1f77b4;stroke-linecap:square;stroke-width:1.5;"/>
    </g>
    <g id="line2d_58"/>
    <g id="text_55">
     <!-- bwa -->
     <g transform="translate(127 352.242187)scale(0.1 -0.1)">
      <use xlink:href="#DejaVuSans-98"/>
      <use x="63.476562" xlink:href="#DejaVuSans-119"/>
      <use x="145.263672" xlink:href="#DejaVuSans-97"/>
     </g>
    </g>
    <g id="line2d_59">
     <path d="M 99 363.420312 
L 119 363.420312 
" style="fill:none;stroke:#ff7f0e;stroke-linecap:square;stroke-width:1.5;"/>
    </g>
    <g id="line2d_60"/>
    <g id="text_56">
     <!-- bowtie2 -->
     <g transform="translate(127 366.920312)scale(0.1 -0.1)">
      <use xlink:href="#DejaVuSans-98"/>
      <use x="63.476562" xlink:href="#DejaVuSans-111"/>
      <use x="124.658203" xlink:href="#DejaVuSans-119"/>
      <use x="206.445312" xlink:href="#DejaVuSans-116"/>
      <use x="245.654297" xlink:href="#DejaVuSans-105"/>
      <use x="273.4375" xlink:href="#DejaVuSans-101"/>
      <use x="334.960938" xlink:href="#DejaVuSans-50"/>
     </g>
    </g>
   </g>
  </g>
  <g id="axes_5">
   <g id="patch_26">
    <path d="M 299.25 378 
L 438.75 378 
L 438.75 247.536 
L 299.25 247.536 
z
" style="fill:#ffffff;"/>
   </g>
   <g id="matplotlib.axis_9">
    <g id="xtick_17">
     <g id="line2d_61">
      <g>
       <use style="stroke:#000000;stroke-width:0.8;" x="305.590909" xlink:href="#m441217ef9d" y="378"/>
      </g>
     </g>
     <g id="text_57">
      <!-- 60 -->
      <g transform="translate(299.228409 392.598437)scale(0.1 -0.1)">
       <use xlink:href="#DejaVuSans-54"/>
       <use x="63.623047" xlink:href="#DejaVuSans-48"/>
      </g>
     </g>
    </g>
    <g id="xtick_18">
     <g id="line2d_62">
      <g>
       <use style="stroke:#000000;stroke-width:0.8;" x="347.863636" xlink:href="#m441217ef9d" y="378"/>
      </g>
     </g>
     <g id="text_58">
      <!-- 40 -->
      <g transform="translate(341.501136 392.598437)scale(0.1 -0.1)">
       <use xlink:href="#DejaVuSans-52"/>
       <use x="63.623047" xlink:href="#DejaVuSans-48"/>
      </g>
     </g>
    </g>
    <g id="xtick_19">
     <g id="line2d_63">
      <g>
       <use style="stroke:#000000;stroke-width:0.8;" x="390.136364" xlink:href="#m441217ef9d" y="378"/>
      </g>
     </g>
     <g id="text_59">
      <!-- 20 -->
      <g transform="translate(383.773864 392.598437)scale(0.1 -0.1)">
       <use xlink:href="#DejaVuSans-50"/>
       <use x="63.623047" xlink:href="#DejaVuSans-48"/>
      </g>
     </g>
    </g>
    <g id="xtick_20">
     <g id="line2d_64">
      <g>
       <use style="stroke:#000000;stroke-width:0.8;" x="432.409091" xlink:href="#m441217ef9d" y="378"/>
      </g>
     </g>
     <g id="text_60">
      <!-- 0 -->
      <g transform="translate(429.227841 392.598437)scale(0.1 -0.1)">
       <use xlink:href="#DejaVuSans-48"/>
      </g>
     </g>
    </g>
    <g id="text_61">
     <!-- mapping score -->
     <g transform="translate(331.852344 406.276562)scale(0.1 -0.1)">
      <use xlink:href="#DejaVuSans-109"/>
      <use x="97.412109" xlink:href="#DejaVuSans-97"/>
      <use x="158.691406" xlink:href="#DejaVuSans-112"/>
      <use x="222.167969" xlink:href="#DejaVuSans-112"/>
      <use x="285.644531" xlink:href="#DejaVuSans-105"/>
      <use x="313.427734" xlink:href="#DejaVuSans-110"/>
      <use x="376.806641" xlink:href="#DejaVuSans-103"/>
      <use x="440.283203" xlink:href="#DejaVuSans-32"/>
      <use x="472.070312" xlink:href="#DejaVuSans-115"/>
      <use x="524.169922" xlink:href="#DejaVuSans-99"/>
      <use x="579.150391" xlink:href="#DejaVuSans-111"/>
      <use x="640.332031" xlink:href="#DejaVuSans-114"/>
      <use x="681.414062" xlink:href="#DejaVuSans-101"/>
     </g>
    </g>
   </g>
   <g id="matplotlib.axis_10">
    <g id="ytick_21">
     <g id="line2d_65">
      <g>
       <use style="stroke:#000000;stroke-width:0.8;" x="299.25" xlink:href="#m1b86894f55" y="360.743491"/>
      </g>
     </g>
     <g id="text_62">
      <!-- 0.99900 -->
      <g transform="translate(250.896875 364.54271)scale(0.1 -0.1)">
       <use xlink:href="#DejaVuSans-48"/>
       <use x="63.623047" xlink:href="#DejaVuSans-46"/>
       <use x="95.410156" xlink:href="#DejaVuSans-57"/>
       <use x="159.033203" xlink:href="#DejaVuSans-57"/>
       <use x="222.65625" xlink:href="#DejaVuSans-57"/>
       <use x="286.279297" xlink:href="#DejaVuSans-48"/>
       <use x="349.902344" xlink:href="#DejaVuSans-48"/>
      </g>
     </g>
    </g>
    <g id="ytick_22">
     <g id="line2d_66">
      <g>
       <use style="stroke:#000000;stroke-width:0.8;" x="299.25" xlink:href="#m1b86894f55" y="333.924164"/>
      </g>
     </g>
     <g id="text_63">
      <!-- 0.99925 -->
      <g transform="translate(250.896875 337.723383)scale(0.1 -0.1)">
       <use xlink:href="#DejaVuSans-48"/>
       <use x="63.623047" xlink:href="#DejaVuSans-46"/>
       <use x="95.410156" xlink:href="#DejaVuSans-57"/>
       <use x="159.033203" xlink:href="#DejaVuSans-57"/>
       <use x="222.65625" xlink:href="#DejaVuSans-57"/>
       <use x="286.279297" xlink:href="#DejaVuSans-50"/>
       <use x="349.902344" xlink:href="#DejaVuSans-53"/>
      </g>
     </g>
    </g>
    <g id="ytick_23">
     <g id="line2d_67">
      <g>
       <use style="stroke:#000000;stroke-width:0.8;" x="299.25" xlink:href="#m1b86894f55" y="307.104837"/>
      </g>
     </g>
     <g id="text_64">
      <!-- 0.99950 -->
      <g transform="translate(250.896875 310.904055)scale(0.1 -0.1)">
       <use xlink:href="#DejaVuSans-48"/>
       <use x="63.623047" xlink:href="#DejaVuSans-46"/>
       <use x="95.410156" xlink:href="#DejaVuSans-57"/>
       <use x="159.033203" xlink:href="#DejaVuSans-57"/>
       <use x="222.65625" xlink:href="#DejaVuSans-57"/>
       <use x="286.279297" xlink:href="#DejaVuSans-53"/>
       <use x="349.902344" xlink:href="#DejaVuSans-48"/>
      </g>
     </g>
    </g>
    <g id="ytick_24">
     <g id="line2d_68">
      <g>
       <use style="stroke:#000000;stroke-width:0.8;" x="299.25" xlink:href="#m1b86894f55" y="280.285509"/>
      </g>
     </g>
     <g id="text_65">
      <!-- 0.99975 -->
      <g transform="translate(250.896875 284.084728)scale(0.1 -0.1)">
       <use xlink:href="#DejaVuSans-48"/>
       <use x="63.623047" xlink:href="#DejaVuSans-46"/>
       <use x="95.410156" xlink:href="#DejaVuSans-57"/>
       <use x="159.033203" xlink:href="#DejaVuSans-57"/>
       <use x="222.65625" xlink:href="#DejaVuSans-57"/>
       <use x="286.279297" xlink:href="#DejaVuSans-55"/>
       <use x="349.902344" xlink:href="#DejaVuSans-53"/>
      </g>
     </g>
    </g>
    <g id="ytick_25">
     <g id="line2d_69">
      <g>
       <use style="stroke:#000000;stroke-width:0.8;" x="299.25" xlink:href="#m1b86894f55" y="253.466182"/>
      </g>
     </g>
     <g id="text_66">
      <!-- 1.00000 -->
      <g transform="translate(250.896875 257.265401)scale(0.1 -0.1)">
       <use xlink:href="#DejaVuSans-49"/>
       <use x="63.623047" xlink:href="#DejaVuSans-46"/>
       <use x="95.410156" xlink:href="#DejaVuSans-48"/>
       <use x="159.033203" xlink:href="#DejaVuSans-48"/>
       <use x="222.65625" xlink:href="#DejaVuSans-48"/>
       <use x="286.279297" xlink:href="#DejaVuSans-48"/>
       <use x="349.902344" xlink:href="#DejaVuSans-48"/>
      </g>
     </g>
    </g>
    <g id="text_67">
     <!-- cumulative recall -->
     <g transform="translate(244.817187 355.87425)rotate(-90)scale(0.1 -0.1)">
      <use xlink:href="#DejaVuSans-99"/>
      <use x="54.980469" xlink:href="#DejaVuSans-117"/>
      <use x="118.359375" xlink:href="#DejaVuSans-109"/>
      <use x="215.771484" xlink:href="#DejaVuSans-117"/>
      <use x="279.150391" xlink:href="#DejaVuSans-108"/>
      <use x="306.933594" xlink:href="#DejaVuSans-97"/>
      <use x="368.212891" xlink:href="#DejaVuSans-116"/>
      <use x="407.421875" xlink:href="#DejaVuSans-105"/>
      <use x="435.205078" xlink:href="#DejaVuSans-118"/>
      <use x="494.384766" xlink:href="#DejaVuSans-101"/>
      <use x="555.908203" xlink:href="#DejaVuSans-32"/>
      <use x="587.695312" xlink:href="#DejaVuSans-114"/>
      <use x="628.777344" xlink:href="#DejaVuSans-101"/>
      <use x="690.300781" xlink:href="#DejaVuSans-99"/>
      <use x="745.28125" xlink:href="#DejaVuSans-97"/>
      <use x="806.560547" xlink:href="#DejaVuSans-108"/>
      <use x="834.34375" xlink:href="#DejaVuSans-108"/>
     </g>
    </g>
   </g>
   <g id="line2d_70">
    <path clip-path="url(#p450c280a51)" d="M 305.590909 253.466182 
L 307.704545 253.466182 
L 309.818182 253.466182 
L 311.931818 253.466182 
L 314.045455 253.466182 
L 316.159091 253.466182 
L 318.272727 253.466182 
L 320.386364 253.466182 
L 322.5 253.466182 
L 324.613636 253.466182 
L 326.727273 253.466182 
L 328.840909 253.466182 
L 330.954545 253.466182 
L 333.068182 253.466182 
L 335.181818 253.466182 
L 337.295455 253.466182 
L 339.409091 253.466182 
L 341.522727 253.466182 
L 343.636364 253.466182 
L 345.75 253.466182 
L 347.863636 253.466182 
L 349.977273 253.466182 
L 352.090909 253.466182 
L 354.204545 253.466182 
L 356.318182 253.466182 
L 358.431818 253.466182 
L 360.545455 253.466182 
L 362.659091 253.466182 
L 364.772727 253.466182 
L 366.886364 253.466182 
L 369 253.466182 
L 371.113636 253.466182 
L 373.227273 253.466182 
L 375.340909 253.466182 
L 377.454545 253.466182 
L 379.568182 253.466182 
L 381.681818 253.466182 
L 383.795455 253.466182 
L 385.909091 253.466182 
L 388.022727 253.466182 
L 390.136364 253.466182 
L 392.25 253.466182 
L 394.363636 253.466182 
L 396.477273 253.466182 
L 398.590909 253.466182 
L 400.704545 253.466182 
L 402.818182 253.466182 
L 404.931818 253.466182 
L 407.045455 253.466182 
L 409.159091 253.466182 
L 411.272727 253.466182 
L 413.386364 253.466182 
L 415.5 253.466182 
L 417.613636 253.466182 
L 419.727273 253.466182 
L 421.840909 253.466182 
L 423.954545 253.466182 
L 426.068182 253.466182 
L 428.181818 253.466182 
L 430.295455 253.466182 
L 432.409091 253.466182 
" style="fill:none;stroke:#1f77b4;stroke-linecap:square;stroke-width:1.5;"/>
   </g>
   <g id="line2d_71">
    <path clip-path="url(#p450c280a51)" d="M 343.636364 253.466182 
L 345.75 253.466182 
L 347.863636 253.466182 
L 349.977273 253.466182 
L 352.090909 253.466182 
L 354.204545 253.466182 
L 356.318182 253.466182 
L 358.431818 253.466182 
L 360.545455 253.466182 
L 362.659091 253.466182 
L 364.772727 253.466182 
L 366.886364 253.466182 
L 369 253.466182 
L 371.113636 253.466182 
L 373.227273 253.466182 
L 375.340909 253.466182 
L 377.454545 253.466182 
L 379.568182 253.466182 
L 381.681818 253.466182 
L 383.795455 253.466182 
L 385.909091 253.466182 
L 388.022727 253.466182 
L 390.136364 253.466182 
L 392.25 253.466182 
L 394.363636 253.466182 
L 396.477273 253.466182 
L 398.590909 253.466182 
L 400.704545 253.466182 
L 402.818182 253.466182 
L 404.931818 253.466182 
L 407.045455 253.466182 
L 409.159091 253.466182 
L 411.272727 253.466182 
L 413.386364 253.466182 
L 415.5 253.466182 
L 417.613636 253.466182 
L 419.727273 253.466182 
L 421.840909 253.466182 
L 423.954545 253.466182 
L 426.068182 253.466182 
L 428.181818 253.466182 
L 430.295455 253.466182 
L 432.409091 372.069818 
" style="fill:none;stroke:#ff7f0e;stroke-linecap:square;stroke-width:1.5;"/>
   </g>
   <g id="patch_27">
    <path d="M 299.25 378 
L 299.25 247.536 
" style="fill:none;stroke:#000000;stroke-linecap:square;stroke-linejoin:miter;stroke-width:0.8;"/>
   </g>
   <g id="patch_28">
    <path d="M 438.75 378 
L 438.75 247.536 
" style="fill:none;stroke:#000000;stroke-linecap:square;stroke-linejoin:miter;stroke-width:0.8;"/>
   </g>
   <g id="patch_29">
    <path d="M 299.25 378 
L 438.75 378 
" style="fill:none;stroke:#000000;stroke-linecap:square;stroke-linejoin:miter;stroke-width:0.8;"/>
   </g>
   <g id="patch_30">
    <path d="M 299.25 247.536 
L 438.75 247.536 
" style="fill:none;stroke:#000000;stroke-linecap:square;stroke-linejoin:miter;stroke-width:0.8;"/>
   </g>
   <g id="text_68">
    <!-- dataset2 -->
    <g transform="translate(342.497813 241.536)scale(0.12 -0.12)">
     <use xlink:href="#DejaVuSans-100"/>
     <use x="63.476562" xlink:href="#DejaVuSans-97"/>
     <use x="124.755859" xlink:href="#DejaVuSans-116"/>
     <use x="163.964844" xlink:href="#DejaVuSans-97"/>
     <use x="225.244141" xlink:href="#DejaVuSans-115"/>
     <use x="277.34375" xlink:href="#DejaVuSans-101"/>
     <use x="338.867188" xlink:href="#DejaVuSans-116"/>
     <use x="378.076172" xlink:href="#DejaVuSans-50"/>
    </g>
   </g>
   <g id="legend_5">
    <g id="patch_31">
     <path d="M 306.25 373 
L 378.109375 373 
Q 380.109375 373 380.109375 371 
L 380.109375 342.64375 
Q 380.109375 340.64375 378.109375 340.64375 
L 306.25 340.64375 
Q 304.25 340.64375 304.25 342.64375 
L 304.25 371 
Q 304.25 373 306.25 373 
z
" style="fill:#ffffff;opacity:0.8;stroke:#cccccc;stroke-linejoin:miter;"/>
    </g>
    <g id="line2d_72">
     <path d="M 308.25 348.742187 
L 328.25 348.742187 
" style="fill:none;stroke:#1f77b4;stroke-linecap:square;stroke-width:1.5;"/>
    </g>
    <g id="line2d_73"/>
    <g id="text_69">
     <!-- bwa -->
     <g transform="translate(336.25 352.242187)scale(0.1 -0.1)">
      <use xlink:href="#DejaVuSans-98"/>
      <use x="63.476562" xlink:href="#DejaVuSans-119"/>
      <use x="145.263672" xlink:href="#DejaVuSans-97"/>
     </g>
    </g>
    <g id="line2d_74">
     <path d="M 308.25 363.420312 
L 328.25 363.420312 
" style="fill:none;stroke:#ff7f0e;stroke-linecap:square;stroke-width:1.5;"/>
    </g>
    <g id="line2d_75"/>
    <g id="text_70">
     <!-- bowtie2 -->
     <g transform="translate(336.25 366.920312)scale(0.1 -0.1)">
      <use xlink:href="#DejaVuSans-98"/>
      <use x="63.476562" xlink:href="#DejaVuSans-111"/>
      <use x="124.658203" xlink:href="#DejaVuSans-119"/>
      <use x="206.445312" xlink:href="#DejaVuSans-116"/>
      <use x="245.654297" xlink:href="#DejaVuSans-105"/>
      <use x="273.4375" xlink:href="#DejaVuSans-101"/>
      <use x="334.960938" xlink:href="#DejaVuSans-50"/>
     </g>
    </g>
   </g>
  </g>
  <g id="axes_6">
   <g id="patch_32">
    <path d="M 508.5 378 
L 648 378 
L 648 247.536 
L 508.5 247.536 
z
" style="fill:#ffffff;"/>
   </g>
   <g id="matplotlib.axis_11">
    <g id="xtick_21">
     <g id="line2d_76">
      <g>
       <use style="stroke:#000000;stroke-width:0.8;" x="514.840909" xlink:href="#m441217ef9d" y="378"/>
      </g>
     </g>
     <g id="text_71">
      <!-- 60 -->
      <g transform="translate(508.478409 392.598437)scale(0.1 -0.1)">
       <use xlink:href="#DejaVuSans-54"/>
       <use x="63.623047" xlink:href="#DejaVuSans-48"/>
      </g>
     </g>
    </g>
    <g id="xtick_22">
     <g id="line2d_77">
      <g>
       <use style="stroke:#000000;stroke-width:0.8;" x="557.113636" xlink:href="#m441217ef9d" y="378"/>
      </g>
     </g>
     <g id="text_72">
      <!-- 40 -->
      <g transform="translate(550.751136 392.598437)scale(0.1 -0.1)">
       <use xlink:href="#DejaVuSans-52"/>
       <use x="63.623047" xlink:href="#DejaVuSans-48"/>
      </g>
     </g>
    </g>
    <g id="xtick_23">
     <g id="line2d_78">
      <g>
       <use style="stroke:#000000;stroke-width:0.8;" x="599.386364" xlink:href="#m441217ef9d" y="378"/>
      </g>
     </g>
     <g id="text_73">
      <!-- 20 -->
      <g transform="translate(593.023864 392.598437)scale(0.1 -0.1)">
       <use xlink:href="#DejaVuSans-50"/>
       <use x="63.623047" xlink:href="#DejaVuSans-48"/>
      </g>
     </g>
    </g>
    <g id="xtick_24">
     <g id="line2d_79">
      <g>
       <use style="stroke:#000000;stroke-width:0.8;" x="641.659091" xlink:href="#m441217ef9d" y="378"/>
      </g>
     </g>
     <g id="text_74">
      <!-- 0 -->
      <g transform="translate(638.477841 392.598437)scale(0.1 -0.1)">
       <use xlink:href="#DejaVuSans-48"/>
      </g>
     </g>
    </g>
    <g id="text_75">
     <!-- mapping score -->
     <g transform="translate(541.102344 406.276562)scale(0.1 -0.1)">
      <use xlink:href="#DejaVuSans-109"/>
      <use x="97.412109" xlink:href="#DejaVuSans-97"/>
      <use x="158.691406" xlink:href="#DejaVuSans-112"/>
      <use x="222.167969" xlink:href="#DejaVuSans-112"/>
      <use x="285.644531" xlink:href="#DejaVuSans-105"/>
      <use x="313.427734" xlink:href="#DejaVuSans-110"/>
      <use x="376.806641" xlink:href="#DejaVuSans-103"/>
      <use x="440.283203" xlink:href="#DejaVuSans-32"/>
      <use x="472.070312" xlink:href="#DejaVuSans-115"/>
      <use x="524.169922" xlink:href="#DejaVuSans-99"/>
      <use x="579.150391" xlink:href="#DejaVuSans-111"/>
      <use x="640.332031" xlink:href="#DejaVuSans-114"/>
      <use x="681.414062" xlink:href="#DejaVuSans-101"/>
     </g>
    </g>
   </g>
   <g id="matplotlib.axis_12">
    <g id="ytick_26">
     <g id="line2d_80">
      <g>
       <use style="stroke:#000000;stroke-width:0.8;" x="508.5" xlink:href="#m1b86894f55" y="352.009026"/>
      </g>
     </g>
     <g id="text_76">
      <!-- 0.9994 -->
      <g transform="translate(466.509375 355.808244)scale(0.1 -0.1)">
       <use xlink:href="#DejaVuSans-48"/>
       <use x="63.623047" xlink:href="#DejaVuSans-46"/>
       <use x="95.410156" xlink:href="#DejaVuSans-57"/>
       <use x="159.033203" xlink:href="#DejaVuSans-57"/>
       <use x="222.65625" xlink:href="#DejaVuSans-57"/>
       <use x="286.279297" xlink:href="#DejaVuSans-52"/>
      </g>
     </g>
    </g>
    <g id="ytick_27">
     <g id="line2d_81">
      <g>
       <use style="stroke:#000000;stroke-width:0.8;" x="508.5" xlink:href="#m1b86894f55" y="319.161411"/>
      </g>
     </g>
     <g id="text_77">
      <!-- 0.9996 -->
      <g transform="translate(466.509375 322.96063)scale(0.1 -0.1)">
       <use xlink:href="#DejaVuSans-48"/>
       <use x="63.623047" xlink:href="#DejaVuSans-46"/>
       <use x="95.410156" xlink:href="#DejaVuSans-57"/>
       <use x="159.033203" xlink:href="#DejaVuSans-57"/>
       <use x="222.65625" xlink:href="#DejaVuSans-57"/>
       <use x="286.279297" xlink:href="#DejaVuSans-54"/>
      </g>
     </g>
    </g>
    <g id="ytick_28">
     <g id="line2d_82">
      <g>
       <use style="stroke:#000000;stroke-width:0.8;" x="508.5" xlink:href="#m1b86894f55" y="286.313796"/>
      </g>
     </g>
     <g id="text_78">
      <!-- 0.9998 -->
      <g transform="translate(466.509375 290.113015)scale(0.1 -0.1)">
       <use xlink:href="#DejaVuSans-48"/>
       <use x="63.623047" xlink:href="#DejaVuSans-46"/>
       <use x="95.410156" xlink:href="#DejaVuSans-57"/>
       <use x="159.033203" xlink:href="#DejaVuSans-57"/>
       <use x="222.65625" xlink:href="#DejaVuSans-57"/>
       <use x="286.279297" xlink:href="#DejaVuSans-56"/>
      </g>
     </g>
    </g>
    <g id="ytick_29">
     <g id="line2d_83">
      <g>
       <use style="stroke:#000000;stroke-width:0.8;" x="508.5" xlink:href="#m1b86894f55" y="253.466182"/>
      </g>
     </g>
     <g id="text_79">
      <!-- 1.0000 -->
      <g transform="translate(466.509375 257.265401)scale(0.1 -0.1)">
       <use xlink:href="#DejaVuSans-49"/>
       <use x="63.623047" xlink:href="#DejaVuSans-46"/>
       <use x="95.410156" xlink:href="#DejaVuSans-48"/>
       <use x="159.033203" xlink:href="#DejaVuSans-48"/>
       <use x="222.65625" xlink:href="#DejaVuSans-48"/>
       <use x="286.279297" xlink:href="#DejaVuSans-48"/>
      </g>
     </g>
    </g>
    <g id="text_80">
     <!-- cumulative recall -->
     <g transform="translate(460.429688 355.87425)rotate(-90)scale(0.1 -0.1)">
      <use xlink:href="#DejaVuSans-99"/>
      <use x="54.980469" xlink:href="#DejaVuSans-117"/>
      <use x="118.359375" xlink:href="#DejaVuSans-109"/>
      <use x="215.771484" xlink:href="#DejaVuSans-117"/>
      <use x="279.150391" xlink:href="#DejaVuSans-108"/>
      <use x="306.933594" xlink:href="#DejaVuSans-97"/>
      <use x="368.212891" xlink:href="#DejaVuSans-116"/>
      <use x="407.421875" xlink:href="#DejaVuSans-105"/>
      <use x="435.205078" xlink:href="#DejaVuSans-118"/>
      <use x="494.384766" xlink:href="#DejaVuSans-101"/>
      <use x="555.908203" xlink:href="#DejaVuSans-32"/>
      <use x="587.695312" xlink:href="#DejaVuSans-114"/>
      <use x="628.777344" xlink:href="#DejaVuSans-101"/>
      <use x="690.300781" xlink:href="#DejaVuSans-99"/>
      <use x="745.28125" xlink:href="#DejaVuSans-97"/>
      <use x="806.560547" xlink:href="#DejaVuSans-108"/>
      <use x="834.34375" xlink:href="#DejaVuSans-108"/>
     </g>
    </g>
   </g>
   <g id="line2d_84">
    <path clip-path="url(#p9b8a01b3ac)" d="M 514.840909 253.466182 
L 516.954545 253.466182 
L 519.068182 253.466182 
L 521.181818 253.466182 
L 523.295455 253.466182 
L 525.409091 253.466182 
L 527.522727 253.466182 
L 529.636364 253.466182 
L 531.75 253.466182 
L 533.863636 253.466182 
L 535.977273 253.466182 
L 538.090909 253.466182 
L 540.204545 253.466182 
L 542.318182 253.466182 
L 544.431818 253.466182 
L 546.545455 253.466182 
L 548.659091 253.466182 
L 550.772727 253.466182 
L 552.886364 253.466182 
L 555 253.466182 
L 557.113636 253.466182 
L 559.227273 253.466182 
L 561.340909 253.466182 
L 563.454545 253.466182 
L 565.568182 253.466182 
L 567.681818 253.466182 
L 569.795455 253.466182 
L 571.909091 253.466182 
L 574.022727 253.466182 
L 576.136364 253.466182 
L 578.25 253.466182 
L 580.363636 253.466182 
L 582.477273 253.466182 
L 584.590909 253.466182 
L 586.704545 253.466182 
L 588.818182 253.466182 
L 590.931818 253.466182 
L 593.045455 253.466182 
L 595.159091 253.466182 
L 597.272727 253.466182 
L 599.386364 253.466182 
L 601.5 253.466182 
L 603.613636 253.466182 
L 605.727273 253.466182 
L 607.840909 253.466182 
L 609.954545 253.466182 
L 612.068182 253.466182 
L 614.181818 253.466182 
L 616.295455 253.466182 
L 618.409091 253.466182 
L 620.522727 253.466182 
L 622.636364 253.466182 
L 624.75 253.466182 
L 626.863636 253.466182 
L 628.977273 253.466182 
L 631.090909 253.466182 
L 633.204545 253.466182 
L 635.318182 253.466182 
L 637.431818 253.466182 
L 639.545455 253.466182 
L 641.659091 253.466182 
" style="fill:none;stroke:#1f77b4;stroke-linecap:square;stroke-width:1.5;"/>
   </g>
   <g id="line2d_85">
    <path clip-path="url(#p9b8a01b3ac)" d="M 552.886364 253.466182 
L 555 253.466182 
L 557.113636 253.466182 
L 559.227273 253.466182 
L 561.340909 253.466182 
L 563.454545 253.466182 
L 565.568182 253.466182 
L 567.681818 253.466182 
L 569.795455 253.466182 
L 571.909091 253.466182 
L 574.022727 253.466182 
L 576.136364 253.466182 
L 578.25 253.466182 
L 580.363636 253.466182 
L 582.477273 253.466182 
L 584.590909 253.466182 
L 586.704545 253.466182 
L 588.818182 253.466182 
L 590.931818 253.466182 
L 593.045455 253.466182 
L 595.159091 253.466182 
L 597.272727 253.466182 
L 599.386364 253.466182 
L 601.5 253.466182 
L 603.613636 253.466182 
L 605.727273 253.466182 
L 607.840909 253.466182 
L 609.954545 253.466182 
L 612.068182 253.466182 
L 614.181818 253.466182 
L 616.295455 253.466182 
L 618.409091 253.466182 
L 620.522727 253.466182 
L 622.636364 253.466182 
L 624.75 253.466182 
L 626.863636 253.466182 
L 628.977273 253.466182 
L 631.090909 253.466182 
L 633.204545 253.466182 
L 635.318182 253.466182 
L 637.431818 253.466182 
L 639.545455 253.466182 
L 641.659091 372.069818 
" style="fill:none;stroke:#ff7f0e;stroke-linecap:square;stroke-width:1.5;"/>
   </g>
   <g id="patch_33">
    <path d="M 508.5 378 
L 508.5 247.536 
" style="fill:none;stroke:#000000;stroke-linecap:square;stroke-linejoin:miter;stroke-width:0.8;"/>
   </g>
   <g id="patch_34">
    <path d="M 648 378 
L 648 247.536 
" style="fill:none;stroke:#000000;stroke-linecap:square;stroke-linejoin:miter;stroke-width:0.8;"/>
   </g>
   <g id="patch_35">
    <path d="M 508.5 378 
L 648 378 
" style="fill:none;stroke:#000000;stroke-linecap:square;stroke-linejoin:miter;stroke-width:0.8;"/>
   </g>
   <g id="patch_36">
    <path d="M 508.5 247.536 
L 648 247.536 
" style="fill:none;stroke:#000000;stroke-linecap:square;stroke-linejoin:miter;stroke-width:0.8;"/>
   </g>
   <g id="text_81">
    <!-- dataset3 -->
    <g transform="translate(551.747813 241.536)scale(0.12 -0.12)">
     <use xlink:href="#DejaVuSans-100"/>
     <use x="63.476562" xlink:href="#DejaVuSans-97"/>
     <use x="124.755859" xlink:href="#DejaVuSans-116"/>
     <use x="163.964844" xlink:href="#DejaVuSans-97"/>
     <use x="225.244141" xlink:href="#DejaVuSans-115"/>
     <use x="277.34375" xlink:href="#DejaVuSans-101"/>
     <use x="338.867188" xlink:href="#DejaVuSans-116"/>
     <use x="378.076172" xlink:href="#DejaVuSans-51"/>
    </g>
   </g>
   <g id="legend_6">
    <g id="patch_37">
     <path d="M 515.5 373 
L 587.359375 373 
Q 589.359375 373 589.359375 371 
L 589.359375 342.64375 
Q 589.359375 340.64375 587.359375 340.64375 
L 515.5 340.64375 
Q 513.5 340.64375 513.5 342.64375 
L 513.5 371 
Q 513.5 373 515.5 373 
z
" style="fill:#ffffff;opacity:0.8;stroke:#cccccc;stroke-linejoin:miter;"/>
    </g>
    <g id="line2d_86">
     <path d="M 517.5 348.742187 
L 537.5 348.742187 
" style="fill:none;stroke:#1f77b4;stroke-linecap:square;stroke-width:1.5;"/>
    </g>
    <g id="line2d_87"/>
    <g id="text_82">
     <!-- bwa -->
     <g transform="translate(545.5 352.242187)scale(0.1 -0.1)">
      <use xlink:href="#DejaVuSans-98"/>
      <use x="63.476562" xlink:href="#DejaVuSans-119"/>
      <use x="145.263672" xlink:href="#DejaVuSans-97"/>
     </g>
    </g>
    <g id="line2d_88">
     <path d="M 517.5 363.420312 
L 537.5 363.420312 
" style="fill:none;stroke:#ff7f0e;stroke-linecap:square;stroke-width:1.5;"/>
    </g>
    <g id="line2d_89"/>
    <g id="text_83">
     <!-- bowtie2 -->
     <g transform="translate(545.5 366.920312)scale(0.1 -0.1)">
      <use xlink:href="#DejaVuSans-98"/>
      <use x="63.476562" xlink:href="#DejaVuSans-111"/>
      <use x="124.658203" xlink:href="#DejaVuSans-119"/>
      <use x="206.445312" xlink:href="#DejaVuSans-116"/>
      <use x="245.654297" xlink:href="#DejaVuSans-105"/>
      <use x="273.4375" xlink:href="#DejaVuSans-101"/>
      <use x="334.960938" xlink:href="#DejaVuSans-50"/>
     </g>
    </g>
   </g>
  </g>
  <g id="text_84">
   <!-- cumulative precision and recall -->
   <g transform="translate(265.9725 17.758125)scale(0.12 -0.12)">
    <use xlink:href="#DejaVuSans-99"/>
    <use x="54.980469" xlink:href="#DejaVuSans-117"/>
    <use x="118.359375" xlink:href="#DejaVuSans-109"/>
    <use x="215.771484" xlink:href="#DejaVuSans-117"/>
    <use x="279.150391" xlink:href="#DejaVuSans-108"/>
    <use x="306.933594" xlink:href="#DejaVuSans-97"/>
    <use x="368.212891" xlink:href="#DejaVuSans-116"/>
    <use x="407.421875" xlink:href="#DejaVuSans-105"/>
    <use x="435.205078" xlink:href="#DejaVuSans-118"/>
    <use x="494.384766" xlink:href="#DejaVuSans-101"/>
    <use x="555.908203" xlink:href="#DejaVuSans-32"/>
    <use x="587.695312" xlink:href="#DejaVuSans-112"/>
    <use x="651.171875" xlink:href="#DejaVuSans-114"/>
    <use x="692.253906" xlink:href="#DejaVuSans-101"/>
    <use x="753.777344" xlink:href="#DejaVuSans-99"/>
    <use x="808.757812" xlink:href="#DejaVuSans-105"/>
    <use x="836.541016" xlink:href="#DejaVuSans-115"/>
    <use x="888.640625" xlink:href="#DejaVuSans-105"/>
    <use x="916.423828" xlink:href="#DejaVuSans-111"/>
    <use x="977.605469" xlink:href="#DejaVuSans-110"/>
    <use x="1040.984375" xlink:href="#DejaVuSans-32"/>
    <use x="1072.771484" xlink:href="#DejaVuSans-97"/>
    <use x="1134.050781" xlink:href="#DejaVuSans-110"/>
    <use x="1197.429688" xlink:href="#DejaVuSans-100"/>
    <use x="1260.90625" xlink:href="#DejaVuSans-32"/>
    <use x="1292.693359" xlink:href="#DejaVuSans-114"/>
    <use x="1333.775391" xlink:href="#DejaVuSans-101"/>
    <use x="1395.298828" xlink:href="#DejaVuSans-99"/>
    <use x="1450.279297" xlink:href="#DejaVuSans-97"/>
    <use x="1511.558594" xlink:href="#DejaVuSans-108"/>
    <use x="1539.341797" xlink:href="#DejaVuSans-108"/>
   </g>
  </g>
 </g>
 <defs>
  <clipPath id="pf1a3954585">
   <rect height="130.464" width="139.5" x="90" y="51.84"/>
  </clipPath>
  <clipPath id="pcf9702bca9">
   <rect height="130.464" width="139.5" x="299.25" y="51.84"/>
  </clipPath>
  <clipPath id="p807e240340">
   <rect height="130.464" width="139.5" x="508.5" y="51.84"/>
  </clipPath>
  <clipPath id="pd7a9810fef">
   <rect height="130.464" width="139.5" x="90" y="247.536"/>
  </clipPath>
  <clipPath id="p450c280a51">
   <rect height="130.464" width="139.5" x="299.25" y="247.536"/>
  </clipPath>
  <clipPath id="p9b8a01b3ac">
   <rect height="130.464" width="139.5" x="508.5" y="247.536"/>
  </clipPath>
 </defs>
</svg>
