<?xml version="1.0" encoding="utf-8" standalone="no"?>
<!DOCTYPE svg PUBLIC "-//W3C//DTD SVG 1.1//EN"
  "http://www.w3.org/Graphics/SVG/1.1/DTD/svg11.dtd">
<!-- Created with matplotlib (https://matplotlib.org/) -->
<svg height="414.11625pt" version="1.1" viewBox="0 0 628.06875 414.11625" width="628.06875pt" xmlns="http://www.w3.org/2000/svg" xmlns:xlink="http://www.w3.org/1999/xlink">
 <defs>
  <style type="text/css">
*{stroke-linecap:butt;stroke-linejoin:round;}
  </style>
 </defs>
 <g id="figure_1">
  <g id="patch_1">
   <path d="M 0 414.11625 
L 628.06875 414.11625 
L 628.06875 0 
L 0 0 
z
" style="fill:none;"/>
  </g>
  <g id="axes_1">
   <g id="patch_2">
    <path d="M 62.86875 180.864 
L 202.36875 180.864 
L 202.36875 50.4 
L 62.86875 50.4 
z
" style="fill:#ffffff;"/>
   </g>
   <g id="matplotlib.axis_1">
    <g id="xtick_1">
     <g id="line2d_1">
      <defs>
       <path d="M 0 0 
L 0 3.5 
" id="m6e42ab7b79" style="stroke:#000000;stroke-width:0.8;"/>
      </defs>
      <g>
       <use style="stroke:#000000;stroke-width:0.8;" x="69.209659" xlink:href="#m6e42ab7b79" y="180.864"/>
      </g>
     </g>
     <g id="text_1">
      <!-- 60 -->
      <defs>
       <path d="M 33.015625 40.375 
Q 26.375 40.375 22.484375 35.828125 
Q 18.609375 31.296875 18.609375 23.390625 
Q 18.609375 15.53125 22.484375 10.953125 
Q 26.375 6.390625 33.015625 6.390625 
Q 39.65625 6.390625 43.53125 10.953125 
Q 47.40625 15.53125 47.40625 23.390625 
Q 47.40625 31.296875 43.53125 35.828125 
Q 39.65625 40.375 33.015625 40.375 
z
M 52.59375 71.296875 
L 52.59375 62.3125 
Q 48.875 64.0625 45.09375 64.984375 
Q 41.3125 65.921875 37.59375 65.921875 
Q 27.828125 65.921875 22.671875 59.328125 
Q 17.53125 52.734375 16.796875 39.40625 
Q 19.671875 43.65625 24.015625 45.921875 
Q 28.375 48.1875 33.59375 48.1875 
Q 44.578125 48.1875 50.953125 41.515625 
Q 57.328125 34.859375 57.328125 23.390625 
Q 57.328125 12.15625 50.6875 5.359375 
Q 44.046875 -1.421875 33.015625 -1.421875 
Q 20.359375 -1.421875 13.671875 8.265625 
Q 6.984375 17.96875 6.984375 36.375 
Q 6.984375 53.65625 15.1875 63.9375 
Q 23.390625 74.21875 37.203125 74.21875 
Q 40.921875 74.21875 44.703125 73.484375 
Q 48.484375 72.75 52.59375 71.296875 
z
" id="DejaVuSans-54"/>
       <path d="M 31.78125 66.40625 
Q 24.171875 66.40625 20.328125 58.90625 
Q 16.5 51.421875 16.5 36.375 
Q 16.5 21.390625 20.328125 13.890625 
Q 24.171875 6.390625 31.78125 6.390625 
Q 39.453125 6.390625 43.28125 13.890625 
Q 47.125 21.390625 47.125 36.375 
Q 47.125 51.421875 43.28125 58.90625 
Q 39.453125 66.40625 31.78125 66.40625 
z
M 31.78125 74.21875 
Q 44.046875 74.21875 50.515625 64.515625 
Q 56.984375 54.828125 56.984375 36.375 
Q 56.984375 17.96875 50.515625 8.265625 
Q 44.046875 -1.421875 31.78125 -1.421875 
Q 19.53125 -1.421875 13.0625 8.265625 
Q 6.59375 17.96875 6.59375 36.375 
Q 6.59375 54.828125 13.0625 64.515625 
Q 19.53125 74.21875 31.78125 74.21875 
z
" id="DejaVuSans-48"/>
      </defs>
      <g transform="translate(62.847159 195.462437)scale(0.1 -0.1)">
       <use xlink:href="#DejaVuSans-54"/>
       <use x="63.623047" xlink:href="#DejaVuSans-48"/>
      </g>
     </g>
    </g>
    <g id="xtick_2">
     <g id="line2d_2">
      <g>
       <use style="stroke:#000000;stroke-width:0.8;" x="111.482386" xlink:href="#m6e42ab7b79" y="180.864"/>
      </g>
     </g>
     <g id="text_2">
      <!-- 40 -->
      <defs>
       <path d="M 37.796875 64.3125 
L 12.890625 25.390625 
L 37.796875 25.390625 
z
M 35.203125 72.90625 
L 47.609375 72.90625 
L 47.609375 25.390625 
L 58.015625 25.390625 
L 58.015625 17.1875 
L 47.609375 17.1875 
L 47.609375 0 
L 37.796875 0 
L 37.796875 17.1875 
L 4.890625 17.1875 
L 4.890625 26.703125 
z
" id="DejaVuSans-52"/>
      </defs>
      <g transform="translate(105.119886 195.462437)scale(0.1 -0.1)">
       <use xlink:href="#DejaVuSans-52"/>
       <use x="63.623047" xlink:href="#DejaVuSans-48"/>
      </g>
     </g>
    </g>
    <g id="xtick_3">
     <g id="line2d_3">
      <g>
       <use style="stroke:#000000;stroke-width:0.8;" x="153.755114" xlink:href="#m6e42ab7b79" y="180.864"/>
      </g>
     </g>
     <g id="text_3">
      <!-- 20 -->
      <defs>
       <path d="M 19.1875 8.296875 
L 53.609375 8.296875 
L 53.609375 0 
L 7.328125 0 
L 7.328125 8.296875 
Q 12.9375 14.109375 22.625 23.890625 
Q 32.328125 33.6875 34.8125 36.53125 
Q 39.546875 41.84375 41.421875 45.53125 
Q 43.3125 49.21875 43.3125 52.78125 
Q 43.3125 58.59375 39.234375 62.25 
Q 35.15625 65.921875 28.609375 65.921875 
Q 23.96875 65.921875 18.8125 64.3125 
Q 13.671875 62.703125 7.8125 59.421875 
L 7.8125 69.390625 
Q 13.765625 71.78125 18.9375 73 
Q 24.125 74.21875 28.421875 74.21875 
Q 39.75 74.21875 46.484375 68.546875 
Q 53.21875 62.890625 53.21875 53.421875 
Q 53.21875 48.921875 51.53125 44.890625 
Q 49.859375 40.875 45.40625 35.40625 
Q 44.1875 33.984375 37.640625 27.21875 
Q 31.109375 20.453125 19.1875 8.296875 
z
" id="DejaVuSans-50"/>
      </defs>
      <g transform="translate(147.392614 195.462437)scale(0.1 -0.1)">
       <use xlink:href="#DejaVuSans-50"/>
       <use x="63.623047" xlink:href="#DejaVuSans-48"/>
      </g>
     </g>
    </g>
    <g id="xtick_4">
     <g id="line2d_4">
      <g>
       <use style="stroke:#000000;stroke-width:0.8;" x="196.027841" xlink:href="#m6e42ab7b79" y="180.864"/>
      </g>
     </g>
     <g id="text_4">
      <!-- 0 -->
      <g transform="translate(192.846591 195.462437)scale(0.1 -0.1)">
       <use xlink:href="#DejaVuSans-48"/>
      </g>
     </g>
    </g>
    <g id="text_5">
     <!-- mapping score -->
     <defs>
      <path d="M 52 44.1875 
Q 55.375 50.25 60.0625 53.125 
Q 64.75 56 71.09375 56 
Q 79.640625 56 84.28125 50.015625 
Q 88.921875 44.046875 88.921875 33.015625 
L 88.921875 0 
L 79.890625 0 
L 79.890625 32.71875 
Q 79.890625 40.578125 77.09375 44.375 
Q 74.3125 48.1875 68.609375 48.1875 
Q 61.625 48.1875 57.5625 43.546875 
Q 53.515625 38.921875 53.515625 30.90625 
L 53.515625 0 
L 44.484375 0 
L 44.484375 32.71875 
Q 44.484375 40.625 41.703125 44.40625 
Q 38.921875 48.1875 33.109375 48.1875 
Q 26.21875 48.1875 22.15625 43.53125 
Q 18.109375 38.875 18.109375 30.90625 
L 18.109375 0 
L 9.078125 0 
L 9.078125 54.6875 
L 18.109375 54.6875 
L 18.109375 46.1875 
Q 21.1875 51.21875 25.484375 53.609375 
Q 29.78125 56 35.6875 56 
Q 41.65625 56 45.828125 52.96875 
Q 50 49.953125 52 44.1875 
z
" id="DejaVuSans-109"/>
      <path d="M 34.28125 27.484375 
Q 23.390625 27.484375 19.1875 25 
Q 14.984375 22.515625 14.984375 16.5 
Q 14.984375 11.71875 18.140625 8.90625 
Q 21.296875 6.109375 26.703125 6.109375 
Q 34.1875 6.109375 38.703125 11.40625 
Q 43.21875 16.703125 43.21875 25.484375 
L 43.21875 27.484375 
z
M 52.203125 31.203125 
L 52.203125 0 
L 43.21875 0 
L 43.21875 8.296875 
Q 40.140625 3.328125 35.546875 0.953125 
Q 30.953125 -1.421875 24.3125 -1.421875 
Q 15.921875 -1.421875 10.953125 3.296875 
Q 6 8.015625 6 15.921875 
Q 6 25.140625 12.171875 29.828125 
Q 18.359375 34.515625 30.609375 34.515625 
L 43.21875 34.515625 
L 43.21875 35.40625 
Q 43.21875 41.609375 39.140625 45 
Q 35.0625 48.390625 27.6875 48.390625 
Q 23 48.390625 18.546875 47.265625 
Q 14.109375 46.140625 10.015625 43.890625 
L 10.015625 52.203125 
Q 14.9375 54.109375 19.578125 55.046875 
Q 24.21875 56 28.609375 56 
Q 40.484375 56 46.34375 49.84375 
Q 52.203125 43.703125 52.203125 31.203125 
z
" id="DejaVuSans-97"/>
      <path d="M 18.109375 8.203125 
L 18.109375 -20.796875 
L 9.078125 -20.796875 
L 9.078125 54.6875 
L 18.109375 54.6875 
L 18.109375 46.390625 
Q 20.953125 51.265625 25.265625 53.625 
Q 29.59375 56 35.59375 56 
Q 45.5625 56 51.78125 48.09375 
Q 58.015625 40.1875 58.015625 27.296875 
Q 58.015625 14.40625 51.78125 6.484375 
Q 45.5625 -1.421875 35.59375 -1.421875 
Q 29.59375 -1.421875 25.265625 0.953125 
Q 20.953125 3.328125 18.109375 8.203125 
z
M 48.6875 27.296875 
Q 48.6875 37.203125 44.609375 42.84375 
Q 40.53125 48.484375 33.40625 48.484375 
Q 26.265625 48.484375 22.1875 42.84375 
Q 18.109375 37.203125 18.109375 27.296875 
Q 18.109375 17.390625 22.1875 11.75 
Q 26.265625 6.109375 33.40625 6.109375 
Q 40.53125 6.109375 44.609375 11.75 
Q 48.6875 17.390625 48.6875 27.296875 
z
" id="DejaVuSans-112"/>
      <path d="M 9.421875 54.6875 
L 18.40625 54.6875 
L 18.40625 0 
L 9.421875 0 
z
M 9.421875 75.984375 
L 18.40625 75.984375 
L 18.40625 64.59375 
L 9.421875 64.59375 
z
" id="DejaVuSans-105"/>
      <path d="M 54.890625 33.015625 
L 54.890625 0 
L 45.90625 0 
L 45.90625 32.71875 
Q 45.90625 40.484375 42.875 44.328125 
Q 39.84375 48.1875 33.796875 48.1875 
Q 26.515625 48.1875 22.3125 43.546875 
Q 18.109375 38.921875 18.109375 30.90625 
L 18.109375 0 
L 9.078125 0 
L 9.078125 54.6875 
L 18.109375 54.6875 
L 18.109375 46.1875 
Q 21.34375 51.125 25.703125 53.5625 
Q 30.078125 56 35.796875 56 
Q 45.21875 56 50.046875 50.171875 
Q 54.890625 44.34375 54.890625 33.015625 
z
" id="DejaVuSans-110"/>
      <path d="M 45.40625 27.984375 
Q 45.40625 37.75 41.375 43.109375 
Q 37.359375 48.484375 30.078125 48.484375 
Q 22.859375 48.484375 18.828125 43.109375 
Q 14.796875 37.75 14.796875 27.984375 
Q 14.796875 18.265625 18.828125 12.890625 
Q 22.859375 7.515625 30.078125 7.515625 
Q 37.359375 7.515625 41.375 12.890625 
Q 45.40625 18.265625 45.40625 27.984375 
z
M 54.390625 6.78125 
Q 54.390625 -7.171875 48.1875 -13.984375 
Q 42 -20.796875 29.203125 -20.796875 
Q 24.46875 -20.796875 20.265625 -20.09375 
Q 16.0625 -19.390625 12.109375 -17.921875 
L 12.109375 -9.1875 
Q 16.0625 -11.328125 19.921875 -12.34375 
Q 23.78125 -13.375 27.78125 -13.375 
Q 36.625 -13.375 41.015625 -8.765625 
Q 45.40625 -4.15625 45.40625 5.171875 
L 45.40625 9.625 
Q 42.625 4.78125 38.28125 2.390625 
Q 33.9375 0 27.875 0 
Q 17.828125 0 11.671875 7.65625 
Q 5.515625 15.328125 5.515625 27.984375 
Q 5.515625 40.671875 11.671875 48.328125 
Q 17.828125 56 27.875 56 
Q 33.9375 56 38.28125 53.609375 
Q 42.625 51.21875 45.40625 46.390625 
L 45.40625 54.6875 
L 54.390625 54.6875 
z
" id="DejaVuSans-103"/>
      <path id="DejaVuSans-32"/>
      <path d="M 44.28125 53.078125 
L 44.28125 44.578125 
Q 40.484375 46.53125 36.375 47.5 
Q 32.28125 48.484375 27.875 48.484375 
Q 21.1875 48.484375 17.84375 46.4375 
Q 14.5 44.390625 14.5 40.28125 
Q 14.5 37.15625 16.890625 35.375 
Q 19.28125 33.59375 26.515625 31.984375 
L 29.59375 31.296875 
Q 39.15625 29.25 43.1875 25.515625 
Q 47.21875 21.78125 47.21875 15.09375 
Q 47.21875 7.46875 41.1875 3.015625 
Q 35.15625 -1.421875 24.609375 -1.421875 
Q 20.21875 -1.421875 15.453125 -0.5625 
Q 10.6875 0.296875 5.421875 2 
L 5.421875 11.28125 
Q 10.40625 8.6875 15.234375 7.390625 
Q 20.0625 6.109375 24.8125 6.109375 
Q 31.15625 6.109375 34.5625 8.28125 
Q 37.984375 10.453125 37.984375 14.40625 
Q 37.984375 18.0625 35.515625 20.015625 
Q 33.0625 21.96875 24.703125 23.78125 
L 21.578125 24.515625 
Q 13.234375 26.265625 9.515625 29.90625 
Q 5.8125 33.546875 5.8125 39.890625 
Q 5.8125 47.609375 11.28125 51.796875 
Q 16.75 56 26.8125 56 
Q 31.78125 56 36.171875 55.265625 
Q 40.578125 54.546875 44.28125 53.078125 
z
" id="DejaVuSans-115"/>
      <path d="M 48.78125 52.59375 
L 48.78125 44.1875 
Q 44.96875 46.296875 41.140625 47.34375 
Q 37.3125 48.390625 33.40625 48.390625 
Q 24.65625 48.390625 19.8125 42.84375 
Q 14.984375 37.3125 14.984375 27.296875 
Q 14.984375 17.28125 19.8125 11.734375 
Q 24.65625 6.203125 33.40625 6.203125 
Q 37.3125 6.203125 41.140625 7.25 
Q 44.96875 8.296875 48.78125 10.40625 
L 48.78125 2.09375 
Q 45.015625 0.34375 40.984375 -0.53125 
Q 36.96875 -1.421875 32.421875 -1.421875 
Q 20.0625 -1.421875 12.78125 6.34375 
Q 5.515625 14.109375 5.515625 27.296875 
Q 5.515625 40.671875 12.859375 48.328125 
Q 20.21875 56 33.015625 56 
Q 37.15625 56 41.109375 55.140625 
Q 45.0625 54.296875 48.78125 52.59375 
z
" id="DejaVuSans-99"/>
      <path d="M 30.609375 48.390625 
Q 23.390625 48.390625 19.1875 42.75 
Q 14.984375 37.109375 14.984375 27.296875 
Q 14.984375 17.484375 19.15625 11.84375 
Q 23.34375 6.203125 30.609375 6.203125 
Q 37.796875 6.203125 41.984375 11.859375 
Q 46.1875 17.53125 46.1875 27.296875 
Q 46.1875 37.015625 41.984375 42.703125 
Q 37.796875 48.390625 30.609375 48.390625 
z
M 30.609375 56 
Q 42.328125 56 49.015625 48.375 
Q 55.71875 40.765625 55.71875 27.296875 
Q 55.71875 13.875 49.015625 6.21875 
Q 42.328125 -1.421875 30.609375 -1.421875 
Q 18.84375 -1.421875 12.171875 6.21875 
Q 5.515625 13.875 5.515625 27.296875 
Q 5.515625 40.765625 12.171875 48.375 
Q 18.84375 56 30.609375 56 
z
" id="DejaVuSans-111"/>
      <path d="M 41.109375 46.296875 
Q 39.59375 47.171875 37.8125 47.578125 
Q 36.03125 48 33.890625 48 
Q 26.265625 48 22.1875 43.046875 
Q 18.109375 38.09375 18.109375 28.8125 
L 18.109375 0 
L 9.078125 0 
L 9.078125 54.6875 
L 18.109375 54.6875 
L 18.109375 46.1875 
Q 20.953125 51.171875 25.484375 53.578125 
Q 30.03125 56 36.53125 56 
Q 37.453125 56 38.578125 55.875 
Q 39.703125 55.765625 41.0625 55.515625 
z
" id="DejaVuSans-114"/>
      <path d="M 56.203125 29.59375 
L 56.203125 25.203125 
L 14.890625 25.203125 
Q 15.484375 15.921875 20.484375 11.0625 
Q 25.484375 6.203125 34.421875 6.203125 
Q 39.59375 6.203125 44.453125 7.46875 
Q 49.3125 8.734375 54.109375 11.28125 
L 54.109375 2.78125 
Q 49.265625 0.734375 44.1875 -0.34375 
Q 39.109375 -1.421875 33.890625 -1.421875 
Q 20.796875 -1.421875 13.15625 6.1875 
Q 5.515625 13.8125 5.515625 26.8125 
Q 5.515625 40.234375 12.765625 48.109375 
Q 20.015625 56 32.328125 56 
Q 43.359375 56 49.78125 48.890625 
Q 56.203125 41.796875 56.203125 29.59375 
z
M 47.21875 32.234375 
Q 47.125 39.59375 43.09375 43.984375 
Q 39.0625 48.390625 32.421875 48.390625 
Q 24.90625 48.390625 20.390625 44.140625 
Q 15.875 39.890625 15.1875 32.171875 
z
" id="DejaVuSans-101"/>
     </defs>
     <g transform="translate(95.471094 209.140562)scale(0.1 -0.1)">
      <use xlink:href="#DejaVuSans-109"/>
      <use x="97.412109" xlink:href="#DejaVuSans-97"/>
      <use x="158.691406" xlink:href="#DejaVuSans-112"/>
      <use x="222.167969" xlink:href="#DejaVuSans-112"/>
      <use x="285.644531" xlink:href="#DejaVuSans-105"/>
      <use x="313.427734" xlink:href="#DejaVuSans-110"/>
      <use x="376.806641" xlink:href="#DejaVuSans-103"/>
      <use x="440.283203" xlink:href="#DejaVuSans-32"/>
      <use x="472.070312" xlink:href="#DejaVuSans-115"/>
      <use x="524.169922" xlink:href="#DejaVuSans-99"/>
      <use x="579.150391" xlink:href="#DejaVuSans-111"/>
      <use x="640.332031" xlink:href="#DejaVuSans-114"/>
      <use x="681.414062" xlink:href="#DejaVuSans-101"/>
     </g>
    </g>
   </g>
   <g id="matplotlib.axis_2">
    <g id="ytick_1">
     <g id="line2d_5">
      <defs>
       <path d="M 0 0 
L -3.5 0 
" id="m2b60faa96b" style="stroke:#000000;stroke-width:0.8;"/>
      </defs>
      <g>
       <use style="stroke:#000000;stroke-width:0.8;" x="62.86875" xlink:href="#m2b60faa96b" y="161.642267"/>
      </g>
     </g>
     <g id="text_6">
      <!-- 0.92 -->
      <defs>
       <path d="M 10.6875 12.40625 
L 21 12.40625 
L 21 0 
L 10.6875 0 
z
" id="DejaVuSans-46"/>
       <path d="M 10.984375 1.515625 
L 10.984375 10.5 
Q 14.703125 8.734375 18.5 7.8125 
Q 22.3125 6.890625 25.984375 6.890625 
Q 35.75 6.890625 40.890625 13.453125 
Q 46.046875 20.015625 46.78125 33.40625 
Q 43.953125 29.203125 39.59375 26.953125 
Q 35.25 24.703125 29.984375 24.703125 
Q 19.046875 24.703125 12.671875 31.3125 
Q 6.296875 37.9375 6.296875 49.421875 
Q 6.296875 60.640625 12.9375 67.421875 
Q 19.578125 74.21875 30.609375 74.21875 
Q 43.265625 74.21875 49.921875 64.515625 
Q 56.59375 54.828125 56.59375 36.375 
Q 56.59375 19.140625 48.40625 8.859375 
Q 40.234375 -1.421875 26.421875 -1.421875 
Q 22.703125 -1.421875 18.890625 -0.6875 
Q 15.09375 0.046875 10.984375 1.515625 
z
M 30.609375 32.421875 
Q 37.25 32.421875 41.125 36.953125 
Q 45.015625 41.5 45.015625 49.421875 
Q 45.015625 57.28125 41.125 61.84375 
Q 37.25 66.40625 30.609375 66.40625 
Q 23.96875 66.40625 20.09375 61.84375 
Q 16.21875 57.28125 16.21875 49.421875 
Q 16.21875 41.5 20.09375 36.953125 
Q 23.96875 32.421875 30.609375 32.421875 
z
" id="DejaVuSans-57"/>
      </defs>
      <g transform="translate(33.603125 165.441486)scale(0.1 -0.1)">
       <use xlink:href="#DejaVuSans-48"/>
       <use x="63.623047" xlink:href="#DejaVuSans-46"/>
       <use x="95.410156" xlink:href="#DejaVuSans-57"/>
       <use x="159.033203" xlink:href="#DejaVuSans-50"/>
      </g>
     </g>
    </g>
    <g id="ytick_2">
     <g id="line2d_6">
      <g>
       <use style="stroke:#000000;stroke-width:0.8;" x="62.86875" xlink:href="#m2b60faa96b" y="135.312284"/>
      </g>
     </g>
     <g id="text_7">
      <!-- 0.94 -->
      <g transform="translate(33.603125 139.111503)scale(0.1 -0.1)">
       <use xlink:href="#DejaVuSans-48"/>
       <use x="63.623047" xlink:href="#DejaVuSans-46"/>
       <use x="95.410156" xlink:href="#DejaVuSans-57"/>
       <use x="159.033203" xlink:href="#DejaVuSans-52"/>
      </g>
     </g>
    </g>
    <g id="ytick_3">
     <g id="line2d_7">
      <g>
       <use style="stroke:#000000;stroke-width:0.8;" x="62.86875" xlink:href="#m2b60faa96b" y="108.982301"/>
      </g>
     </g>
     <g id="text_8">
      <!-- 0.96 -->
      <g transform="translate(33.603125 112.78152)scale(0.1 -0.1)">
       <use xlink:href="#DejaVuSans-48"/>
       <use x="63.623047" xlink:href="#DejaVuSans-46"/>
       <use x="95.410156" xlink:href="#DejaVuSans-57"/>
       <use x="159.033203" xlink:href="#DejaVuSans-54"/>
      </g>
     </g>
    </g>
    <g id="ytick_4">
     <g id="line2d_8">
      <g>
       <use style="stroke:#000000;stroke-width:0.8;" x="62.86875" xlink:href="#m2b60faa96b" y="82.652318"/>
      </g>
     </g>
     <g id="text_9">
      <!-- 0.98 -->
      <defs>
       <path d="M 31.78125 34.625 
Q 24.75 34.625 20.71875 30.859375 
Q 16.703125 27.09375 16.703125 20.515625 
Q 16.703125 13.921875 20.71875 10.15625 
Q 24.75 6.390625 31.78125 6.390625 
Q 38.8125 6.390625 42.859375 10.171875 
Q 46.921875 13.96875 46.921875 20.515625 
Q 46.921875 27.09375 42.890625 30.859375 
Q 38.875 34.625 31.78125 34.625 
z
M 21.921875 38.8125 
Q 15.578125 40.375 12.03125 44.71875 
Q 8.5 49.078125 8.5 55.328125 
Q 8.5 64.0625 14.71875 69.140625 
Q 20.953125 74.21875 31.78125 74.21875 
Q 42.671875 74.21875 48.875 69.140625 
Q 55.078125 64.0625 55.078125 55.328125 
Q 55.078125 49.078125 51.53125 44.71875 
Q 48 40.375 41.703125 38.8125 
Q 48.828125 37.15625 52.796875 32.3125 
Q 56.78125 27.484375 56.78125 20.515625 
Q 56.78125 9.90625 50.3125 4.234375 
Q 43.84375 -1.421875 31.78125 -1.421875 
Q 19.734375 -1.421875 13.25 4.234375 
Q 6.78125 9.90625 6.78125 20.515625 
Q 6.78125 27.484375 10.78125 32.3125 
Q 14.796875 37.15625 21.921875 38.8125 
z
M 18.3125 54.390625 
Q 18.3125 48.734375 21.84375 45.5625 
Q 25.390625 42.390625 31.78125 42.390625 
Q 38.140625 42.390625 41.71875 45.5625 
Q 45.3125 48.734375 45.3125 54.390625 
Q 45.3125 60.0625 41.71875 63.234375 
Q 38.140625 66.40625 31.78125 66.40625 
Q 25.390625 66.40625 21.84375 63.234375 
Q 18.3125 60.0625 18.3125 54.390625 
z
" id="DejaVuSans-56"/>
      </defs>
      <g transform="translate(33.603125 86.451537)scale(0.1 -0.1)">
       <use xlink:href="#DejaVuSans-48"/>
       <use x="63.623047" xlink:href="#DejaVuSans-46"/>
       <use x="95.410156" xlink:href="#DejaVuSans-57"/>
       <use x="159.033203" xlink:href="#DejaVuSans-56"/>
      </g>
     </g>
    </g>
    <g id="ytick_5">
     <g id="line2d_9">
      <g>
       <use style="stroke:#000000;stroke-width:0.8;" x="62.86875" xlink:href="#m2b60faa96b" y="56.322335"/>
      </g>
     </g>
     <g id="text_10">
      <!-- 1.00 -->
      <defs>
       <path d="M 12.40625 8.296875 
L 28.515625 8.296875 
L 28.515625 63.921875 
L 10.984375 60.40625 
L 10.984375 69.390625 
L 28.421875 72.90625 
L 38.28125 72.90625 
L 38.28125 8.296875 
L 54.390625 8.296875 
L 54.390625 0 
L 12.40625 0 
z
" id="DejaVuSans-49"/>
      </defs>
      <g transform="translate(33.603125 60.121554)scale(0.1 -0.1)">
       <use xlink:href="#DejaVuSans-49"/>
       <use x="63.623047" xlink:href="#DejaVuSans-46"/>
       <use x="95.410156" xlink:href="#DejaVuSans-48"/>
       <use x="159.033203" xlink:href="#DejaVuSans-48"/>
      </g>
     </g>
    </g>
    <g id="text_11">
     <!-- cumulative precision -->
     <defs>
      <path d="M 8.5 21.578125 
L 8.5 54.6875 
L 17.484375 54.6875 
L 17.484375 21.921875 
Q 17.484375 14.15625 20.5 10.265625 
Q 23.53125 6.390625 29.59375 6.390625 
Q 36.859375 6.390625 41.078125 11.03125 
Q 45.3125 15.671875 45.3125 23.6875 
L 45.3125 54.6875 
L 54.296875 54.6875 
L 54.296875 0 
L 45.3125 0 
L 45.3125 8.40625 
Q 42.046875 3.421875 37.71875 1 
Q 33.40625 -1.421875 27.6875 -1.421875 
Q 18.265625 -1.421875 13.375 4.4375 
Q 8.5 10.296875 8.5 21.578125 
z
M 31.109375 56 
z
" id="DejaVuSans-117"/>
      <path d="M 9.421875 75.984375 
L 18.40625 75.984375 
L 18.40625 0 
L 9.421875 0 
z
" id="DejaVuSans-108"/>
      <path d="M 18.3125 70.21875 
L 18.3125 54.6875 
L 36.8125 54.6875 
L 36.8125 47.703125 
L 18.3125 47.703125 
L 18.3125 18.015625 
Q 18.3125 11.328125 20.140625 9.421875 
Q 21.96875 7.515625 27.59375 7.515625 
L 36.8125 7.515625 
L 36.8125 0 
L 27.59375 0 
Q 17.1875 0 13.234375 3.875 
Q 9.28125 7.765625 9.28125 18.015625 
L 9.28125 47.703125 
L 2.6875 47.703125 
L 2.6875 54.6875 
L 9.28125 54.6875 
L 9.28125 70.21875 
z
" id="DejaVuSans-116"/>
      <path d="M 2.984375 54.6875 
L 12.5 54.6875 
L 29.59375 8.796875 
L 46.6875 54.6875 
L 56.203125 54.6875 
L 35.6875 0 
L 23.484375 0 
z
" id="DejaVuSans-118"/>
     </defs>
     <g transform="translate(27.523438 167.681219)rotate(-90)scale(0.1 -0.1)">
      <use xlink:href="#DejaVuSans-99"/>
      <use x="54.980469" xlink:href="#DejaVuSans-117"/>
      <use x="118.359375" xlink:href="#DejaVuSans-109"/>
      <use x="215.771484" xlink:href="#DejaVuSans-117"/>
      <use x="279.150391" xlink:href="#DejaVuSans-108"/>
      <use x="306.933594" xlink:href="#DejaVuSans-97"/>
      <use x="368.212891" xlink:href="#DejaVuSans-116"/>
      <use x="407.421875" xlink:href="#DejaVuSans-105"/>
      <use x="435.205078" xlink:href="#DejaVuSans-118"/>
      <use x="494.384766" xlink:href="#DejaVuSans-101"/>
      <use x="555.908203" xlink:href="#DejaVuSans-32"/>
      <use x="587.695312" xlink:href="#DejaVuSans-112"/>
      <use x="651.171875" xlink:href="#DejaVuSans-114"/>
      <use x="692.253906" xlink:href="#DejaVuSans-101"/>
      <use x="753.777344" xlink:href="#DejaVuSans-99"/>
      <use x="808.757812" xlink:href="#DejaVuSans-105"/>
      <use x="836.541016" xlink:href="#DejaVuSans-115"/>
      <use x="888.640625" xlink:href="#DejaVuSans-105"/>
      <use x="916.423828" xlink:href="#DejaVuSans-111"/>
      <use x="977.605469" xlink:href="#DejaVuSans-110"/>
     </g>
    </g>
   </g>
   <g id="line2d_10">
    <path clip-path="url(#p902c918045)" d="M 69.209659 56.330536 
L 71.323295 56.330536 
L 73.436932 56.330536 
L 75.550568 56.33053 
L 77.664205 56.33053 
L 79.777841 56.330524 
L 81.891477 56.330522 
L 84.005114 56.330519 
L 86.11875 56.330513 
L 88.232386 56.330512 
L 90.346023 56.330467 
L 92.459659 56.330459 
L 94.573295 56.330445 
L 96.686932 56.330433 
L 98.800568 56.330427 
L 100.914205 56.330416 
L 103.027841 56.330412 
L 105.141477 56.330406 
L 107.255114 56.330402 
L 109.36875 56.3304 
L 111.482386 56.330288 
L 113.596023 56.330284 
L 115.709659 56.330282 
L 117.823295 56.33028 
L 119.936932 56.330279 
L 122.050568 56.330278 
L 124.164205 56.330276 
L 126.277841 56.330274 
L 128.391477 56.330273 
L 130.505114 56.330271 
L 132.61875 56.330263 
L 134.732386 56.330263 
L 136.846023 56.330262 
L 138.959659 56.330217 
L 141.073295 56.330216 
L 143.186932 56.330202 
L 145.300568 56.330192 
L 147.414205 56.330188 
L 149.527841 56.330182 
L 151.641477 56.345858 
L 153.755114 56.345846 
L 155.86875 56.345839 
L 157.982386 56.345834 
L 160.096023 56.345826 
L 162.209659 56.345817 
L 164.323295 56.345809 
L 166.436932 56.345802 
L 168.550568 56.345793 
L 170.664205 56.345788 
L 172.777841 56.345782 
L 174.891477 56.345775 
L 177.005114 56.369194 
L 179.11875 56.369184 
L 181.232386 56.392588 
L 183.346023 56.423781 
L 185.459659 56.423767 
L 187.573295 56.439339 
L 189.686932 56.509467 
L 191.800568 56.525034 
L 193.914205 56.602907 
L 196.027841 148.180649 
" style="fill:none;stroke:#1f77b4;stroke-linecap:square;stroke-width:1.5;"/>
   </g>
   <g id="line2d_11">
    <path clip-path="url(#p902c918045)" d="M 107.255114 111.275677 
L 109.36875 111.275677 
L 111.482386 111.886161 
L 113.596023 112.002065 
L 115.709659 111.997191 
L 117.823295 112.159092 
L 119.936932 112.505896 
L 122.050568 113.059828 
L 124.164205 113.728965 
L 126.277841 113.745591 
L 128.391477 114.338361 
L 130.505114 115.573822 
L 132.61875 116.716358 
L 134.732386 116.716358 
L 136.846023 116.716358 
L 138.959659 116.749606 
L 141.073295 116.931539 
L 143.186932 117.215771 
L 145.300568 117.886571 
L 147.414205 118.809079 
L 149.527841 118.93993 
L 151.641477 119.293193 
L 153.755114 119.293193 
L 155.86875 119.293193 
L 157.982386 119.697457 
L 160.096023 120.202445 
L 162.209659 120.285067 
L 164.323295 120.495754 
L 166.436932 120.543273 
L 168.550568 120.543273 
L 170.664205 121.112835 
L 172.777841 121.639346 
L 174.891477 121.639346 
L 177.005114 121.639346 
L 179.11875 122.220713 
L 181.232386 123.078495 
L 183.346023 127.870883 
L 185.459659 127.908479 
L 187.573295 128.03294 
L 189.686932 128.933857 
L 191.800568 132.020781 
L 193.914205 169.838479 
L 196.027841 174.933818 
" style="fill:none;stroke:#ff7f0e;stroke-linecap:square;stroke-width:1.5;"/>
   </g>
   <g id="patch_3">
    <path d="M 62.86875 180.864 
L 62.86875 50.4 
" style="fill:none;stroke:#000000;stroke-linecap:square;stroke-linejoin:miter;stroke-width:0.8;"/>
   </g>
   <g id="patch_4">
    <path d="M 202.36875 180.864 
L 202.36875 50.4 
" style="fill:none;stroke:#000000;stroke-linecap:square;stroke-linejoin:miter;stroke-width:0.8;"/>
   </g>
   <g id="patch_5">
    <path d="M 62.86875 180.864 
L 202.36875 180.864 
" style="fill:none;stroke:#000000;stroke-linecap:square;stroke-linejoin:miter;stroke-width:0.8;"/>
   </g>
   <g id="patch_6">
    <path d="M 62.86875 50.4 
L 202.36875 50.4 
" style="fill:none;stroke:#000000;stroke-linecap:square;stroke-linejoin:miter;stroke-width:0.8;"/>
   </g>
   <g id="text_12">
    <!-- dataset1 -->
    <defs>
     <path d="M 45.40625 46.390625 
L 45.40625 75.984375 
L 54.390625 75.984375 
L 54.390625 0 
L 45.40625 0 
L 45.40625 8.203125 
Q 42.578125 3.328125 38.25 0.953125 
Q 33.9375 -1.421875 27.875 -1.421875 
Q 17.96875 -1.421875 11.734375 6.484375 
Q 5.515625 14.40625 5.515625 27.296875 
Q 5.515625 40.1875 11.734375 48.09375 
Q 17.96875 56 27.875 56 
Q 33.9375 56 38.25 53.625 
Q 42.578125 51.265625 45.40625 46.390625 
z
M 14.796875 27.296875 
Q 14.796875 17.390625 18.875 11.75 
Q 22.953125 6.109375 30.078125 6.109375 
Q 37.203125 6.109375 41.296875 11.75 
Q 45.40625 17.390625 45.40625 27.296875 
Q 45.40625 37.203125 41.296875 42.84375 
Q 37.203125 48.484375 30.078125 48.484375 
Q 22.953125 48.484375 18.875 42.84375 
Q 14.796875 37.203125 14.796875 27.296875 
z
" id="DejaVuSans-100"/>
    </defs>
    <g transform="translate(106.116562 44.4)scale(0.12 -0.12)">
     <use xlink:href="#DejaVuSans-100"/>
     <use x="63.476562" xlink:href="#DejaVuSans-97"/>
     <use x="124.755859" xlink:href="#DejaVuSans-116"/>
     <use x="163.964844" xlink:href="#DejaVuSans-97"/>
     <use x="225.244141" xlink:href="#DejaVuSans-115"/>
     <use x="277.34375" xlink:href="#DejaVuSans-101"/>
     <use x="338.867188" xlink:href="#DejaVuSans-116"/>
     <use x="378.076172" xlink:href="#DejaVuSans-49"/>
    </g>
   </g>
   <g id="legend_1">
    <g id="patch_7">
     <path d="M 69.86875 175.864 
L 141.728125 175.864 
Q 143.728125 175.864 143.728125 173.864 
L 143.728125 145.50775 
Q 143.728125 143.50775 141.728125 143.50775 
L 69.86875 143.50775 
Q 67.86875 143.50775 67.86875 145.50775 
L 67.86875 173.864 
Q 67.86875 175.864 69.86875 175.864 
z
" style="fill:#ffffff;opacity:0.8;stroke:#cccccc;stroke-linejoin:miter;"/>
    </g>
    <g id="line2d_12">
     <path d="M 71.86875 151.606187 
L 91.86875 151.606187 
" style="fill:none;stroke:#1f77b4;stroke-linecap:square;stroke-width:1.5;"/>
    </g>
    <g id="line2d_13"/>
    <g id="text_13">
     <!-- bwa -->
     <defs>
      <path d="M 48.6875 27.296875 
Q 48.6875 37.203125 44.609375 42.84375 
Q 40.53125 48.484375 33.40625 48.484375 
Q 26.265625 48.484375 22.1875 42.84375 
Q 18.109375 37.203125 18.109375 27.296875 
Q 18.109375 17.390625 22.1875 11.75 
Q 26.265625 6.109375 33.40625 6.109375 
Q 40.53125 6.109375 44.609375 11.75 
Q 48.6875 17.390625 48.6875 27.296875 
z
M 18.109375 46.390625 
Q 20.953125 51.265625 25.265625 53.625 
Q 29.59375 56 35.59375 56 
Q 45.5625 56 51.78125 48.09375 
Q 58.015625 40.1875 58.015625 27.296875 
Q 58.015625 14.40625 51.78125 6.484375 
Q 45.5625 -1.421875 35.59375 -1.421875 
Q 29.59375 -1.421875 25.265625 0.953125 
Q 20.953125 3.328125 18.109375 8.203125 
L 18.109375 0 
L 9.078125 0 
L 9.078125 75.984375 
L 18.109375 75.984375 
z
" id="DejaVuSans-98"/>
      <path d="M 4.203125 54.6875 
L 13.1875 54.6875 
L 24.421875 12.015625 
L 35.59375 54.6875 
L 46.1875 54.6875 
L 57.421875 12.015625 
L 68.609375 54.6875 
L 77.59375 54.6875 
L 63.28125 0 
L 52.6875 0 
L 40.921875 44.828125 
L 29.109375 0 
L 18.5 0 
z
" id="DejaVuSans-119"/>
     </defs>
     <g transform="translate(99.86875 155.106187)scale(0.1 -0.1)">
      <use xlink:href="#DejaVuSans-98"/>
      <use x="63.476562" xlink:href="#DejaVuSans-119"/>
      <use x="145.263672" xlink:href="#DejaVuSans-97"/>
     </g>
    </g>
    <g id="line2d_14">
     <path d="M 71.86875 166.284312 
L 91.86875 166.284312 
" style="fill:none;stroke:#ff7f0e;stroke-linecap:square;stroke-width:1.5;"/>
    </g>
    <g id="line2d_15"/>
    <g id="text_14">
     <!-- bowtie2 -->
     <g transform="translate(99.86875 169.784312)scale(0.1 -0.1)">
      <use xlink:href="#DejaVuSans-98"/>
      <use x="63.476562" xlink:href="#DejaVuSans-111"/>
      <use x="124.658203" xlink:href="#DejaVuSans-119"/>
      <use x="206.445312" xlink:href="#DejaVuSans-116"/>
      <use x="245.654297" xlink:href="#DejaVuSans-105"/>
      <use x="273.4375" xlink:href="#DejaVuSans-101"/>
      <use x="334.960938" xlink:href="#DejaVuSans-50"/>
     </g>
    </g>
   </g>
  </g>
  <g id="axes_2">
   <g id="patch_8">
    <path d="M 272.11875 180.864 
L 411.61875 180.864 
L 411.61875 50.4 
L 272.11875 50.4 
z
" style="fill:#ffffff;"/>
   </g>
   <g id="matplotlib.axis_3">
    <g id="xtick_5">
     <g id="line2d_16">
      <g>
       <use style="stroke:#000000;stroke-width:0.8;" x="278.459659" xlink:href="#m6e42ab7b79" y="180.864"/>
      </g>
     </g>
     <g id="text_15">
      <!-- 60 -->
      <g transform="translate(272.097159 195.462437)scale(0.1 -0.1)">
       <use xlink:href="#DejaVuSans-54"/>
       <use x="63.623047" xlink:href="#DejaVuSans-48"/>
      </g>
     </g>
    </g>
    <g id="xtick_6">
     <g id="line2d_17">
      <g>
       <use style="stroke:#000000;stroke-width:0.8;" x="320.732386" xlink:href="#m6e42ab7b79" y="180.864"/>
      </g>
     </g>
     <g id="text_16">
      <!-- 40 -->
      <g transform="translate(314.369886 195.462437)scale(0.1 -0.1)">
       <use xlink:href="#DejaVuSans-52"/>
       <use x="63.623047" xlink:href="#DejaVuSans-48"/>
      </g>
     </g>
    </g>
    <g id="xtick_7">
     <g id="line2d_18">
      <g>
       <use style="stroke:#000000;stroke-width:0.8;" x="363.005114" xlink:href="#m6e42ab7b79" y="180.864"/>
      </g>
     </g>
     <g id="text_17">
      <!-- 20 -->
      <g transform="translate(356.642614 195.462437)scale(0.1 -0.1)">
       <use xlink:href="#DejaVuSans-50"/>
       <use x="63.623047" xlink:href="#DejaVuSans-48"/>
      </g>
     </g>
    </g>
    <g id="xtick_8">
     <g id="line2d_19">
      <g>
       <use style="stroke:#000000;stroke-width:0.8;" x="405.277841" xlink:href="#m6e42ab7b79" y="180.864"/>
      </g>
     </g>
     <g id="text_18">
      <!-- 0 -->
      <g transform="translate(402.096591 195.462437)scale(0.1 -0.1)">
       <use xlink:href="#DejaVuSans-48"/>
      </g>
     </g>
    </g>
    <g id="text_19">
     <!-- mapping score -->
     <g transform="translate(304.721094 209.140562)scale(0.1 -0.1)">
      <use xlink:href="#DejaVuSans-109"/>
      <use x="97.412109" xlink:href="#DejaVuSans-97"/>
      <use x="158.691406" xlink:href="#DejaVuSans-112"/>
      <use x="222.167969" xlink:href="#DejaVuSans-112"/>
      <use x="285.644531" xlink:href="#DejaVuSans-105"/>
      <use x="313.427734" xlink:href="#DejaVuSans-110"/>
      <use x="376.806641" xlink:href="#DejaVuSans-103"/>
      <use x="440.283203" xlink:href="#DejaVuSans-32"/>
      <use x="472.070312" xlink:href="#DejaVuSans-115"/>
      <use x="524.169922" xlink:href="#DejaVuSans-99"/>
      <use x="579.150391" xlink:href="#DejaVuSans-111"/>
      <use x="640.332031" xlink:href="#DejaVuSans-114"/>
      <use x="681.414062" xlink:href="#DejaVuSans-101"/>
     </g>
    </g>
   </g>
   <g id="matplotlib.axis_4">
    <g id="ytick_6">
     <g id="line2d_20">
      <g>
       <use style="stroke:#000000;stroke-width:0.8;" x="272.11875" xlink:href="#m2b60faa96b" y="158.197117"/>
      </g>
     </g>
     <g id="text_20">
      <!-- 0.900 -->
      <g transform="translate(236.490625 161.996336)scale(0.1 -0.1)">
       <use xlink:href="#DejaVuSans-48"/>
       <use x="63.623047" xlink:href="#DejaVuSans-46"/>
       <use x="95.410156" xlink:href="#DejaVuSans-57"/>
       <use x="159.033203" xlink:href="#DejaVuSans-48"/>
       <use x="222.65625" xlink:href="#DejaVuSans-48"/>
      </g>
     </g>
    </g>
    <g id="ytick_7">
     <g id="line2d_21">
      <g>
       <use style="stroke:#000000;stroke-width:0.8;" x="272.11875" xlink:href="#m2b60faa96b" y="132.727059"/>
      </g>
     </g>
     <g id="text_21">
      <!-- 0.925 -->
      <defs>
       <path d="M 10.796875 72.90625 
L 49.515625 72.90625 
L 49.515625 64.59375 
L 19.828125 64.59375 
L 19.828125 46.734375 
Q 21.96875 47.46875 24.109375 47.828125 
Q 26.265625 48.1875 28.421875 48.1875 
Q 40.625 48.1875 47.75 41.5 
Q 54.890625 34.8125 54.890625 23.390625 
Q 54.890625 11.625 47.5625 5.09375 
Q 40.234375 -1.421875 26.90625 -1.421875 
Q 22.3125 -1.421875 17.546875 -0.640625 
Q 12.796875 0.140625 7.71875 1.703125 
L 7.71875 11.625 
Q 12.109375 9.234375 16.796875 8.0625 
Q 21.484375 6.890625 26.703125 6.890625 
Q 35.15625 6.890625 40.078125 11.328125 
Q 45.015625 15.765625 45.015625 23.390625 
Q 45.015625 31 40.078125 35.4375 
Q 35.15625 39.890625 26.703125 39.890625 
Q 22.75 39.890625 18.8125 39.015625 
Q 14.890625 38.140625 10.796875 36.28125 
z
" id="DejaVuSans-53"/>
      </defs>
      <g transform="translate(236.490625 136.526278)scale(0.1 -0.1)">
       <use xlink:href="#DejaVuSans-48"/>
       <use x="63.623047" xlink:href="#DejaVuSans-46"/>
       <use x="95.410156" xlink:href="#DejaVuSans-57"/>
       <use x="159.033203" xlink:href="#DejaVuSans-50"/>
       <use x="222.65625" xlink:href="#DejaVuSans-53"/>
      </g>
     </g>
    </g>
    <g id="ytick_8">
     <g id="line2d_22">
      <g>
       <use style="stroke:#000000;stroke-width:0.8;" x="272.11875" xlink:href="#m2b60faa96b" y="107.257001"/>
      </g>
     </g>
     <g id="text_22">
      <!-- 0.950 -->
      <g transform="translate(236.490625 111.056219)scale(0.1 -0.1)">
       <use xlink:href="#DejaVuSans-48"/>
       <use x="63.623047" xlink:href="#DejaVuSans-46"/>
       <use x="95.410156" xlink:href="#DejaVuSans-57"/>
       <use x="159.033203" xlink:href="#DejaVuSans-53"/>
       <use x="222.65625" xlink:href="#DejaVuSans-48"/>
      </g>
     </g>
    </g>
    <g id="ytick_9">
     <g id="line2d_23">
      <g>
       <use style="stroke:#000000;stroke-width:0.8;" x="272.11875" xlink:href="#m2b60faa96b" y="81.786943"/>
      </g>
     </g>
     <g id="text_23">
      <!-- 0.975 -->
      <defs>
       <path d="M 8.203125 72.90625 
L 55.078125 72.90625 
L 55.078125 68.703125 
L 28.609375 0 
L 18.3125 0 
L 43.21875 64.59375 
L 8.203125 64.59375 
z
" id="DejaVuSans-55"/>
      </defs>
      <g transform="translate(236.490625 85.586161)scale(0.1 -0.1)">
       <use xlink:href="#DejaVuSans-48"/>
       <use x="63.623047" xlink:href="#DejaVuSans-46"/>
       <use x="95.410156" xlink:href="#DejaVuSans-57"/>
       <use x="159.033203" xlink:href="#DejaVuSans-55"/>
       <use x="222.65625" xlink:href="#DejaVuSans-53"/>
      </g>
     </g>
    </g>
    <g id="ytick_10">
     <g id="line2d_24">
      <g>
       <use style="stroke:#000000;stroke-width:0.8;" x="272.11875" xlink:href="#m2b60faa96b" y="56.316884"/>
      </g>
     </g>
     <g id="text_24">
      <!-- 1.000 -->
      <g transform="translate(236.490625 60.116103)scale(0.1 -0.1)">
       <use xlink:href="#DejaVuSans-49"/>
       <use x="63.623047" xlink:href="#DejaVuSans-46"/>
       <use x="95.410156" xlink:href="#DejaVuSans-48"/>
       <use x="159.033203" xlink:href="#DejaVuSans-48"/>
       <use x="222.65625" xlink:href="#DejaVuSans-48"/>
      </g>
     </g>
    </g>
    <g id="text_25">
     <!-- cumulative precision -->
     <g transform="translate(230.410937 167.681219)rotate(-90)scale(0.1 -0.1)">
      <use xlink:href="#DejaVuSans-99"/>
      <use x="54.980469" xlink:href="#DejaVuSans-117"/>
      <use x="118.359375" xlink:href="#DejaVuSans-109"/>
      <use x="215.771484" xlink:href="#DejaVuSans-117"/>
      <use x="279.150391" xlink:href="#DejaVuSans-108"/>
      <use x="306.933594" xlink:href="#DejaVuSans-97"/>
      <use x="368.212891" xlink:href="#DejaVuSans-116"/>
      <use x="407.421875" xlink:href="#DejaVuSans-105"/>
      <use x="435.205078" xlink:href="#DejaVuSans-118"/>
      <use x="494.384766" xlink:href="#DejaVuSans-101"/>
      <use x="555.908203" xlink:href="#DejaVuSans-32"/>
      <use x="587.695312" xlink:href="#DejaVuSans-112"/>
      <use x="651.171875" xlink:href="#DejaVuSans-114"/>
      <use x="692.253906" xlink:href="#DejaVuSans-101"/>
      <use x="753.777344" xlink:href="#DejaVuSans-99"/>
      <use x="808.757812" xlink:href="#DejaVuSans-105"/>
      <use x="836.541016" xlink:href="#DejaVuSans-115"/>
      <use x="888.640625" xlink:href="#DejaVuSans-105"/>
      <use x="916.423828" xlink:href="#DejaVuSans-111"/>
      <use x="977.605469" xlink:href="#DejaVuSans-110"/>
     </g>
    </g>
   </g>
   <g id="line2d_25">
    <path clip-path="url(#p6a0c8d3c5a)" d="M 278.459659 56.330885 
L 280.573295 56.330877 
L 282.686932 56.330824 
L 284.800568 56.330807 
L 286.914205 56.330788 
L 289.027841 56.330648 
L 291.141477 56.330637 
L 293.255114 56.330566 
L 295.36875 56.330523 
L 297.482386 56.330471 
L 299.596023 56.330433 
L 301.709659 56.330407 
L 303.823295 56.330364 
L 305.936932 56.33034 
L 308.050568 56.330311 
L 310.164205 56.330285 
L 312.277841 56.330253 
L 314.391477 56.33023 
L 316.505114 56.330207 
L 318.61875 56.330182 
L 320.732386 56.342202 
L 322.846023 56.342188 
L 324.959659 56.342185 
L 327.073295 56.342177 
L 329.186932 56.342172 
L 331.300568 56.342161 
L 333.414205 56.342155 
L 335.527841 56.342142 
L 337.641477 56.342137 
L 339.755114 56.342127 
L 341.86875 56.37339 
L 343.982386 56.373379 
L 346.096023 56.373364 
L 348.209659 56.373121 
L 350.323295 56.373107 
L 352.436932 56.372992 
L 354.550568 56.37293 
L 356.664205 56.372879 
L 358.777841 56.385254 
L 360.891477 56.385186 
L 363.005114 56.397551 
L 365.11875 56.397499 
L 367.232386 56.397471 
L 369.346023 56.409834 
L 371.459659 56.409776 
L 373.573295 56.409707 
L 375.686932 56.422031 
L 377.800568 56.421972 
L 379.914205 56.42193 
L 382.027841 56.421896 
L 384.141477 56.421855 
L 386.255114 56.427967 
L 388.36875 56.452579 
L 390.482386 56.526433 
L 392.596023 56.550996 
L 394.709659 56.575572 
L 396.823295 56.575497 
L 398.936932 56.661422 
L 401.050568 56.673593 
L 403.164205 56.753263 
L 405.277841 141.971217 
" style="fill:none;stroke:#1f77b4;stroke-linecap:square;stroke-width:1.5;"/>
   </g>
   <g id="line2d_26">
    <path clip-path="url(#p6a0c8d3c5a)" d="M 316.505114 99.750514 
L 318.61875 99.750514 
L 320.732386 100.703921 
L 322.846023 100.77597 
L 324.959659 100.830909 
L 327.073295 100.867474 
L 329.186932 100.918455 
L 331.300568 101.34714 
L 333.414205 101.687079 
L 335.527841 101.685381 
L 337.641477 102.363844 
L 339.755114 103.077612 
L 341.86875 104.7695 
L 343.982386 104.7695 
L 346.096023 104.7695 
L 348.209659 104.833012 
L 350.323295 104.878291 
L 352.436932 104.938514 
L 354.550568 105.622136 
L 356.664205 107.430709 
L 358.777841 107.498061 
L 360.891477 107.602427 
L 363.005114 107.602427 
L 365.11875 107.602427 
L 367.232386 107.716157 
L 369.346023 108.032799 
L 371.459659 108.139873 
L 373.573295 108.514344 
L 375.686932 108.580847 
L 377.800568 108.580847 
L 379.914205 108.974017 
L 382.027841 109.539674 
L 384.141477 109.539674 
L 386.255114 109.539674 
L 388.36875 110.157237 
L 390.482386 110.783023 
L 392.596023 113.71866 
L 394.709659 113.771693 
L 396.823295 113.898636 
L 398.936932 114.593423 
L 401.050568 116.60779 
L 403.164205 169.450257 
L 405.277841 174.933818 
" style="fill:none;stroke:#ff7f0e;stroke-linecap:square;stroke-width:1.5;"/>
   </g>
   <g id="patch_9">
    <path d="M 272.11875 180.864 
L 272.11875 50.4 
" style="fill:none;stroke:#000000;stroke-linecap:square;stroke-linejoin:miter;stroke-width:0.8;"/>
   </g>
   <g id="patch_10">
    <path d="M 411.61875 180.864 
L 411.61875 50.4 
" style="fill:none;stroke:#000000;stroke-linecap:square;stroke-linejoin:miter;stroke-width:0.8;"/>
   </g>
   <g id="patch_11">
    <path d="M 272.11875 180.864 
L 411.61875 180.864 
" style="fill:none;stroke:#000000;stroke-linecap:square;stroke-linejoin:miter;stroke-width:0.8;"/>
   </g>
   <g id="patch_12">
    <path d="M 272.11875 50.4 
L 411.61875 50.4 
" style="fill:none;stroke:#000000;stroke-linecap:square;stroke-linejoin:miter;stroke-width:0.8;"/>
   </g>
   <g id="text_26">
    <!-- dataset2 -->
    <g transform="translate(315.366562 44.4)scale(0.12 -0.12)">
     <use xlink:href="#DejaVuSans-100"/>
     <use x="63.476562" xlink:href="#DejaVuSans-97"/>
     <use x="124.755859" xlink:href="#DejaVuSans-116"/>
     <use x="163.964844" xlink:href="#DejaVuSans-97"/>
     <use x="225.244141" xlink:href="#DejaVuSans-115"/>
     <use x="277.34375" xlink:href="#DejaVuSans-101"/>
     <use x="338.867188" xlink:href="#DejaVuSans-116"/>
     <use x="378.076172" xlink:href="#DejaVuSans-50"/>
    </g>
   </g>
   <g id="legend_2">
    <g id="patch_13">
     <path d="M 279.11875 175.864 
L 350.978125 175.864 
Q 352.978125 175.864 352.978125 173.864 
L 352.978125 145.50775 
Q 352.978125 143.50775 350.978125 143.50775 
L 279.11875 143.50775 
Q 277.11875 143.50775 277.11875 145.50775 
L 277.11875 173.864 
Q 277.11875 175.864 279.11875 175.864 
z
" style="fill:#ffffff;opacity:0.8;stroke:#cccccc;stroke-linejoin:miter;"/>
    </g>
    <g id="line2d_27">
     <path d="M 281.11875 151.606187 
L 301.11875 151.606187 
" style="fill:none;stroke:#1f77b4;stroke-linecap:square;stroke-width:1.5;"/>
    </g>
    <g id="line2d_28"/>
    <g id="text_27">
     <!-- bwa -->
     <g transform="translate(309.11875 155.106187)scale(0.1 -0.1)">
      <use xlink:href="#DejaVuSans-98"/>
      <use x="63.476562" xlink:href="#DejaVuSans-119"/>
      <use x="145.263672" xlink:href="#DejaVuSans-97"/>
     </g>
    </g>
    <g id="line2d_29">
     <path d="M 281.11875 166.284312 
L 301.11875 166.284312 
" style="fill:none;stroke:#ff7f0e;stroke-linecap:square;stroke-width:1.5;"/>
    </g>
    <g id="line2d_30"/>
    <g id="text_28">
     <!-- bowtie2 -->
     <g transform="translate(309.11875 169.784312)scale(0.1 -0.1)">
      <use xlink:href="#DejaVuSans-98"/>
      <use x="63.476562" xlink:href="#DejaVuSans-111"/>
      <use x="124.658203" xlink:href="#DejaVuSans-119"/>
      <use x="206.445312" xlink:href="#DejaVuSans-116"/>
      <use x="245.654297" xlink:href="#DejaVuSans-105"/>
      <use x="273.4375" xlink:href="#DejaVuSans-101"/>
      <use x="334.960938" xlink:href="#DejaVuSans-50"/>
     </g>
    </g>
   </g>
  </g>
  <g id="axes_3">
   <g id="patch_14">
    <path d="M 481.36875 180.864 
L 620.86875 180.864 
L 620.86875 50.4 
L 481.36875 50.4 
z
" style="fill:#ffffff;"/>
   </g>
   <g id="matplotlib.axis_5">
    <g id="xtick_9">
     <g id="line2d_31">
      <g>
       <use style="stroke:#000000;stroke-width:0.8;" x="487.709659" xlink:href="#m6e42ab7b79" y="180.864"/>
      </g>
     </g>
     <g id="text_29">
      <!-- 60 -->
      <g transform="translate(481.347159 195.462437)scale(0.1 -0.1)">
       <use xlink:href="#DejaVuSans-54"/>
       <use x="63.623047" xlink:href="#DejaVuSans-48"/>
      </g>
     </g>
    </g>
    <g id="xtick_10">
     <g id="line2d_32">
      <g>
       <use style="stroke:#000000;stroke-width:0.8;" x="529.982386" xlink:href="#m6e42ab7b79" y="180.864"/>
      </g>
     </g>
     <g id="text_30">
      <!-- 40 -->
      <g transform="translate(523.619886 195.462437)scale(0.1 -0.1)">
       <use xlink:href="#DejaVuSans-52"/>
       <use x="63.623047" xlink:href="#DejaVuSans-48"/>
      </g>
     </g>
    </g>
    <g id="xtick_11">
     <g id="line2d_33">
      <g>
       <use style="stroke:#000000;stroke-width:0.8;" x="572.255114" xlink:href="#m6e42ab7b79" y="180.864"/>
      </g>
     </g>
     <g id="text_31">
      <!-- 20 -->
      <g transform="translate(565.892614 195.462437)scale(0.1 -0.1)">
       <use xlink:href="#DejaVuSans-50"/>
       <use x="63.623047" xlink:href="#DejaVuSans-48"/>
      </g>
     </g>
    </g>
    <g id="xtick_12">
     <g id="line2d_34">
      <g>
       <use style="stroke:#000000;stroke-width:0.8;" x="614.527841" xlink:href="#m6e42ab7b79" y="180.864"/>
      </g>
     </g>
     <g id="text_32">
      <!-- 0 -->
      <g transform="translate(611.346591 195.462437)scale(0.1 -0.1)">
       <use xlink:href="#DejaVuSans-48"/>
      </g>
     </g>
    </g>
    <g id="text_33">
     <!-- mapping score -->
     <g transform="translate(513.971094 209.140562)scale(0.1 -0.1)">
      <use xlink:href="#DejaVuSans-109"/>
      <use x="97.412109" xlink:href="#DejaVuSans-97"/>
      <use x="158.691406" xlink:href="#DejaVuSans-112"/>
      <use x="222.167969" xlink:href="#DejaVuSans-112"/>
      <use x="285.644531" xlink:href="#DejaVuSans-105"/>
      <use x="313.427734" xlink:href="#DejaVuSans-110"/>
      <use x="376.806641" xlink:href="#DejaVuSans-103"/>
      <use x="440.283203" xlink:href="#DejaVuSans-32"/>
      <use x="472.070312" xlink:href="#DejaVuSans-115"/>
      <use x="524.169922" xlink:href="#DejaVuSans-99"/>
      <use x="579.150391" xlink:href="#DejaVuSans-111"/>
      <use x="640.332031" xlink:href="#DejaVuSans-114"/>
      <use x="681.414062" xlink:href="#DejaVuSans-101"/>
     </g>
    </g>
   </g>
   <g id="matplotlib.axis_6">
    <g id="ytick_11">
     <g id="line2d_35">
      <g>
       <use style="stroke:#000000;stroke-width:0.8;" x="481.36875" xlink:href="#m2b60faa96b" y="175.066312"/>
      </g>
     </g>
     <g id="text_34">
      <!-- 0.90 -->
      <g transform="translate(452.103125 178.86553)scale(0.1 -0.1)">
       <use xlink:href="#DejaVuSans-48"/>
       <use x="63.623047" xlink:href="#DejaVuSans-46"/>
       <use x="95.410156" xlink:href="#DejaVuSans-57"/>
       <use x="159.033203" xlink:href="#DejaVuSans-48"/>
      </g>
     </g>
    </g>
    <g id="ytick_12">
     <g id="line2d_36">
      <g>
       <use style="stroke:#000000;stroke-width:0.8;" x="481.36875" xlink:href="#m2b60faa96b" y="151.319086"/>
      </g>
     </g>
     <g id="text_35">
      <!-- 0.92 -->
      <g transform="translate(452.103125 155.118304)scale(0.1 -0.1)">
       <use xlink:href="#DejaVuSans-48"/>
       <use x="63.623047" xlink:href="#DejaVuSans-46"/>
       <use x="95.410156" xlink:href="#DejaVuSans-57"/>
       <use x="159.033203" xlink:href="#DejaVuSans-50"/>
      </g>
     </g>
    </g>
    <g id="ytick_13">
     <g id="line2d_37">
      <g>
       <use style="stroke:#000000;stroke-width:0.8;" x="481.36875" xlink:href="#m2b60faa96b" y="127.57186"/>
      </g>
     </g>
     <g id="text_36">
      <!-- 0.94 -->
      <g transform="translate(452.103125 131.371078)scale(0.1 -0.1)">
       <use xlink:href="#DejaVuSans-48"/>
       <use x="63.623047" xlink:href="#DejaVuSans-46"/>
       <use x="95.410156" xlink:href="#DejaVuSans-57"/>
       <use x="159.033203" xlink:href="#DejaVuSans-52"/>
      </g>
     </g>
    </g>
    <g id="ytick_14">
     <g id="line2d_38">
      <g>
       <use style="stroke:#000000;stroke-width:0.8;" x="481.36875" xlink:href="#m2b60faa96b" y="103.824634"/>
      </g>
     </g>
     <g id="text_37">
      <!-- 0.96 -->
      <g transform="translate(452.103125 107.623853)scale(0.1 -0.1)">
       <use xlink:href="#DejaVuSans-48"/>
       <use x="63.623047" xlink:href="#DejaVuSans-46"/>
       <use x="95.410156" xlink:href="#DejaVuSans-57"/>
       <use x="159.033203" xlink:href="#DejaVuSans-54"/>
      </g>
     </g>
    </g>
    <g id="ytick_15">
     <g id="line2d_39">
      <g>
       <use style="stroke:#000000;stroke-width:0.8;" x="481.36875" xlink:href="#m2b60faa96b" y="80.077408"/>
      </g>
     </g>
     <g id="text_38">
      <!-- 0.98 -->
      <g transform="translate(452.103125 83.876627)scale(0.1 -0.1)">
       <use xlink:href="#DejaVuSans-48"/>
       <use x="63.623047" xlink:href="#DejaVuSans-46"/>
       <use x="95.410156" xlink:href="#DejaVuSans-57"/>
       <use x="159.033203" xlink:href="#DejaVuSans-56"/>
      </g>
     </g>
    </g>
    <g id="ytick_16">
     <g id="line2d_40">
      <g>
       <use style="stroke:#000000;stroke-width:0.8;" x="481.36875" xlink:href="#m2b60faa96b" y="56.330182"/>
      </g>
     </g>
     <g id="text_39">
      <!-- 1.00 -->
      <g transform="translate(452.103125 60.129401)scale(0.1 -0.1)">
       <use xlink:href="#DejaVuSans-49"/>
       <use x="63.623047" xlink:href="#DejaVuSans-46"/>
       <use x="95.410156" xlink:href="#DejaVuSans-48"/>
       <use x="159.033203" xlink:href="#DejaVuSans-48"/>
      </g>
     </g>
    </g>
    <g id="text_40">
     <!-- cumulative precision -->
     <g transform="translate(446.023438 167.681219)rotate(-90)scale(0.1 -0.1)">
      <use xlink:href="#DejaVuSans-99"/>
      <use x="54.980469" xlink:href="#DejaVuSans-117"/>
      <use x="118.359375" xlink:href="#DejaVuSans-109"/>
      <use x="215.771484" xlink:href="#DejaVuSans-117"/>
      <use x="279.150391" xlink:href="#DejaVuSans-108"/>
      <use x="306.933594" xlink:href="#DejaVuSans-97"/>
      <use x="368.212891" xlink:href="#DejaVuSans-116"/>
      <use x="407.421875" xlink:href="#DejaVuSans-105"/>
      <use x="435.205078" xlink:href="#DejaVuSans-118"/>
      <use x="494.384766" xlink:href="#DejaVuSans-101"/>
      <use x="555.908203" xlink:href="#DejaVuSans-32"/>
      <use x="587.695312" xlink:href="#DejaVuSans-112"/>
      <use x="651.171875" xlink:href="#DejaVuSans-114"/>
      <use x="692.253906" xlink:href="#DejaVuSans-101"/>
      <use x="753.777344" xlink:href="#DejaVuSans-99"/>
      <use x="808.757812" xlink:href="#DejaVuSans-105"/>
      <use x="836.541016" xlink:href="#DejaVuSans-115"/>
      <use x="888.640625" xlink:href="#DejaVuSans-105"/>
      <use x="916.423828" xlink:href="#DejaVuSans-111"/>
      <use x="977.605469" xlink:href="#DejaVuSans-110"/>
     </g>
    </g>
   </g>
   <g id="line2d_41">
    <path clip-path="url(#pffec14dfe4)" d="M 487.709659 56.330182 
L 489.823295 56.330182 
L 491.936932 56.330182 
L 494.050568 56.330182 
L 496.164205 56.330182 
L 498.277841 56.330182 
L 500.391477 56.330182 
L 502.505114 56.330182 
L 504.61875 56.330182 
L 506.732386 56.330182 
L 508.846023 56.330182 
L 510.959659 56.330182 
L 513.073295 56.330182 
L 515.186932 56.330182 
L 517.300568 56.330182 
L 519.414205 56.330182 
L 521.527841 56.330182 
L 523.641477 56.330182 
L 525.755114 56.330182 
L 527.86875 56.330182 
L 529.982386 56.330182 
L 532.096023 56.330182 
L 534.209659 56.330182 
L 536.323295 56.330182 
L 538.436932 56.330182 
L 540.550568 56.330182 
L 542.664205 56.330182 
L 544.777841 56.330182 
L 546.891477 56.330182 
L 549.005114 56.330182 
L 551.11875 56.337425 
L 553.232386 56.337424 
L 555.346023 56.337423 
L 557.459659 56.337383 
L 559.573295 56.337382 
L 561.686932 56.337369 
L 563.800568 56.337362 
L 565.914205 56.337355 
L 568.027841 56.337347 
L 570.141477 56.337343 
L 572.255114 56.33734 
L 574.36875 56.337337 
L 576.482386 56.337334 
L 578.596023 56.337331 
L 580.709659 56.337329 
L 582.823295 56.337325 
L 584.936932 56.337323 
L 587.050568 56.33732 
L 589.164205 56.344455 
L 591.277841 56.34445 
L 593.391477 56.365836 
L 595.505114 56.408576 
L 597.61875 56.437031 
L 599.732386 56.46544 
L 601.846023 56.479639 
L 603.959659 56.49383 
L 606.073295 56.515126 
L 608.186932 56.678503 
L 610.300568 56.721039 
L 612.414205 56.749292 
L 614.527841 147.076277 
" style="fill:none;stroke:#1f77b4;stroke-linecap:square;stroke-width:1.5;"/>
   </g>
   <g id="line2d_42">
    <path clip-path="url(#pffec14dfe4)" d="M 525.755114 106.733666 
L 527.86875 106.733666 
L 529.982386 107.944781 
L 532.096023 108.042889 
L 534.209659 108.194321 
L 536.323295 108.261886 
L 538.436932 108.509782 
L 540.550568 108.841347 
L 542.664205 109.362854 
L 544.777841 109.360894 
L 546.891477 109.822884 
L 549.005114 110.847639 
L 551.11875 112.532617 
L 553.232386 112.532617 
L 555.346023 112.532617 
L 557.459659 112.607536 
L 559.573295 112.735849 
L 561.686932 112.886472 
L 563.800568 113.340018 
L 565.914205 114.685032 
L 568.027841 114.830761 
L 570.141477 115.005776 
L 572.255114 115.005776 
L 574.36875 115.005776 
L 576.482386 115.264963 
L 578.596023 115.576094 
L 580.709659 115.591415 
L 582.823295 115.673413 
L 584.936932 115.773759 
L 587.050568 115.773759 
L 589.164205 116.558113 
L 591.277841 116.976055 
L 593.391477 116.976055 
L 595.505114 116.976055 
L 597.61875 117.701503 
L 599.732386 118.682538 
L 601.846023 122.019671 
L 603.959659 122.05057 
L 606.073295 122.123901 
L 608.186932 122.741201 
L 610.300568 124.766684 
L 612.414205 169.629125 
L 614.527841 174.933818 
" style="fill:none;stroke:#ff7f0e;stroke-linecap:square;stroke-width:1.5;"/>
   </g>
   <g id="patch_15">
    <path d="M 481.36875 180.864 
L 481.36875 50.4 
" style="fill:none;stroke:#000000;stroke-linecap:square;stroke-linejoin:miter;stroke-width:0.8;"/>
   </g>
   <g id="patch_16">
    <path d="M 620.86875 180.864 
L 620.86875 50.4 
" style="fill:none;stroke:#000000;stroke-linecap:square;stroke-linejoin:miter;stroke-width:0.8;"/>
   </g>
   <g id="patch_17">
    <path d="M 481.36875 180.864 
L 620.86875 180.864 
" style="fill:none;stroke:#000000;stroke-linecap:square;stroke-linejoin:miter;stroke-width:0.8;"/>
   </g>
   <g id="patch_18">
    <path d="M 481.36875 50.4 
L 620.86875 50.4 
" style="fill:none;stroke:#000000;stroke-linecap:square;stroke-linejoin:miter;stroke-width:0.8;"/>
   </g>
   <g id="text_41">
    <!-- dataset3 -->
    <defs>
     <path d="M 40.578125 39.3125 
Q 47.65625 37.796875 51.625 33 
Q 55.609375 28.21875 55.609375 21.1875 
Q 55.609375 10.40625 48.1875 4.484375 
Q 40.765625 -1.421875 27.09375 -1.421875 
Q 22.515625 -1.421875 17.65625 -0.515625 
Q 12.796875 0.390625 7.625 2.203125 
L 7.625 11.71875 
Q 11.71875 9.328125 16.59375 8.109375 
Q 21.484375 6.890625 26.8125 6.890625 
Q 36.078125 6.890625 40.9375 10.546875 
Q 45.796875 14.203125 45.796875 21.1875 
Q 45.796875 27.640625 41.28125 31.265625 
Q 36.765625 34.90625 28.71875 34.90625 
L 20.21875 34.90625 
L 20.21875 43.015625 
L 29.109375 43.015625 
Q 36.375 43.015625 40.234375 45.921875 
Q 44.09375 48.828125 44.09375 54.296875 
Q 44.09375 59.90625 40.109375 62.90625 
Q 36.140625 65.921875 28.71875 65.921875 
Q 24.65625 65.921875 20.015625 65.03125 
Q 15.375 64.15625 9.8125 62.3125 
L 9.8125 71.09375 
Q 15.4375 72.65625 20.34375 73.4375 
Q 25.25 74.21875 29.59375 74.21875 
Q 40.828125 74.21875 47.359375 69.109375 
Q 53.90625 64.015625 53.90625 55.328125 
Q 53.90625 49.265625 50.4375 45.09375 
Q 46.96875 40.921875 40.578125 39.3125 
z
" id="DejaVuSans-51"/>
    </defs>
    <g transform="translate(524.616563 44.4)scale(0.12 -0.12)">
     <use xlink:href="#DejaVuSans-100"/>
     <use x="63.476562" xlink:href="#DejaVuSans-97"/>
     <use x="124.755859" xlink:href="#DejaVuSans-116"/>
     <use x="163.964844" xlink:href="#DejaVuSans-97"/>
     <use x="225.244141" xlink:href="#DejaVuSans-115"/>
     <use x="277.34375" xlink:href="#DejaVuSans-101"/>
     <use x="338.867188" xlink:href="#DejaVuSans-116"/>
     <use x="378.076172" xlink:href="#DejaVuSans-51"/>
    </g>
   </g>
   <g id="legend_3">
    <g id="patch_19">
     <path d="M 488.36875 175.864 
L 560.228125 175.864 
Q 562.228125 175.864 562.228125 173.864 
L 562.228125 145.50775 
Q 562.228125 143.50775 560.228125 143.50775 
L 488.36875 143.50775 
Q 486.36875 143.50775 486.36875 145.50775 
L 486.36875 173.864 
Q 486.36875 175.864 488.36875 175.864 
z
" style="fill:#ffffff;opacity:0.8;stroke:#cccccc;stroke-linejoin:miter;"/>
    </g>
    <g id="line2d_43">
     <path d="M 490.36875 151.606187 
L 510.36875 151.606187 
" style="fill:none;stroke:#1f77b4;stroke-linecap:square;stroke-width:1.5;"/>
    </g>
    <g id="line2d_44"/>
    <g id="text_42">
     <!-- bwa -->
     <g transform="translate(518.36875 155.106187)scale(0.1 -0.1)">
      <use xlink:href="#DejaVuSans-98"/>
      <use x="63.476562" xlink:href="#DejaVuSans-119"/>
      <use x="145.263672" xlink:href="#DejaVuSans-97"/>
     </g>
    </g>
    <g id="line2d_45">
     <path d="M 490.36875 166.284312 
L 510.36875 166.284312 
" style="fill:none;stroke:#ff7f0e;stroke-linecap:square;stroke-width:1.5;"/>
    </g>
    <g id="line2d_46"/>
    <g id="text_43">
     <!-- bowtie2 -->
     <g transform="translate(518.36875 169.784312)scale(0.1 -0.1)">
      <use xlink:href="#DejaVuSans-98"/>
      <use x="63.476562" xlink:href="#DejaVuSans-111"/>
      <use x="124.658203" xlink:href="#DejaVuSans-119"/>
      <use x="206.445312" xlink:href="#DejaVuSans-116"/>
      <use x="245.654297" xlink:href="#DejaVuSans-105"/>
      <use x="273.4375" xlink:href="#DejaVuSans-101"/>
      <use x="334.960938" xlink:href="#DejaVuSans-50"/>
     </g>
    </g>
   </g>
  </g>
  <g id="axes_4">
   <g id="patch_20">
    <path d="M 62.86875 376.56 
L 202.36875 376.56 
L 202.36875 246.096 
L 62.86875 246.096 
z
" style="fill:#ffffff;"/>
   </g>
   <g id="matplotlib.axis_7">
    <g id="xtick_13">
     <g id="line2d_47">
      <g>
       <use style="stroke:#000000;stroke-width:0.8;" x="69.209659" xlink:href="#m6e42ab7b79" y="376.56"/>
      </g>
     </g>
     <g id="text_44">
      <!-- 60 -->
      <g transform="translate(62.847159 391.158437)scale(0.1 -0.1)">
       <use xlink:href="#DejaVuSans-54"/>
       <use x="63.623047" xlink:href="#DejaVuSans-48"/>
      </g>
     </g>
    </g>
    <g id="xtick_14">
     <g id="line2d_48">
      <g>
       <use style="stroke:#000000;stroke-width:0.8;" x="111.482386" xlink:href="#m6e42ab7b79" y="376.56"/>
      </g>
     </g>
     <g id="text_45">
      <!-- 40 -->
      <g transform="translate(105.119886 391.158437)scale(0.1 -0.1)">
       <use xlink:href="#DejaVuSans-52"/>
       <use x="63.623047" xlink:href="#DejaVuSans-48"/>
      </g>
     </g>
    </g>
    <g id="xtick_15">
     <g id="line2d_49">
      <g>
       <use style="stroke:#000000;stroke-width:0.8;" x="153.755114" xlink:href="#m6e42ab7b79" y="376.56"/>
      </g>
     </g>
     <g id="text_46">
      <!-- 20 -->
      <g transform="translate(147.392614 391.158437)scale(0.1 -0.1)">
       <use xlink:href="#DejaVuSans-50"/>
       <use x="63.623047" xlink:href="#DejaVuSans-48"/>
      </g>
     </g>
    </g>
    <g id="xtick_16">
     <g id="line2d_50">
      <g>
       <use style="stroke:#000000;stroke-width:0.8;" x="196.027841" xlink:href="#m6e42ab7b79" y="376.56"/>
      </g>
     </g>
     <g id="text_47">
      <!-- 0 -->
      <g transform="translate(192.846591 391.158437)scale(0.1 -0.1)">
       <use xlink:href="#DejaVuSans-48"/>
      </g>
     </g>
    </g>
    <g id="text_48">
     <!-- mapping score -->
     <g transform="translate(95.471094 404.836562)scale(0.1 -0.1)">
      <use xlink:href="#DejaVuSans-109"/>
      <use x="97.412109" xlink:href="#DejaVuSans-97"/>
      <use x="158.691406" xlink:href="#DejaVuSans-112"/>
      <use x="222.167969" xlink:href="#DejaVuSans-112"/>
      <use x="285.644531" xlink:href="#DejaVuSans-105"/>
      <use x="313.427734" xlink:href="#DejaVuSans-110"/>
      <use x="376.806641" xlink:href="#DejaVuSans-103"/>
      <use x="440.283203" xlink:href="#DejaVuSans-32"/>
      <use x="472.070312" xlink:href="#DejaVuSans-115"/>
      <use x="524.169922" xlink:href="#DejaVuSans-99"/>
      <use x="579.150391" xlink:href="#DejaVuSans-111"/>
      <use x="640.332031" xlink:href="#DejaVuSans-114"/>
      <use x="681.414062" xlink:href="#DejaVuSans-101"/>
     </g>
    </g>
   </g>
   <g id="matplotlib.axis_8">
    <g id="ytick_17">
     <g id="line2d_51">
      <g>
       <use style="stroke:#000000;stroke-width:0.8;" x="62.86875" xlink:href="#m2b60faa96b" y="369.968603"/>
      </g>
     </g>
     <g id="text_49">
      <!-- 0.9994 -->
      <g transform="translate(20.878125 373.767822)scale(0.1 -0.1)">
       <use xlink:href="#DejaVuSans-48"/>
       <use x="63.623047" xlink:href="#DejaVuSans-46"/>
       <use x="95.410156" xlink:href="#DejaVuSans-57"/>
       <use x="159.033203" xlink:href="#DejaVuSans-57"/>
       <use x="222.65625" xlink:href="#DejaVuSans-57"/>
       <use x="286.279297" xlink:href="#DejaVuSans-52"/>
      </g>
     </g>
    </g>
    <g id="ytick_18">
     <g id="line2d_52">
      <g>
       <use style="stroke:#000000;stroke-width:0.8;" x="62.86875" xlink:href="#m2b60faa96b" y="330.654463"/>
      </g>
     </g>
     <g id="text_50">
      <!-- 0.9996 -->
      <g transform="translate(20.878125 334.453681)scale(0.1 -0.1)">
       <use xlink:href="#DejaVuSans-48"/>
       <use x="63.623047" xlink:href="#DejaVuSans-46"/>
       <use x="95.410156" xlink:href="#DejaVuSans-57"/>
       <use x="159.033203" xlink:href="#DejaVuSans-57"/>
       <use x="222.65625" xlink:href="#DejaVuSans-57"/>
       <use x="286.279297" xlink:href="#DejaVuSans-54"/>
      </g>
     </g>
    </g>
    <g id="ytick_19">
     <g id="line2d_53">
      <g>
       <use style="stroke:#000000;stroke-width:0.8;" x="62.86875" xlink:href="#m2b60faa96b" y="291.340322"/>
      </g>
     </g>
     <g id="text_51">
      <!-- 0.9998 -->
      <g transform="translate(20.878125 295.139541)scale(0.1 -0.1)">
       <use xlink:href="#DejaVuSans-48"/>
       <use x="63.623047" xlink:href="#DejaVuSans-46"/>
       <use x="95.410156" xlink:href="#DejaVuSans-57"/>
       <use x="159.033203" xlink:href="#DejaVuSans-57"/>
       <use x="222.65625" xlink:href="#DejaVuSans-57"/>
       <use x="286.279297" xlink:href="#DejaVuSans-56"/>
      </g>
     </g>
    </g>
    <g id="ytick_20">
     <g id="line2d_54">
      <g>
       <use style="stroke:#000000;stroke-width:0.8;" x="62.86875" xlink:href="#m2b60faa96b" y="252.026182"/>
      </g>
     </g>
     <g id="text_52">
      <!-- 1.0000 -->
      <g transform="translate(20.878125 255.825401)scale(0.1 -0.1)">
       <use xlink:href="#DejaVuSans-49"/>
       <use x="63.623047" xlink:href="#DejaVuSans-46"/>
       <use x="95.410156" xlink:href="#DejaVuSans-48"/>
       <use x="159.033203" xlink:href="#DejaVuSans-48"/>
       <use x="222.65625" xlink:href="#DejaVuSans-48"/>
       <use x="286.279297" xlink:href="#DejaVuSans-48"/>
      </g>
     </g>
    </g>
    <g id="text_53">
     <!-- cumulative recall -->
     <g transform="translate(14.798438 354.43425)rotate(-90)scale(0.1 -0.1)">
      <use xlink:href="#DejaVuSans-99"/>
      <use x="54.980469" xlink:href="#DejaVuSans-117"/>
      <use x="118.359375" xlink:href="#DejaVuSans-109"/>
      <use x="215.771484" xlink:href="#DejaVuSans-117"/>
      <use x="279.150391" xlink:href="#DejaVuSans-108"/>
      <use x="306.933594" xlink:href="#DejaVuSans-97"/>
      <use x="368.212891" xlink:href="#DejaVuSans-116"/>
      <use x="407.421875" xlink:href="#DejaVuSans-105"/>
      <use x="435.205078" xlink:href="#DejaVuSans-118"/>
      <use x="494.384766" xlink:href="#DejaVuSans-101"/>
      <use x="555.908203" xlink:href="#DejaVuSans-32"/>
      <use x="587.695312" xlink:href="#DejaVuSans-114"/>
      <use x="628.777344" xlink:href="#DejaVuSans-101"/>
      <use x="690.300781" xlink:href="#DejaVuSans-99"/>
      <use x="745.28125" xlink:href="#DejaVuSans-97"/>
      <use x="806.560547" xlink:href="#DejaVuSans-108"/>
      <use x="834.34375" xlink:href="#DejaVuSans-108"/>
     </g>
    </g>
   </g>
   <g id="line2d_55">
    <path clip-path="url(#p15fbbf9119)" d="M 69.209659 252.026182 
L 71.323295 252.026182 
L 73.436932 252.026182 
L 75.550568 252.026182 
L 77.664205 252.026182 
L 79.777841 252.026182 
L 81.891477 252.026182 
L 84.005114 252.026182 
L 86.11875 252.026182 
L 88.232386 252.026182 
L 90.346023 252.026182 
L 92.459659 252.026182 
L 94.573295 252.026182 
L 96.686932 252.026182 
L 98.800568 252.026182 
L 100.914205 252.026182 
L 103.027841 252.026182 
L 105.141477 252.026182 
L 107.255114 252.026182 
L 109.36875 252.026182 
L 111.482386 252.026182 
L 113.596023 252.026182 
L 115.709659 252.026182 
L 117.823295 252.026182 
L 119.936932 252.026182 
L 122.050568 252.026182 
L 124.164205 252.026182 
L 126.277841 252.026182 
L 128.391477 252.026182 
L 130.505114 252.026182 
L 132.61875 252.026182 
L 134.732386 252.026182 
L 136.846023 252.026182 
L 138.959659 252.026182 
L 141.073295 252.026182 
L 143.186932 252.026182 
L 145.300568 252.026182 
L 147.414205 252.026182 
L 149.527841 252.026182 
L 151.641477 252.026182 
L 153.755114 252.026182 
L 155.86875 252.026182 
L 157.982386 252.026182 
L 160.096023 252.026182 
L 162.209659 252.026182 
L 164.323295 252.026182 
L 166.436932 252.026182 
L 168.550568 252.026182 
L 170.664205 252.026182 
L 172.777841 252.026182 
L 174.891477 252.026182 
L 177.005114 252.026182 
L 179.11875 252.026182 
L 181.232386 252.026182 
L 183.346023 252.026182 
L 185.459659 252.026182 
L 187.573295 252.026182 
L 189.686932 252.026182 
L 191.800568 252.026182 
L 193.914205 252.026182 
L 196.027841 252.026182 
" style="fill:none;stroke:#1f77b4;stroke-linecap:square;stroke-width:1.5;"/>
   </g>
   <g id="line2d_56">
    <path clip-path="url(#p15fbbf9119)" d="M 107.255114 252.026182 
L 109.36875 252.026182 
L 111.482386 252.026182 
L 113.596023 252.026182 
L 115.709659 252.026182 
L 117.823295 252.026182 
L 119.936932 252.026182 
L 122.050568 252.026182 
L 124.164205 252.026182 
L 126.277841 252.026182 
L 128.391477 252.026182 
L 130.505114 252.026182 
L 132.61875 252.026182 
L 134.732386 252.026182 
L 136.846023 252.026182 
L 138.959659 252.026182 
L 141.073295 252.026182 
L 143.186932 252.026182 
L 145.300568 252.026182 
L 147.414205 252.026182 
L 149.527841 252.026182 
L 151.641477 252.026182 
L 153.755114 252.026182 
L 155.86875 252.026182 
L 157.982386 252.026182 
L 160.096023 252.026182 
L 162.209659 252.026182 
L 164.323295 252.026182 
L 166.436932 252.026182 
L 168.550568 252.026182 
L 170.664205 252.026182 
L 172.777841 252.026182 
L 174.891477 252.026182 
L 177.005114 252.026182 
L 179.11875 252.026182 
L 181.232386 252.026182 
L 183.346023 252.026182 
L 185.459659 252.026182 
L 187.573295 252.026182 
L 189.686932 252.026182 
L 191.800568 252.026182 
L 193.914205 252.026182 
L 196.027841 370.629818 
" style="fill:none;stroke:#ff7f0e;stroke-linecap:square;stroke-width:1.5;"/>
   </g>
   <g id="patch_21">
    <path d="M 62.86875 376.56 
L 62.86875 246.096 
" style="fill:none;stroke:#000000;stroke-linecap:square;stroke-linejoin:miter;stroke-width:0.8;"/>
   </g>
   <g id="patch_22">
    <path d="M 202.36875 376.56 
L 202.36875 246.096 
" style="fill:none;stroke:#000000;stroke-linecap:square;stroke-linejoin:miter;stroke-width:0.8;"/>
   </g>
   <g id="patch_23">
    <path d="M 62.86875 376.56 
L 202.36875 376.56 
" style="fill:none;stroke:#000000;stroke-linecap:square;stroke-linejoin:miter;stroke-width:0.8;"/>
   </g>
   <g id="patch_24">
    <path d="M 62.86875 246.096 
L 202.36875 246.096 
" style="fill:none;stroke:#000000;stroke-linecap:square;stroke-linejoin:miter;stroke-width:0.8;"/>
   </g>
   <g id="text_54">
    <!-- dataset1 -->
    <g transform="translate(106.116562 240.096)scale(0.12 -0.12)">
     <use xlink:href="#DejaVuSans-100"/>
     <use x="63.476562" xlink:href="#DejaVuSans-97"/>
     <use x="124.755859" xlink:href="#DejaVuSans-116"/>
     <use x="163.964844" xlink:href="#DejaVuSans-97"/>
     <use x="225.244141" xlink:href="#DejaVuSans-115"/>
     <use x="277.34375" xlink:href="#DejaVuSans-101"/>
     <use x="338.867188" xlink:href="#DejaVuSans-116"/>
     <use x="378.076172" xlink:href="#DejaVuSans-49"/>
    </g>
   </g>
   <g id="legend_4">
    <g id="patch_25">
     <path d="M 69.86875 371.56 
L 141.728125 371.56 
Q 143.728125 371.56 143.728125 369.56 
L 143.728125 341.20375 
Q 143.728125 339.20375 141.728125 339.20375 
L 69.86875 339.20375 
Q 67.86875 339.20375 67.86875 341.20375 
L 67.86875 369.56 
Q 67.86875 371.56 69.86875 371.56 
z
" style="fill:#ffffff;opacity:0.8;stroke:#cccccc;stroke-linejoin:miter;"/>
    </g>
    <g id="line2d_57">
     <path d="M 71.86875 347.302187 
L 91.86875 347.302187 
" style="fill:none;stroke:#1f77b4;stroke-linecap:square;stroke-width:1.5;"/>
    </g>
    <g id="line2d_58"/>
    <g id="text_55">
     <!-- bwa -->
     <g transform="translate(99.86875 350.802187)scale(0.1 -0.1)">
      <use xlink:href="#DejaVuSans-98"/>
      <use x="63.476562" xlink:href="#DejaVuSans-119"/>
      <use x="145.263672" xlink:href="#DejaVuSans-97"/>
     </g>
    </g>
    <g id="line2d_59">
     <path d="M 71.86875 361.980312 
L 91.86875 361.980312 
" style="fill:none;stroke:#ff7f0e;stroke-linecap:square;stroke-width:1.5;"/>
    </g>
    <g id="line2d_60"/>
    <g id="text_56">
     <!-- bowtie2 -->
     <g transform="translate(99.86875 365.480312)scale(0.1 -0.1)">
      <use xlink:href="#DejaVuSans-98"/>
      <use x="63.476562" xlink:href="#DejaVuSans-111"/>
      <use x="124.658203" xlink:href="#DejaVuSans-119"/>
      <use x="206.445312" xlink:href="#DejaVuSans-116"/>
      <use x="245.654297" xlink:href="#DejaVuSans-105"/>
      <use x="273.4375" xlink:href="#DejaVuSans-101"/>
      <use x="334.960938" xlink:href="#DejaVuSans-50"/>
     </g>
    </g>
   </g>
  </g>
  <g id="axes_5">
   <g id="patch_26">
    <path d="M 272.11875 376.56 
L 411.61875 376.56 
L 411.61875 246.096 
L 272.11875 246.096 
z
" style="fill:#ffffff;"/>
   </g>
   <g id="matplotlib.axis_9">
    <g id="xtick_17">
     <g id="line2d_61">
      <g>
       <use style="stroke:#000000;stroke-width:0.8;" x="278.459659" xlink:href="#m6e42ab7b79" y="376.56"/>
      </g>
     </g>
     <g id="text_57">
      <!-- 60 -->
      <g transform="translate(272.097159 391.158437)scale(0.1 -0.1)">
       <use xlink:href="#DejaVuSans-54"/>
       <use x="63.623047" xlink:href="#DejaVuSans-48"/>
      </g>
     </g>
    </g>
    <g id="xtick_18">
     <g id="line2d_62">
      <g>
       <use style="stroke:#000000;stroke-width:0.8;" x="320.732386" xlink:href="#m6e42ab7b79" y="376.56"/>
      </g>
     </g>
     <g id="text_58">
      <!-- 40 -->
      <g transform="translate(314.369886 391.158437)scale(0.1 -0.1)">
       <use xlink:href="#DejaVuSans-52"/>
       <use x="63.623047" xlink:href="#DejaVuSans-48"/>
      </g>
     </g>
    </g>
    <g id="xtick_19">
     <g id="line2d_63">
      <g>
       <use style="stroke:#000000;stroke-width:0.8;" x="363.005114" xlink:href="#m6e42ab7b79" y="376.56"/>
      </g>
     </g>
     <g id="text_59">
      <!-- 20 -->
      <g transform="translate(356.642614 391.158437)scale(0.1 -0.1)">
       <use xlink:href="#DejaVuSans-50"/>
       <use x="63.623047" xlink:href="#DejaVuSans-48"/>
      </g>
     </g>
    </g>
    <g id="xtick_20">
     <g id="line2d_64">
      <g>
       <use style="stroke:#000000;stroke-width:0.8;" x="405.277841" xlink:href="#m6e42ab7b79" y="376.56"/>
      </g>
     </g>
     <g id="text_60">
      <!-- 0 -->
      <g transform="translate(402.096591 391.158437)scale(0.1 -0.1)">
       <use xlink:href="#DejaVuSans-48"/>
      </g>
     </g>
    </g>
    <g id="text_61">
     <!-- mapping score -->
     <g transform="translate(304.721094 404.836562)scale(0.1 -0.1)">
      <use xlink:href="#DejaVuSans-109"/>
      <use x="97.412109" xlink:href="#DejaVuSans-97"/>
      <use x="158.691406" xlink:href="#DejaVuSans-112"/>
      <use x="222.167969" xlink:href="#DejaVuSans-112"/>
      <use x="285.644531" xlink:href="#DejaVuSans-105"/>
      <use x="313.427734" xlink:href="#DejaVuSans-110"/>
      <use x="376.806641" xlink:href="#DejaVuSans-103"/>
      <use x="440.283203" xlink:href="#DejaVuSans-32"/>
      <use x="472.070312" xlink:href="#DejaVuSans-115"/>
      <use x="524.169922" xlink:href="#DejaVuSans-99"/>
      <use x="579.150391" xlink:href="#DejaVuSans-111"/>
      <use x="640.332031" xlink:href="#DejaVuSans-114"/>
      <use x="681.414062" xlink:href="#DejaVuSans-101"/>
     </g>
    </g>
   </g>
   <g id="matplotlib.axis_10">
    <g id="ytick_21">
     <g id="line2d_65">
      <g>
       <use style="stroke:#000000;stroke-width:0.8;" x="272.11875" xlink:href="#m2b60faa96b" y="359.303491"/>
      </g>
     </g>
     <g id="text_62">
      <!-- 0.99900 -->
      <g transform="translate(223.765625 363.10271)scale(0.1 -0.1)">
       <use xlink:href="#DejaVuSans-48"/>
       <use x="63.623047" xlink:href="#DejaVuSans-46"/>
       <use x="95.410156" xlink:href="#DejaVuSans-57"/>
       <use x="159.033203" xlink:href="#DejaVuSans-57"/>
       <use x="222.65625" xlink:href="#DejaVuSans-57"/>
       <use x="286.279297" xlink:href="#DejaVuSans-48"/>
       <use x="349.902344" xlink:href="#DejaVuSans-48"/>
      </g>
     </g>
    </g>
    <g id="ytick_22">
     <g id="line2d_66">
      <g>
       <use style="stroke:#000000;stroke-width:0.8;" x="272.11875" xlink:href="#m2b60faa96b" y="332.484164"/>
      </g>
     </g>
     <g id="text_63">
      <!-- 0.99925 -->
      <g transform="translate(223.765625 336.283383)scale(0.1 -0.1)">
       <use xlink:href="#DejaVuSans-48"/>
       <use x="63.623047" xlink:href="#DejaVuSans-46"/>
       <use x="95.410156" xlink:href="#DejaVuSans-57"/>
       <use x="159.033203" xlink:href="#DejaVuSans-57"/>
       <use x="222.65625" xlink:href="#DejaVuSans-57"/>
       <use x="286.279297" xlink:href="#DejaVuSans-50"/>
       <use x="349.902344" xlink:href="#DejaVuSans-53"/>
      </g>
     </g>
    </g>
    <g id="ytick_23">
     <g id="line2d_67">
      <g>
       <use style="stroke:#000000;stroke-width:0.8;" x="272.11875" xlink:href="#m2b60faa96b" y="305.664837"/>
      </g>
     </g>
     <g id="text_64">
      <!-- 0.99950 -->
      <g transform="translate(223.765625 309.464055)scale(0.1 -0.1)">
       <use xlink:href="#DejaVuSans-48"/>
       <use x="63.623047" xlink:href="#DejaVuSans-46"/>
       <use x="95.410156" xlink:href="#DejaVuSans-57"/>
       <use x="159.033203" xlink:href="#DejaVuSans-57"/>
       <use x="222.65625" xlink:href="#DejaVuSans-57"/>
       <use x="286.279297" xlink:href="#DejaVuSans-53"/>
       <use x="349.902344" xlink:href="#DejaVuSans-48"/>
      </g>
     </g>
    </g>
    <g id="ytick_24">
     <g id="line2d_68">
      <g>
       <use style="stroke:#000000;stroke-width:0.8;" x="272.11875" xlink:href="#m2b60faa96b" y="278.845509"/>
      </g>
     </g>
     <g id="text_65">
      <!-- 0.99975 -->
      <g transform="translate(223.765625 282.644728)scale(0.1 -0.1)">
       <use xlink:href="#DejaVuSans-48"/>
       <use x="63.623047" xlink:href="#DejaVuSans-46"/>
       <use x="95.410156" xlink:href="#DejaVuSans-57"/>
       <use x="159.033203" xlink:href="#DejaVuSans-57"/>
       <use x="222.65625" xlink:href="#DejaVuSans-57"/>
       <use x="286.279297" xlink:href="#DejaVuSans-55"/>
       <use x="349.902344" xlink:href="#DejaVuSans-53"/>
      </g>
     </g>
    </g>
    <g id="ytick_25">
     <g id="line2d_69">
      <g>
       <use style="stroke:#000000;stroke-width:0.8;" x="272.11875" xlink:href="#m2b60faa96b" y="252.026182"/>
      </g>
     </g>
     <g id="text_66">
      <!-- 1.00000 -->
      <g transform="translate(223.765625 255.825401)scale(0.1 -0.1)">
       <use xlink:href="#DejaVuSans-49"/>
       <use x="63.623047" xlink:href="#DejaVuSans-46"/>
       <use x="95.410156" xlink:href="#DejaVuSans-48"/>
       <use x="159.033203" xlink:href="#DejaVuSans-48"/>
       <use x="222.65625" xlink:href="#DejaVuSans-48"/>
       <use x="286.279297" xlink:href="#DejaVuSans-48"/>
       <use x="349.902344" xlink:href="#DejaVuSans-48"/>
      </g>
     </g>
    </g>
    <g id="text_67">
     <!-- cumulative recall -->
     <g transform="translate(217.685937 354.43425)rotate(-90)scale(0.1 -0.1)">
      <use xlink:href="#DejaVuSans-99"/>
      <use x="54.980469" xlink:href="#DejaVuSans-117"/>
      <use x="118.359375" xlink:href="#DejaVuSans-109"/>
      <use x="215.771484" xlink:href="#DejaVuSans-117"/>
      <use x="279.150391" xlink:href="#DejaVuSans-108"/>
      <use x="306.933594" xlink:href="#DejaVuSans-97"/>
      <use x="368.212891" xlink:href="#DejaVuSans-116"/>
      <use x="407.421875" xlink:href="#DejaVuSans-105"/>
      <use x="435.205078" xlink:href="#DejaVuSans-118"/>
      <use x="494.384766" xlink:href="#DejaVuSans-101"/>
      <use x="555.908203" xlink:href="#DejaVuSans-32"/>
      <use x="587.695312" xlink:href="#DejaVuSans-114"/>
      <use x="628.777344" xlink:href="#DejaVuSans-101"/>
      <use x="690.300781" xlink:href="#DejaVuSans-99"/>
      <use x="745.28125" xlink:href="#DejaVuSans-97"/>
      <use x="806.560547" xlink:href="#DejaVuSans-108"/>
      <use x="834.34375" xlink:href="#DejaVuSans-108"/>
     </g>
    </g>
   </g>
   <g id="line2d_70">
    <path clip-path="url(#pb1bf84108d)" d="M 278.459659 252.026182 
L 280.573295 252.026182 
L 282.686932 252.026182 
L 284.800568 252.026182 
L 286.914205 252.026182 
L 289.027841 252.026182 
L 291.141477 252.026182 
L 293.255114 252.026182 
L 295.36875 252.026182 
L 297.482386 252.026182 
L 299.596023 252.026182 
L 301.709659 252.026182 
L 303.823295 252.026182 
L 305.936932 252.026182 
L 308.050568 252.026182 
L 310.164205 252.026182 
L 312.277841 252.026182 
L 314.391477 252.026182 
L 316.505114 252.026182 
L 318.61875 252.026182 
L 320.732386 252.026182 
L 322.846023 252.026182 
L 324.959659 252.026182 
L 327.073295 252.026182 
L 329.186932 252.026182 
L 331.300568 252.026182 
L 333.414205 252.026182 
L 335.527841 252.026182 
L 337.641477 252.026182 
L 339.755114 252.026182 
L 341.86875 252.026182 
L 343.982386 252.026182 
L 346.096023 252.026182 
L 348.209659 252.026182 
L 350.323295 252.026182 
L 352.436932 252.026182 
L 354.550568 252.026182 
L 356.664205 252.026182 
L 358.777841 252.026182 
L 360.891477 252.026182 
L 363.005114 252.026182 
L 365.11875 252.026182 
L 367.232386 252.026182 
L 369.346023 252.026182 
L 371.459659 252.026182 
L 373.573295 252.026182 
L 375.686932 252.026182 
L 377.800568 252.026182 
L 379.914205 252.026182 
L 382.027841 252.026182 
L 384.141477 252.026182 
L 386.255114 252.026182 
L 388.36875 252.026182 
L 390.482386 252.026182 
L 392.596023 252.026182 
L 394.709659 252.026182 
L 396.823295 252.026182 
L 398.936932 252.026182 
L 401.050568 252.026182 
L 403.164205 252.026182 
L 405.277841 252.026182 
" style="fill:none;stroke:#1f77b4;stroke-linecap:square;stroke-width:1.5;"/>
   </g>
   <g id="line2d_71">
    <path clip-path="url(#pb1bf84108d)" d="M 316.505114 252.026182 
L 318.61875 252.026182 
L 320.732386 252.026182 
L 322.846023 252.026182 
L 324.959659 252.026182 
L 327.073295 252.026182 
L 329.186932 252.026182 
L 331.300568 252.026182 
L 333.414205 252.026182 
L 335.527841 252.026182 
L 337.641477 252.026182 
L 339.755114 252.026182 
L 341.86875 252.026182 
L 343.982386 252.026182 
L 346.096023 252.026182 
L 348.209659 252.026182 
L 350.323295 252.026182 
L 352.436932 252.026182 
L 354.550568 252.026182 
L 356.664205 252.026182 
L 358.777841 252.026182 
L 360.891477 252.026182 
L 363.005114 252.026182 
L 365.11875 252.026182 
L 367.232386 252.026182 
L 369.346023 252.026182 
L 371.459659 252.026182 
L 373.573295 252.026182 
L 375.686932 252.026182 
L 377.800568 252.026182 
L 379.914205 252.026182 
L 382.027841 252.026182 
L 384.141477 252.026182 
L 386.255114 252.026182 
L 388.36875 252.026182 
L 390.482386 252.026182 
L 392.596023 252.026182 
L 394.709659 252.026182 
L 396.823295 252.026182 
L 398.936932 252.026182 
L 401.050568 252.026182 
L 403.164205 252.026182 
L 405.277841 370.629818 
" style="fill:none;stroke:#ff7f0e;stroke-linecap:square;stroke-width:1.5;"/>
   </g>
   <g id="patch_27">
    <path d="M 272.11875 376.56 
L 272.11875 246.096 
" style="fill:none;stroke:#000000;stroke-linecap:square;stroke-linejoin:miter;stroke-width:0.8;"/>
   </g>
   <g id="patch_28">
    <path d="M 411.61875 376.56 
L 411.61875 246.096 
" style="fill:none;stroke:#000000;stroke-linecap:square;stroke-linejoin:miter;stroke-width:0.8;"/>
   </g>
   <g id="patch_29">
    <path d="M 272.11875 376.56 
L 411.61875 376.56 
" style="fill:none;stroke:#000000;stroke-linecap:square;stroke-linejoin:miter;stroke-width:0.8;"/>
   </g>
   <g id="patch_30">
    <path d="M 272.11875 246.096 
L 411.61875 246.096 
" style="fill:none;stroke:#000000;stroke-linecap:square;stroke-linejoin:miter;stroke-width:0.8;"/>
   </g>
   <g id="text_68">
    <!-- dataset2 -->
    <g transform="translate(315.366562 240.096)scale(0.12 -0.12)">
     <use xlink:href="#DejaVuSans-100"/>
     <use x="63.476562" xlink:href="#DejaVuSans-97"/>
     <use x="124.755859" xlink:href="#DejaVuSans-116"/>
     <use x="163.964844" xlink:href="#DejaVuSans-97"/>
     <use x="225.244141" xlink:href="#DejaVuSans-115"/>
     <use x="277.34375" xlink:href="#DejaVuSans-101"/>
     <use x="338.867188" xlink:href="#DejaVuSans-116"/>
     <use x="378.076172" xlink:href="#DejaVuSans-50"/>
    </g>
   </g>
   <g id="legend_5">
    <g id="patch_31">
     <path d="M 279.11875 371.56 
L 350.978125 371.56 
Q 352.978125 371.56 352.978125 369.56 
L 352.978125 341.20375 
Q 352.978125 339.20375 350.978125 339.20375 
L 279.11875 339.20375 
Q 277.11875 339.20375 277.11875 341.20375 
L 277.11875 369.56 
Q 277.11875 371.56 279.11875 371.56 
z
" style="fill:#ffffff;opacity:0.8;stroke:#cccccc;stroke-linejoin:miter;"/>
    </g>
    <g id="line2d_72">
     <path d="M 281.11875 347.302187 
L 301.11875 347.302187 
" style="fill:none;stroke:#1f77b4;stroke-linecap:square;stroke-width:1.5;"/>
    </g>
    <g id="line2d_73"/>
    <g id="text_69">
     <!-- bwa -->
     <g transform="translate(309.11875 350.802187)scale(0.1 -0.1)">
      <use xlink:href="#DejaVuSans-98"/>
      <use x="63.476562" xlink:href="#DejaVuSans-119"/>
      <use x="145.263672" xlink:href="#DejaVuSans-97"/>
     </g>
    </g>
    <g id="line2d_74">
     <path d="M 281.11875 361.980312 
L 301.11875 361.980312 
" style="fill:none;stroke:#ff7f0e;stroke-linecap:square;stroke-width:1.5;"/>
    </g>
    <g id="line2d_75"/>
    <g id="text_70">
     <!-- bowtie2 -->
     <g transform="translate(309.11875 365.480312)scale(0.1 -0.1)">
      <use xlink:href="#DejaVuSans-98"/>
      <use x="63.476562" xlink:href="#DejaVuSans-111"/>
      <use x="124.658203" xlink:href="#DejaVuSans-119"/>
      <use x="206.445312" xlink:href="#DejaVuSans-116"/>
      <use x="245.654297" xlink:href="#DejaVuSans-105"/>
      <use x="273.4375" xlink:href="#DejaVuSans-101"/>
      <use x="334.960938" xlink:href="#DejaVuSans-50"/>
     </g>
    </g>
   </g>
  </g>
  <g id="axes_6">
   <g id="patch_32">
    <path d="M 481.36875 376.56 
L 620.86875 376.56 
L 620.86875 246.096 
L 481.36875 246.096 
z
" style="fill:#ffffff;"/>
   </g>
   <g id="matplotlib.axis_11">
    <g id="xtick_21">
     <g id="line2d_76">
      <g>
       <use style="stroke:#000000;stroke-width:0.8;" x="487.709659" xlink:href="#m6e42ab7b79" y="376.56"/>
      </g>
     </g>
     <g id="text_71">
      <!-- 60 -->
      <g transform="translate(481.347159 391.158437)scale(0.1 -0.1)">
       <use xlink:href="#DejaVuSans-54"/>
       <use x="63.623047" xlink:href="#DejaVuSans-48"/>
      </g>
     </g>
    </g>
    <g id="xtick_22">
     <g id="line2d_77">
      <g>
       <use style="stroke:#000000;stroke-width:0.8;" x="529.982386" xlink:href="#m6e42ab7b79" y="376.56"/>
      </g>
     </g>
     <g id="text_72">
      <!-- 40 -->
      <g transform="translate(523.619886 391.158437)scale(0.1 -0.1)">
       <use xlink:href="#DejaVuSans-52"/>
       <use x="63.623047" xlink:href="#DejaVuSans-48"/>
      </g>
     </g>
    </g>
    <g id="xtick_23">
     <g id="line2d_78">
      <g>
       <use style="stroke:#000000;stroke-width:0.8;" x="572.255114" xlink:href="#m6e42ab7b79" y="376.56"/>
      </g>
     </g>
     <g id="text_73">
      <!-- 20 -->
      <g transform="translate(565.892614 391.158437)scale(0.1 -0.1)">
       <use xlink:href="#DejaVuSans-50"/>
       <use x="63.623047" xlink:href="#DejaVuSans-48"/>
      </g>
     </g>
    </g>
    <g id="xtick_24">
     <g id="line2d_79">
      <g>
       <use style="stroke:#000000;stroke-width:0.8;" x="614.527841" xlink:href="#m6e42ab7b79" y="376.56"/>
      </g>
     </g>
     <g id="text_74">
      <!-- 0 -->
      <g transform="translate(611.346591 391.158437)scale(0.1 -0.1)">
       <use xlink:href="#DejaVuSans-48"/>
      </g>
     </g>
    </g>
    <g id="text_75">
     <!-- mapping score -->
     <g transform="translate(513.971094 404.836562)scale(0.1 -0.1)">
      <use xlink:href="#DejaVuSans-109"/>
      <use x="97.412109" xlink:href="#DejaVuSans-97"/>
      <use x="158.691406" xlink:href="#DejaVuSans-112"/>
      <use x="222.167969" xlink:href="#DejaVuSans-112"/>
      <use x="285.644531" xlink:href="#DejaVuSans-105"/>
      <use x="313.427734" xlink:href="#DejaVuSans-110"/>
      <use x="376.806641" xlink:href="#DejaVuSans-103"/>
      <use x="440.283203" xlink:href="#DejaVuSans-32"/>
      <use x="472.070312" xlink:href="#DejaVuSans-115"/>
      <use x="524.169922" xlink:href="#DejaVuSans-99"/>
      <use x="579.150391" xlink:href="#DejaVuSans-111"/>
      <use x="640.332031" xlink:href="#DejaVuSans-114"/>
      <use x="681.414062" xlink:href="#DejaVuSans-101"/>
     </g>
    </g>
   </g>
   <g id="matplotlib.axis_12">
    <g id="ytick_26">
     <g id="line2d_80">
      <g>
       <use style="stroke:#000000;stroke-width:0.8;" x="481.36875" xlink:href="#m2b60faa96b" y="350.569026"/>
      </g>
     </g>
     <g id="text_76">
      <!-- 0.9994 -->
      <g transform="translate(439.378125 354.368244)scale(0.1 -0.1)">
       <use xlink:href="#DejaVuSans-48"/>
       <use x="63.623047" xlink:href="#DejaVuSans-46"/>
       <use x="95.410156" xlink:href="#DejaVuSans-57"/>
       <use x="159.033203" xlink:href="#DejaVuSans-57"/>
       <use x="222.65625" xlink:href="#DejaVuSans-57"/>
       <use x="286.279297" xlink:href="#DejaVuSans-52"/>
      </g>
     </g>
    </g>
    <g id="ytick_27">
     <g id="line2d_81">
      <g>
       <use style="stroke:#000000;stroke-width:0.8;" x="481.36875" xlink:href="#m2b60faa96b" y="317.721411"/>
      </g>
     </g>
     <g id="text_77">
      <!-- 0.9996 -->
      <g transform="translate(439.378125 321.52063)scale(0.1 -0.1)">
       <use xlink:href="#DejaVuSans-48"/>
       <use x="63.623047" xlink:href="#DejaVuSans-46"/>
       <use x="95.410156" xlink:href="#DejaVuSans-57"/>
       <use x="159.033203" xlink:href="#DejaVuSans-57"/>
       <use x="222.65625" xlink:href="#DejaVuSans-57"/>
       <use x="286.279297" xlink:href="#DejaVuSans-54"/>
      </g>
     </g>
    </g>
    <g id="ytick_28">
     <g id="line2d_82">
      <g>
       <use style="stroke:#000000;stroke-width:0.8;" x="481.36875" xlink:href="#m2b60faa96b" y="284.873796"/>
      </g>
     </g>
     <g id="text_78">
      <!-- 0.9998 -->
      <g transform="translate(439.378125 288.673015)scale(0.1 -0.1)">
       <use xlink:href="#DejaVuSans-48"/>
       <use x="63.623047" xlink:href="#DejaVuSans-46"/>
       <use x="95.410156" xlink:href="#DejaVuSans-57"/>
       <use x="159.033203" xlink:href="#DejaVuSans-57"/>
       <use x="222.65625" xlink:href="#DejaVuSans-57"/>
       <use x="286.279297" xlink:href="#DejaVuSans-56"/>
      </g>
     </g>
    </g>
    <g id="ytick_29">
     <g id="line2d_83">
      <g>
       <use style="stroke:#000000;stroke-width:0.8;" x="481.36875" xlink:href="#m2b60faa96b" y="252.026182"/>
      </g>
     </g>
     <g id="text_79">
      <!-- 1.0000 -->
      <g transform="translate(439.378125 255.825401)scale(0.1 -0.1)">
       <use xlink:href="#DejaVuSans-49"/>
       <use x="63.623047" xlink:href="#DejaVuSans-46"/>
       <use x="95.410156" xlink:href="#DejaVuSans-48"/>
       <use x="159.033203" xlink:href="#DejaVuSans-48"/>
       <use x="222.65625" xlink:href="#DejaVuSans-48"/>
       <use x="286.279297" xlink:href="#DejaVuSans-48"/>
      </g>
     </g>
    </g>
    <g id="text_80">
     <!-- cumulative recall -->
     <g transform="translate(433.298438 354.43425)rotate(-90)scale(0.1 -0.1)">
      <use xlink:href="#DejaVuSans-99"/>
      <use x="54.980469" xlink:href="#DejaVuSans-117"/>
      <use x="118.359375" xlink:href="#DejaVuSans-109"/>
      <use x="215.771484" xlink:href="#DejaVuSans-117"/>
      <use x="279.150391" xlink:href="#DejaVuSans-108"/>
      <use x="306.933594" xlink:href="#DejaVuSans-97"/>
      <use x="368.212891" xlink:href="#DejaVuSans-116"/>
      <use x="407.421875" xlink:href="#DejaVuSans-105"/>
      <use x="435.205078" xlink:href="#DejaVuSans-118"/>
      <use x="494.384766" xlink:href="#DejaVuSans-101"/>
      <use x="555.908203" xlink:href="#DejaVuSans-32"/>
      <use x="587.695312" xlink:href="#DejaVuSans-114"/>
      <use x="628.777344" xlink:href="#DejaVuSans-101"/>
      <use x="690.300781" xlink:href="#DejaVuSans-99"/>
      <use x="745.28125" xlink:href="#DejaVuSans-97"/>
      <use x="806.560547" xlink:href="#DejaVuSans-108"/>
      <use x="834.34375" xlink:href="#DejaVuSans-108"/>
     </g>
    </g>
   </g>
   <g id="line2d_84">
    <path clip-path="url(#p70c4ef6c88)" d="M 487.709659 252.026182 
L 489.823295 252.026182 
L 491.936932 252.026182 
L 494.050568 252.026182 
L 496.164205 252.026182 
L 498.277841 252.026182 
L 500.391477 252.026182 
L 502.505114 252.026182 
L 504.61875 252.026182 
L 506.732386 252.026182 
L 508.846023 252.026182 
L 510.959659 252.026182 
L 513.073295 252.026182 
L 515.186932 252.026182 
L 517.300568 252.026182 
L 519.414205 252.026182 
L 521.527841 252.026182 
L 523.641477 252.026182 
L 525.755114 252.026182 
L 527.86875 252.026182 
L 529.982386 252.026182 
L 532.096023 252.026182 
L 534.209659 252.026182 
L 536.323295 252.026182 
L 538.436932 252.026182 
L 540.550568 252.026182 
L 542.664205 252.026182 
L 544.777841 252.026182 
L 546.891477 252.026182 
L 549.005114 252.026182 
L 551.11875 252.026182 
L 553.232386 252.026182 
L 555.346023 252.026182 
L 557.459659 252.026182 
L 559.573295 252.026182 
L 561.686932 252.026182 
L 563.800568 252.026182 
L 565.914205 252.026182 
L 568.027841 252.026182 
L 570.141477 252.026182 
L 572.255114 252.026182 
L 574.36875 252.026182 
L 576.482386 252.026182 
L 578.596023 252.026182 
L 580.709659 252.026182 
L 582.823295 252.026182 
L 584.936932 252.026182 
L 587.050568 252.026182 
L 589.164205 252.026182 
L 591.277841 252.026182 
L 593.391477 252.026182 
L 595.505114 252.026182 
L 597.61875 252.026182 
L 599.732386 252.026182 
L 601.846023 252.026182 
L 603.959659 252.026182 
L 606.073295 252.026182 
L 608.186932 252.026182 
L 610.300568 252.026182 
L 612.414205 252.026182 
L 614.527841 252.026182 
" style="fill:none;stroke:#1f77b4;stroke-linecap:square;stroke-width:1.5;"/>
   </g>
   <g id="line2d_85">
    <path clip-path="url(#p70c4ef6c88)" d="M 525.755114 252.026182 
L 527.86875 252.026182 
L 529.982386 252.026182 
L 532.096023 252.026182 
L 534.209659 252.026182 
L 536.323295 252.026182 
L 538.436932 252.026182 
L 540.550568 252.026182 
L 542.664205 252.026182 
L 544.777841 252.026182 
L 546.891477 252.026182 
L 549.005114 252.026182 
L 551.11875 252.026182 
L 553.232386 252.026182 
L 555.346023 252.026182 
L 557.459659 252.026182 
L 559.573295 252.026182 
L 561.686932 252.026182 
L 563.800568 252.026182 
L 565.914205 252.026182 
L 568.027841 252.026182 
L 570.141477 252.026182 
L 572.255114 252.026182 
L 574.36875 252.026182 
L 576.482386 252.026182 
L 578.596023 252.026182 
L 580.709659 252.026182 
L 582.823295 252.026182 
L 584.936932 252.026182 
L 587.050568 252.026182 
L 589.164205 252.026182 
L 591.277841 252.026182 
L 593.391477 252.026182 
L 595.505114 252.026182 
L 597.61875 252.026182 
L 599.732386 252.026182 
L 601.846023 252.026182 
L 603.959659 252.026182 
L 606.073295 252.026182 
L 608.186932 252.026182 
L 610.300568 252.026182 
L 612.414205 252.026182 
L 614.527841 370.629818 
" style="fill:none;stroke:#ff7f0e;stroke-linecap:square;stroke-width:1.5;"/>
   </g>
   <g id="patch_33">
    <path d="M 481.36875 376.56 
L 481.36875 246.096 
" style="fill:none;stroke:#000000;stroke-linecap:square;stroke-linejoin:miter;stroke-width:0.8;"/>
   </g>
   <g id="patch_34">
    <path d="M 620.86875 376.56 
L 620.86875 246.096 
" style="fill:none;stroke:#000000;stroke-linecap:square;stroke-linejoin:miter;stroke-width:0.8;"/>
   </g>
   <g id="patch_35">
    <path d="M 481.36875 376.56 
L 620.86875 376.56 
" style="fill:none;stroke:#000000;stroke-linecap:square;stroke-linejoin:miter;stroke-width:0.8;"/>
   </g>
   <g id="patch_36">
    <path d="M 481.36875 246.096 
L 620.86875 246.096 
" style="fill:none;stroke:#000000;stroke-linecap:square;stroke-linejoin:miter;stroke-width:0.8;"/>
   </g>
   <g id="text_81">
    <!-- dataset3 -->
    <g transform="translate(524.616563 240.096)scale(0.12 -0.12)">
     <use xlink:href="#DejaVuSans-100"/>
     <use x="63.476562" xlink:href="#DejaVuSans-97"/>
     <use x="124.755859" xlink:href="#DejaVuSans-116"/>
     <use x="163.964844" xlink:href="#DejaVuSans-97"/>
     <use x="225.244141" xlink:href="#DejaVuSans-115"/>
     <use x="277.34375" xlink:href="#DejaVuSans-101"/>
     <use x="338.867188" xlink:href="#DejaVuSans-116"/>
     <use x="378.076172" xlink:href="#DejaVuSans-51"/>
    </g>
   </g>
   <g id="legend_6">
    <g id="patch_37">
     <path d="M 488.36875 371.56 
L 560.228125 371.56 
Q 562.228125 371.56 562.228125 369.56 
L 562.228125 341.20375 
Q 562.228125 339.20375 560.228125 339.20375 
L 488.36875 339.20375 
Q 486.36875 339.20375 486.36875 341.20375 
L 486.36875 369.56 
Q 486.36875 371.56 488.36875 371.56 
z
" style="fill:#ffffff;opacity:0.8;stroke:#cccccc;stroke-linejoin:miter;"/>
    </g>
    <g id="line2d_86">
     <path d="M 490.36875 347.302187 
L 510.36875 347.302187 
" style="fill:none;stroke:#1f77b4;stroke-linecap:square;stroke-width:1.5;"/>
    </g>
    <g id="line2d_87"/>
    <g id="text_82">
     <!-- bwa -->
     <g transform="translate(518.36875 350.802187)scale(0.1 -0.1)">
      <use xlink:href="#DejaVuSans-98"/>
      <use x="63.476562" xlink:href="#DejaVuSans-119"/>
      <use x="145.263672" xlink:href="#DejaVuSans-97"/>
     </g>
    </g>
    <g id="line2d_88">
     <path d="M 490.36875 361.980312 
L 510.36875 361.980312 
" style="fill:none;stroke:#ff7f0e;stroke-linecap:square;stroke-width:1.5;"/>
    </g>
    <g id="line2d_89"/>
    <g id="text_83">
     <!-- bowtie2 -->
     <g transform="translate(518.36875 365.480312)scale(0.1 -0.1)">
      <use xlink:href="#DejaVuSans-98"/>
      <use x="63.476562" xlink:href="#DejaVuSans-111"/>
      <use x="124.658203" xlink:href="#DejaVuSans-119"/>
      <use x="206.445312" xlink:href="#DejaVuSans-116"/>
      <use x="245.654297" xlink:href="#DejaVuSans-105"/>
      <use x="273.4375" xlink:href="#DejaVuSans-101"/>
      <use x="334.960938" xlink:href="#DejaVuSans-50"/>
     </g>
    </g>
   </g>
  </g>
  <g id="text_84">
   <!-- cumulative precision and recall -->
   <g transform="translate(238.84125 16.318125)scale(0.12 -0.12)">
    <use xlink:href="#DejaVuSans-99"/>
    <use x="54.980469" xlink:href="#DejaVuSans-117"/>
    <use x="118.359375" xlink:href="#DejaVuSans-109"/>
    <use x="215.771484" xlink:href="#DejaVuSans-117"/>
    <use x="279.150391" xlink:href="#DejaVuSans-108"/>
    <use x="306.933594" xlink:href="#DejaVuSans-97"/>
    <use x="368.212891" xlink:href="#DejaVuSans-116"/>
    <use x="407.421875" xlink:href="#DejaVuSans-105"/>
    <use x="435.205078" xlink:href="#DejaVuSans-118"/>
    <use x="494.384766" xlink:href="#DejaVuSans-101"/>
    <use x="555.908203" xlink:href="#DejaVuSans-32"/>
    <use x="587.695312" xlink:href="#DejaVuSans-112"/>
    <use x="651.171875" xlink:href="#DejaVuSans-114"/>
    <use x="692.253906" xlink:href="#DejaVuSans-101"/>
    <use x="753.777344" xlink:href="#DejaVuSans-99"/>
    <use x="808.757812" xlink:href="#DejaVuSans-105"/>
    <use x="836.541016" xlink:href="#DejaVuSans-115"/>
    <use x="888.640625" xlink:href="#DejaVuSans-105"/>
    <use x="916.423828" xlink:href="#DejaVuSans-111"/>
    <use x="977.605469" xlink:href="#DejaVuSans-110"/>
    <use x="1040.984375" xlink:href="#DejaVuSans-32"/>
    <use x="1072.771484" xlink:href="#DejaVuSans-97"/>
    <use x="1134.050781" xlink:href="#DejaVuSans-110"/>
    <use x="1197.429688" xlink:href="#DejaVuSans-100"/>
    <use x="1260.90625" xlink:href="#DejaVuSans-32"/>
    <use x="1292.693359" xlink:href="#DejaVuSans-114"/>
    <use x="1333.775391" xlink:href="#DejaVuSans-101"/>
    <use x="1395.298828" xlink:href="#DejaVuSans-99"/>
    <use x="1450.279297" xlink:href="#DejaVuSans-97"/>
    <use x="1511.558594" xlink:href="#DejaVuSans-108"/>
    <use x="1539.341797" xlink:href="#DejaVuSans-108"/>
   </g>
  </g>
 </g>
 <defs>
  <clipPath id="p902c918045">
   <rect height="130.464" width="139.5" x="62.86875" y="50.4"/>
  </clipPath>
  <clipPath id="p6a0c8d3c5a">
   <rect height="130.464" width="139.5" x="272.11875" y="50.4"/>
  </clipPath>
  <clipPath id="pffec14dfe4">
   <rect height="130.464" width="139.5" x="481.36875" y="50.4"/>
  </clipPath>
  <clipPath id="p15fbbf9119">
   <rect height="130.464" width="139.5" x="62.86875" y="246.096"/>
  </clipPath>
  <clipPath id="pb1bf84108d">
   <rect height="130.464" width="139.5" x="272.11875" y="246.096"/>
  </clipPath>
  <clipPath id="p70c4ef6c88">
   <rect height="130.464" width="139.5" x="481.36875" y="246.096"/>
  </clipPath>
 </defs>
</svg>
